<?xml version="1.0" encoding="utf-8"?>
<!-- Generator: Adobe Illustrator 16.0.3, SVG Export Plug-In . SVG Version: 6.00 Build 0)  -->
<!DOCTYPE svg PUBLIC "-//W3C//DTD SVG 1.1//EN" "http://www.w3.org/Graphics/SVG/1.1/DTD/svg11.dtd">
<svg version="1.1" id="Layer_1" xmlns="http://www.w3.org/2000/svg" xmlns:xlink="http://www.w3.org/1999/xlink" x="0px" y="0px"
	 width="153.712px" height="77.906px" viewBox="0 0 153.712 77.906" enable-background="new 0 0 153.712 77.906"
	 xml:space="preserve">
<g>
	<path fill-rule="evenodd" clip-rule="evenodd" fill="#FFFFFF" d="M18.458,38.599h-6.738H1.318l0,0c-1.269,0-1.269,0-1.269,0.928
		l0,0v34.546l0,0c-0.024-0.024-0.024,0-0.049,0.024l0,0v0.024l0,0c0.025,0.195,0.245,0.757,0.977,0.757c0.749,0,7.579,0,8.301,0
		c0.806,0,0.806,0,0.806-0.732l0,0v-6.958l0,0c0-0.952,0-1.099,0.928-1.099l0,0h0.708h6.738l0,0
		c3.955-0.171,4.932-1.099,4.932-5.591l0,0V43.262l0,0C23.389,39.429,22.413,38.599,18.458,38.599L18.458,38.599L18.458,38.599
		L18.458,38.599z M13.355,60.035c-0.049,1.074-0.854,1.611-1.636,1.611c-0.83,0-1.636-0.562-1.636-1.709l0,0V44.19l0,0
		c0-1.074,0.806-1.636,1.636-1.636s1.636,0.562,1.636,1.709l0,0V60.035L13.355,60.035L13.355,60.035z"/>
	<path fill-rule="evenodd" clip-rule="evenodd" fill="#FFFFFF" d="M50.416,39.429c0-0.83-0.171-0.562-0.928-0.83l0,0h-8.203l0,0
		c-0.903,0-0.903,0-0.903,0.83l0,0l-0.024,28.589l0,0c0,2.808-3.173,2.734-3.173,0l0,0V39.429l0,0c0-0.83,0-0.83-0.831-0.83l0,0
		h-8.569l0,0c-1.001,0-1.001,0-1.001,0.83l0,0v30.249l0,0c0,4.468,1.001,5.2,3.735,5.2l0,0h15.869l0,0
		c3.101,0,4.126-0.83,4.028-4.932l0,0V39.429L50.416,39.429L50.416,39.429z"/>
	<path fill-rule="evenodd" clip-rule="evenodd" fill="#FFFFFF" d="M86.158,38.599H57.886l0,0c-3.369,0-4.37,0.83-4.37,4.126l0,0
		v31.421l0,0c0,0.732,0,0.732,1.001,0.732l0,0h7.935l0,0c1.099,0,1.099,0,1.099-0.732l0,0v-29.59l0,0c0-2.588,3.173-2.856,3.173,0
		l0,0v29.59l0,0c0,0.732,0,0.732,1.197,0.732l0,0h7.91l0,0c0.928,0,0.928,0,0.928-0.732l0,0v-29.59l0,0c0-2.441,3.174-2.588,3.174,0
		l0,0v29.59l0,0c0,0.732,0,0.732,1.001,0.732l0,0h8.13l0,0c0.903,0,0.903,0,0.903-0.732l0,0V42.53l0,0
		C89.967,39.429,88.966,38.599,86.158,38.599L86.158,38.599L86.158,38.599L86.158,38.599z"/>
	<path fill-rule="evenodd" clip-rule="evenodd" fill="#FFFFFF" d="M113.6,38.599h-8.179H97.56l0,0c-2.661,0-3.76,0.83-3.76,3.955
		l0,0v31.592l0,0c0,0.732,0,0.732,1.099,0.732l0,0h7.935l0,0c1.001,0,1.001,0,1.001-0.732l0,0V67.09l0,0
		c0.098-1.099,0.83-1.66,1.587-1.685c0.806-0.024,1.611,0.562,1.611,1.782l0,0v6.958l0,0c0,0.732,0,0.732,1.001,0.732l0,0h8.228l0,0
		c0.806,0,0.806,0,0.806-0.732l0,0V42.53l0,0C117.066,39.429,116.236,38.599,113.6,38.599L113.6,38.599L113.6,38.599L113.6,38.599z
		 M107.032,60.035c0,0.977-0.806,1.465-1.611,1.44c-0.781,0-1.587-0.488-1.587-1.44l0,0V44.556l0,0c0-1.074,0.806-1.587,1.587-1.587
		c0.806,0.024,1.611,0.562,1.611,1.587l0,0V60.035L107.032,60.035L107.032,60.035z"/>
	<path fill-rule="evenodd" clip-rule="evenodd" fill="#FFFFFF" d="M125.855,69.214c-0.023,0-0.049,0-0.073,0
		c-2.368,0-4.321,1.953-4.321,4.37c0,2.368,1.953,4.321,4.321,4.321c0.024,0,0.05,0,0.073,0c2.394-0.024,4.298-1.953,4.298-4.321
		C130.153,71.192,128.249,69.263,125.855,69.214L125.855,69.214L125.855,69.214L125.855,69.214z M129.273,73.951
		c-0.269,1.831-1.709,3.052-3.418,3.076c-0.463,0-0.928-0.073-1.392-0.244c-1.44-0.708-2.246-1.929-2.124-3.54
		c0.269-1.953,1.855-3.174,3.516-3.149c0.952,0,1.904,0.391,2.637,1.27C129.078,72.193,129.322,72.901,129.273,73.951
		L129.273,73.951L129.273,73.951L129.273,73.951z"/>
	<path fill-rule="evenodd" clip-rule="evenodd" fill="#FFFFFF" d="M127.247,73.658c0.317-0.293,0.488-0.684,0.488-1.147
		c0-0.415-0.194-0.781-0.586-1.05c-0.342-0.269-0.806-0.439-1.294-0.464c-0.049,0-0.097,0-0.171,0l0,0h-1.709l-0.024,5.2h0.854
		l-0.024-2.026h0.659l0.415,0.562l1.099,1.44h0.83l-1.611-2.051l0,0C126.539,74.122,126.905,73.926,127.247,73.658L127.247,73.658
		L127.247,73.658L127.247,73.658z M125.685,73.511h-0.879l-0.024-1.953h0.903l0,0c0.074,0,0.122,0.024,0.171,0.024
		c0.269,0.024,0.537,0.122,0.709,0.269c0.219,0.171,0.365,0.439,0.365,0.659c0,0.293-0.122,0.513-0.365,0.708
		c-0.195,0.171-0.44,0.269-0.709,0.293C125.807,73.511,125.759,73.511,125.685,73.511L125.685,73.511L125.685,73.511L125.685,73.511
		z"/>
	<path fill-rule="evenodd" clip-rule="evenodd" fill="#FFFFFF" d="M153.127,1.685c-0.757-1.221-2.393-0.854-4.371,0.098
		c-2.563,1.099-7.178,6.226-8.3,9.082c-1.001,4.102-3.345,7.886-7.154,11.963c-3.833,3.125-10.645,1.88-14.575-0.61
		c-0.244,0-16.382-12.573-16.382-12.573c-5.786-4.565-9.814-6.543-14.673-7.129c-0.244-0.146-0.464-0.391-0.537-0.562
		C86.378,0.269,86.231,0.415,85.694,0c-0.635,0.488-1.099,0.757-1.733,0.952c-0.293,0-0.342,0-0.513-0.098
		c-0.391-0.171-0.806-0.513-1.221-0.537c-0.488,0.098-0.879,1.074-1.538,2.051c0,0-1.123,0.977-2.148,1.831
		c-0.391,0.342-0.439,0.879-0.708,1.196c-0.537,0.586-1.172,1.538-1.27,1.538c-0.244,0.684-0.342,1.294,0.098,1.611
		c0,0.757,0.391,0.952,0.537,1.123c0.122,0.244,0.146,0.342,0.317,0.513c0.293,0.123,0.537,0.171,0.83,0.244
		c1.562,1.44,2.197,1.417,4.004,1.172c3.125,0.22,2.856,1.27,2.783,2.856c-0.195,0.245-0.244,0.22-0.464,0.342
		c-1.392,0-2.856-0.317-4.248-0.317c-3.052,0.269-5.688,0.806-5.444,4.492c0.195,1.441,2.808,3.442,4.175,0.733
		c0.195-1.246,1.245-0.684,2.148-0.391c5.469,2.368,9.839,3.589,12.744,1.123c0.879-1.099,1.416-0.317,2.319,0.341
		c4.395,5.225,10.693,8.618,20.386,8.74c3.223,0.806,5.688,2.149,6.909,5.323c3.003,7.69,6.812,13.892,12.403,17.139
		c-0.464,4.858-0.269,8.887,4.639,9.937c1.294-1.05-0.513-2.637,0.976-6.201c-0.122-1.587-1.488-2.881-1.953-5.908
		c-5.713-4.688-3.296-6.616-4.15-9.741c-0.073-4.566-1.074-8.057-3.003-11.523c-0.22-0.562,0.147-0.977,0.659-1.27
		c3.223-2.417,4.981-4.786,5.762-7.08c1.197-4.078,3.223-7.275,6.104-9.571c2.44-1.953,4.761-2.563,7.397-4.297
		C154.127,3.638,153.883,2.905,153.127,1.685L153.127,1.685L153.127,1.685L153.127,1.685z"/>
</g>
</svg>
