<?xml version="1.0" encoding="utf-8"?>
<!-- Generator: Adobe Illustrator 16.0.3, SVG Export Plug-In . SVG Version: 6.00 Build 0)  -->
<!DOCTYPE svg PUBLIC "-//W3C//DTD SVG 1.1//EN" "http://www.w3.org/Graphics/SVG/1.1/DTD/svg11.dtd">
<svg version="1.1" id="Layer_1" xmlns="http://www.w3.org/2000/svg" xmlns:xlink="http://www.w3.org/1999/xlink" x="0px" y="0px"
	 width="217.381px" height="70.742px" viewBox="0 0 217.381 70.742" enable-background="new 0 0 217.381 70.742"
	 xml:space="preserve">
<g>
	<g>
		<g>
			<g>
				<g>
					<g>
						<path fill="#FFFFFF" d="M6.343,29.289c6.24-11.546,17.021-24.14,29.752-28.345c2.615-0.652,6.091-1.386,8.41,0.402
							c2.062,1.529,2.339,4.142,1.872,6.495c-0.612,2.782-2.52,6.306-5.708,6.754c-0.574-0.001-1.062-0.204-1.433-0.607
							c-0.831-0.807-0.769-1.984-0.593-3.045c0.525-2.208,2.571-4.555,4.925-4.863c0.403-0.257,0.233-0.745,0.119-1.089
							c-0.313-0.49-0.686-0.864-1.26-0.98c-2.553-0.296-4.482,1.305-6.439,2.646c-7.428,5.975-12.822,13.649-17.355,21.298
							c-3.698,6.877-6.852,13.985-7.77,22.02c-0.451,5.826,1.396,11.545,6.582,14.348c5.616,2.976,12.886,0.963,18.518-0.568
							l5.173-1.589l9.943-2.951c9.426-2.751,21.226-3.37,30.428,0.278c5.562,2.316,11.292,5.494,14.919,10.961
							c0,0.143-0.001,0.316-0.173,0.286c-7.887-2.152-18.156-4.283-25.978-0.55l-0.373-0.086c-2.37-3.798-6.381-5.908-10.483-6.726
							c-13.258-1.281-24.16,4.997-36.624,6.562c-6.317,0.581-13.092,0.385-17.496-4.452c-6.951-6.943-6.133-19.198-2.832-27.569
							C3.539,34.964,4.869,32.098,6.343,29.289z"/>
						<path fill="#FFFFFF" d="M24.644,33.43c3.293-6.045,8.343-13.435,15.326-15.65c1.868-0.424,3.876-0.245,5.308,0.995
							c3.004,2.995,1.837,8.13,0.821,11.657c0,0.202,0.171,0.431,0.372,0.461c2.67-0.077,4.827-1.332,6.757-3.163
							c4.149-4.636,8.592-10.706,15.335-9.994c1.263,0.206,2.495,0.927,3.15,2.107c1.71,3.393,0.033,7.148-2.301,9.752
							c-0.894,0.858-2.015,1.515-3.306,1.108c-0.517-0.174-0.945-0.692-1.144-1.209c-0.48-2.384,0.906-4.59,2.833-5.846
							c0.548-0.543,2.211-0.165,1.757-1.4c-0.343-0.49-0.86-0.549-1.405-0.551c-3.276,1.367-5.413,4.719-7.318,7.525
							c-2.396,3.753-4.333,7.736-5.61,11.951c-0.35,1.521-0.787,3.5,0.098,4.91c0.657,0.891,1.747,1.269,2.868,0.986
							c3.248-1.281,6.1-3.883,8.577-6.573c5.679-6.812,8.694-15.242,16.292-20.785c2.359-1.628,5.694-2.88,8.531-1.377
							c0.458,0.174,0.829,0.778,1.404,0.551c0.46-0.458,0.779-1.433,1.697-1.2c2.096,0.037,4.508-0.07,6.659,0.139l0.143,0.201
							l-0.607,1.461L89.084,43.442c-0.115,0.257-0.146,0.602-0.089,0.89c0.199,0.345,0.63,0.317,0.946,0.204
							c1.698-0.971,3.024-2.774,4.207-4.292c1.038-1.432,1.961-2.921,2.714-4.498c0.317-0.459,0.692-1.031,1.324-0.942
							c0.66,0.088,1.493-0.196,1.98,0.265c-0.753,2.007-1.937,3.839-2.977,5.731c-3.204,4.926-7.386,10.654-13.276,12.125
							c-0.977,0.112-2.182,0.194-2.926-0.526c-1.146-0.865-1.197-2.243-1.509-3.479c-0.115-0.145-0.315-0.174-0.487-0.117
							c-2.506,2.26-5.097,4.519-8.626,4.076c-1.09-0.233-2.12-1.069-2.605-2.104c-0.913-1.755-0.474-4.021-0.525-5.973
							c-0.085-0.23-0.372-0.144-0.487-0.059c-3.831,3.776-7.977,7.177-13.061,8.136c-2.355,0.279-4.391-0.417-5.964-2.087
							c-3.8-4.98-0.792-11.514,1.206-16.359c0.086-0.229,0.059-0.545-0.228-0.604c-1.378,0.11-2.7,0.334-4.021,0.531l-0.461,0.516
							c-3.091,5.73-6.442,11.805-11.998,16.062c-2.302,1.657-5.722,2.794-8.415,1.263c-2.807-1.933-3.054-5.379-2.698-8.564
							C21.778,40.022,23.083,36.668,24.644,33.43z M33.428,33.145c-1.619,3.267-3.266,6.562-3.337,10.437
							c0.17,0.718,0.598,1.553,1.401,1.756c0.86,0.233,1.58-0.225,2.242-0.652c3.167-2.659,5.361-6.296,7.153-9.793
							c0.145-0.343,0.405-0.773,0.205-1.147c-1.892-0.752-3.725-2.051-5.183-3.692l-0.316-0.059
							c-0.287,0.056-0.403,0.343-0.604,0.543L33.428,33.145z M38.361,26.501c0.108,1.723,1.71,3.222,3.23,3.801
							c0.373,0.116,0.975,0.406,1.292-0.053c0.577-1.088,0.926-2.293,1.217-3.498c0.292-1.578,0.529-3.701-0.989-4.74
							c-0.516-0.289-1.291-0.32-1.836-0.064C39.55,22.802,38.31,24.549,38.361,26.501z M77.241,39.87
							c-0.436,1.435-1.102,2.982-0.647,4.562c0.142,0.316,0.485,0.547,0.8,0.635c1.292,0.033,2.158-1.141,2.993-2.057
							c3.779-5.24,6.669-10.885,9.272-16.618c0.435-1.204,1.127-2.321,1.104-3.671c-0.027-0.287-0.314-0.488-0.543-0.633
							c-0.573-0.26-1.12,0.14-1.58,0.368c-5.094,3.916-7.841,9.533-10.386,14.863L77.241,39.87z"/>
						<path fill="#FFFFFF" d="M101.779,25.142c1.127-2.235,2.082-4.557,3.497-6.676c0.576-0.63,1.466-0.599,2.241-0.682l5.654,0.077
							l0.229,0.231c-0.955,2.264-1.996,4.499-3.181,6.677c-0.289,0.573-0.894,1.117-1.554,1.201
							c-2.296,0.049-4.737,0.184-6.918-0.024C101.519,25.715,101.721,25.4,101.779,25.142z"/>
						<path fill="#FFFFFF" d="M107.452,36.616c3.933-8.139,8.667-15.988,15.38-22.913c6.511-6.494,13.562-11.751,22.093-13.358
							c2.326-0.336,4.938-0.126,6.712,1.459c0.344,0.288,0.745,0.576,1.233,0.406c6.123-2.448,14.623-3.309,20.756-0.244
							c3.553,1.735,6.934,3.957,10.342,6.093c0.43,0.231,0.227,0.689-0.003,0.948c-1.959,2.174-3.604,4.408-5.363,6.67
							c-0.202,0.2-0.517,0.113-0.717-0.002l-9.021-6.203c-4.21-2.856-9.055-4.854-14.541-3.955
							c-0.604,0.314-0.319,1.062-0.408,1.635c0.124,5.627-1.873,10.529-4.587,14.998c-2.165,3.122-4.672,6.385-8.351,7.435
							c-1.609,0.339-3.158-0.154-4.129-1.449c-2.684-4.086-0.313-9.073,1.651-12.712c2.253-3.953,5.74-7.673,9.511-10.531
							c0.086-0.144,0.259-0.286,0.145-0.458c-0.372-0.374-1.004-0.147-1.463-0.062c-6.123,2.046-11.021,7.454-15.546,12.577
							c-8.072,9.933-14.195,20.706-17.681,32.55c-1.078,4.445-2.537,11.273,1.988,14.389c3.982,2.139,7.81-0.605,10.805-3.177
							c4.551-4.636,7.613-9.993,8.868-16.046c0.208-1.808,0.704-4.274-0.957-5.515c-1.491-0.666-2.729,0.564-3.737,1.594
							c-2.335,2.805-3.322,6.161-3.736,9.776c-1.037,0.858-2.273,1.399-3.367,2.228c-2.072,1.429-4.116,3.344-5.759,5.263
							c-0.201,0.056-0.23-0.174-0.287-0.289c-0.235-6.661,2.138-12.366,5.802-17.492c2.911-3.377,6.653-6.264,11.185-5.186
							c1.979,0.523,3.292,2.624,3.66,4.49c0.725,6.261-1.907,11.736-4.738,16.835c-4.561,7.162-11.762,14.398-20.888,13.535
							c-3.501-0.212-6.766-2.635-8.247-5.855c-3.45-6.873-1.065-15.707,1.254-22.359L107.452,36.616z M138.496,24.752
							c0.084,0.776,0.396,1.609,1.2,1.899c1.548,0.436,2.787-0.708,3.938-1.594c4.15-4.377,6.664-9.45,7.316-15.275
							c0.002-0.861,0.294-1.951-0.192-2.699c-0.344-0.059-0.718,0.084-1.006,0.283c-2.791,1.856-5.413,4.575-7.317,7.324
							C140.444,17.755,138.625,20.906,138.496,24.752z"/>
						<path fill="#FFFFFF" d="M144.313,44.235c3.316-4.38,7.726-9.159,13.296-9.514c1.406,0.035,2.638,0.613,3.496,1.792
							c2.371,3.511,0.374,8.011-0.5,11.567c-0.086,0.316,0.143,0.545,0.371,0.633c1.149,0.177,2.469,0.009,3.476-0.504l0.432-0.544
							c4.001-11.411,9.952-22.012,17.019-32.121c4.414-5.841,10.06-11.879,16.615-14.699c1.552-0.54,3.793-1.192,5.282-0.039
							c1.66,1.354,1.193,3.707,0.756,5.514c-0.177,1.607-1.958,1.772-3.136,2.143c-0.058-0.03-0.116-0.001-0.173-0.059
							c0.033-1.033,0.582-1.95,0.785-2.954c0.06-0.545,0.148-1.004-0.081-1.522c-0.285-0.517-0.916-0.347-1.347-0.205
							c-2.215,1.082-4.001,3.057-5.702,4.975c-6.341,7.355-10.934,15.521-15.153,23.774c-1.388,2.866-2.834,5.703-3.963,8.684
							c-0.03,0.172,0.027,0.288,0.17,0.403c0.977-0.025,1.554-1.028,2.302-1.542c5.587-5.062,10.115-10.874,14.296-16.773
							c0.893-0.428,1.925-0.424,2.959-0.507l0.2,0.058c-0.06,0.804-0.75,1.434-1.126,2.149c-4.674,6.73-9.979,13.17-16.429,19.033
							l-4.664,3.831c-0.979,0.858-1.012,2.178-1.504,3.267c-0.9,2.954-1.801,5.964-1.927,9.208c0.027,0.545,0.226,1.063,0.684,1.352
							c1.233,0.55,2.212-0.624,3.077-1.424c6.312-7.299,9.099-16.246,16.815-22.793c2.534-2,5.869-3.712,9.137-2.208
							c0.573,0.203,1.001,0.951,1.692,0.609c0.489-0.343,0.52-1.118,1.209-1.087c2.268-0.021,4.68-0.099,6.86,0.081
							c0.2,0.173,0.056,0.46-0.002,0.66l-1.561,3.152l-9.655,19.488c-0.434,0.888-1.011,1.833-0.958,2.838
							c0.143,0.431,0.602,0.461,0.975,0.377c1.813-0.999,3.138-2.659,4.321-4.35c1.183-1.661,2.136-3.408,3.262-5.098
							c0.604-0.285,1.436-0.167,2.096-0.079c0.4,0.375-0.118,0.86-0.205,1.291c-2.834,5.875-6.789,12.292-12.972,15.543
							c-1.438,0.713-3.421,1.366-4.997,0.499c-1.26-0.866-1.14-2.444-1.709-3.652c-0.114-0.173-0.402-0.145-0.546-0.06
							c-2.562,2.288-5.327,4.862-8.912,3.874c-2.236-1.041-2.485-3.625-2.65-5.836c-0.114-0.087-0.057-0.258-0.199-0.345
							l-0.287,0.114c-2.508,3.005-5.68,6.756-9.898,6.396c-1.607-0.121-3.008-1.675-3.492-3.112
							c-1.477-4.685,0.092-9.818,1.141-14.321c0-0.259-0.286-0.518-0.515-0.548l-3.531,0.045l-0.577,0.659
							c-2.602,5.101-5.46,10.028-9.954,14.291c-2.361,2.087-5.267,3.829-8.507,2.87c-2.694-1.158-3.401-4.088-3.392-6.844
							C137.384,55.724,140.505,49.849,144.313,44.235z M145.236,59.827c0.054,0.976,0.539,1.982,1.542,2.302
							c0.659,0.232,1.377-0.053,1.953-0.338c3.31-2.457,5.275-6.239,7.066-9.678c0.174-0.344,0.319-0.889-0.14-1.149
							c-1.719-0.867-3.379-2.222-4.752-3.748c-0.171-0.173-0.488-0.203-0.688-0.089c-1.241,1.661-2.051,3.496-2.918,5.33
							C146.315,54.779,145.246,57.071,145.236,59.827z M153.559,43.722c0.108,1.751,1.51,3.393,3.116,3.972
							c0.315,0.116,0.889,0.262,1.12-0.139c0.984-2.236,1.912-4.788,1.403-7.373c-0.199-0.604-0.713-1.208-1.344-1.412
							c-0.631-0.174-1.292,0.025-1.838,0.281C154.404,40.108,153.623,41.856,153.559,43.722z M185.199,59.046
							c-0.061,0.832-0.266,1.865,0.365,2.499c0.342,0.346,0.888,0.376,1.319,0.235c1.697-0.884,2.794-2.689,3.833-4.178
							c3.463-5.385,6.009-11.146,8.384-16.994c0.088-0.517,0.234-1.234-0.253-1.58c-1.404-0.666-2.5,0.881-3.537,1.625
							c-4.58,4.548-7.01,10.051-9.298,15.583L185.199,59.046z"/>
						<path fill="#FFFFFF" d="M191.893,16.239l3.056-3.951l0.461-0.4c8.843-0.17,15.75-5.428,21.972-11.636
							c-0.031,0.833-0.407,1.606-0.697,2.352c-4.081,9.603-13.985,18.037-24.693,18.173l-2.526-0.038
							c-0.458-0.116-0.141-0.575-0.025-0.804L191.893,16.239z"/>
					</g>
				</g>
			</g>
		</g>
	</g>
	<path fill="#FFFFFF" d="M203.044,66.923c0-1.202,0.906-2.108,2.067-2.108c1.147,0,2.053,0.906,2.053,2.108
		c0,1.221-0.905,2.12-2.053,2.12C203.95,69.043,203.044,68.145,203.044,66.923z M205.111,69.466c1.382,0,2.562-1.074,2.562-2.542
		c0-1.457-1.181-2.53-2.562-2.53c-1.396,0-2.577,1.074-2.577,2.53C202.534,68.392,203.715,69.466,205.111,69.466z M204.574,67.125
		h0.51l0.772,1.268h0.497l-0.833-1.288c0.43-0.054,0.759-0.283,0.759-0.806c0-0.577-0.342-0.832-1.034-0.832h-1.114v2.925h0.442
		V67.125z M204.574,66.748v-0.905h0.604c0.309,0,0.638,0.066,0.638,0.429c0,0.45-0.335,0.476-0.711,0.476H204.574z"/>
</g>
</svg>
