<?xml version="1.0" encoding="utf-8"?>
<!-- Generator: Adobe Illustrator 16.0.3, SVG Export Plug-In . SVG Version: 6.00 Build 0)  -->
<!DOCTYPE svg PUBLIC "-//W3C//DTD SVG 1.1//EN" "http://www.w3.org/Graphics/SVG/1.1/DTD/svg11.dtd">
<svg version="1.1" id="Layer_1" xmlns="http://www.w3.org/2000/svg" xmlns:xlink="http://www.w3.org/1999/xlink" x="0px" y="0px"
	 width="391.979px" height="93.4px" viewBox="0 0 391.979 93.4" enable-background="new 0 0 391.979 93.4" xml:space="preserve">
<g>
	<path fill-rule="evenodd" clip-rule="evenodd" fill="#FFFFFF" d="M80.024,56.941h21.343c0,0-0.889-10.075-10.522-10.075
		S80.024,56.941,80.024,56.941L80.024,56.941L80.024,56.941z M91.141,34.717c28.75,0,27.564,28.01,27.564,28.01v4.443H79.729
		c0,6.371,5.334,11.854,12.597,11.854c7.26,0,10.966-6.966,10.966-6.966l13.78,6.816c-6.371,9.636-14.965,13.485-24.597,13.485
		c-29.938,0-30.529-24.895-30.529-28.007S62.392,34.717,91.141,34.717L91.141,34.717L91.141,34.717z M155.161,76.652L155.161,76.652
		c-0.89,0-12.006,0.15-12.006-13.482c0-13.637,12.154-14.08,12.154-14.08s13.634,0.443,13.634,13.783
		C168.942,76.209,156.049,76.652,155.161,76.652L155.161,76.652L155.161,76.652z M168.205,0v41.086c0,0-8.301-6.369-17.79-6.369
		c-9.481,0-25.487,6.668-25.487,27.709c0,21.045,13.635,29.05,25.343,29.05c11.708,0,18.229-7.708,18.229-7.708v6.843h16.892V0
		H168.205L168.205,0z M282.166,37.53h17.19v30.38c0,0,0.594,10.229,10.226,10.229s9.486-10.229,9.486-10.229V37.678h17.335v31.271
		c0,0,2.227,24.451-26.379,24.451c-28.599,0-27.858-21.488-27.858-25.34C282.166,64.204,282.166,37.53,282.166,37.53L282.166,37.53
		L282.166,37.53z M346.409,0h16.968v90.61h-16.968V0L346.409,0z M375.23,0h16.749v90.61H375.23V0L375.23,0z M247.708,75.468
		L247.708,75.468h-16.077V18.783h8.594c0,0,11.678-0.879,11.678,9.309c0,10.188-9.29,9.29-9.29,9.29h-5.35v15.272
		c0,0,7.705,0,10.442,0c2.738,0,11.458,1.327,11.458,11.363C259.163,74.051,247.708,75.468,247.708,75.468L247.708,75.468
		L247.708,75.468z M262.159,43.311c0,0,7.853-6.105,7.853-17.682c0-11.579-8.41-22.021-26.32-22.021c-17.907,0-29.993,0-29.993,0
		l0.001,87.003h36.943c0,0,26.479-0.3,26.479-24.226C277.121,52.492,271.729,47.172,262.159,43.311L262.159,43.311L262.159,43.311z
		 M0,1.752V90.61h17.931V18.708h8.447c0,0,13.188-0.593,13.188,11.412c0,12.003-11.707,11.707-11.707,11.707h-4.298v20.452
		L41.496,90.61h21.042L37.494,54.277c0,0,20.598-1.777,20.598-24.157c0-22.376-15.561-28.368-36.307-28.368
		C1.039,1.752,0,1.752,0,1.752L0,1.752L0,1.752z"/>
</g>
</svg>
