<?xml version="1.0" encoding="utf-8"?>
<!-- Generator: Adobe Illustrator 16.0.3, SVG Export Plug-In . SVG Version: 6.00 Build 0)  -->
<!DOCTYPE svg PUBLIC "-//W3C//DTD SVG 1.1//EN" "http://www.w3.org/Graphics/SVG/1.1/DTD/svg11.dtd">
<svg version="1.1" id="Layer_1" xmlns="http://www.w3.org/2000/svg" xmlns:xlink="http://www.w3.org/1999/xlink" x="0px" y="0px"
	 width="391.979px" height="238.4px" viewBox="0 0 391.979 238.4" enable-background="new 0 0 391.979 238.4" xml:space="preserve">
<g>
	<path fill-rule="evenodd" clip-rule="evenodd" fill="#FFE610" d="M51.048,66.87c-1.687-1.54-2.631-3.305-3.158-4.775
		c-0.527-1.526-1.208-3.43-1.208-5.046c0.033-7.293,4.29-12.71,8.872-15.219c2.083-1.139,2.855-1.92,3.174-2.322
		c-0.155-0.062-0.349-0.123-0.481-0.123c-6.237,0-9.435-2.423-11.005-4.474c-1.488-1.921-2.247-4.398-2.247-7.106
		c0-1.316,0.186-2.693,0.551-4.102c1.756-2.904,3.427-2.106,4.449-0.621c0.652,0.93,5.117,4.095,10.62,4.598
		c4.004,0.38,6.162,2.338,7.284,3.902c1.293,1.811,1.79,3.993,1.79,5.85c0,0.76-0.085,1.473-0.25,2.106
		c-0.603,2.447-3.18,4.652-6.77,7.462l-2.036,1.688c-2.982,2.608-4.623,5.513-4.623,7.973c0,0.614,0.108,1.213,0.316,1.767
		c0.087,0.228,0.188,0.447,0.31,0.655c1.333,2.254,5.096,3.669,10.558,1.758c2.524-0.875,7.386-3.934,10.351-6.875
		c3.49-3.483,8.15-4.319,12.64-4.673c3.891-0.294,6.285-1.248,7.974-3.145c4.984-5.618,9.783-6.407,14.272-6.741
		c1.718-0.132,1.812-0.255,2.035-0.558c2.475-3.297,5.018-5.042,7.3-6.057c1.739-0.774,3.327-1.126,4.628-1.412l1.58-0.388
		l0.394-0.138c2.5-0.805,4.435-1.472,9.521-4.908l0.216-0.138l0.001-0.003l0.212-0.133l0.002-0.001l0.213-0.125l0.005-0.002
		l0.213-0.123l0.004-0.001l0.215-0.113l0.007-0.004l0.212-0.111l0.007-0.002l0.215-0.104l0.008-0.003l0.215-0.1l0.008-0.004
		l0.215-0.09l0.009-0.004l0.215-0.088l0.012-0.003l0.216-0.081l0.011-0.006l0.214-0.076l0.229-0.077l0.014-0.004l0.212-0.068
		l0.015-0.004l0.215-0.063l0.015-0.004l0.213-0.06l0.017-0.004l0.215-0.052l0.018-0.004l0.213-0.049l0.017-0.004l0.215-0.044
		l0.019-0.004l0.213-0.04l0.019-0.002l0.213-0.036l0.02-0.003l0.212-0.031l0.021-0.004l0.213-0.026l0.021-0.004l0.209-0.024l0.024,0
		l0.211-0.02l0.025-0.003l0.209-0.016l0.025-0.002l0.208-0.013l0.025-0.002l0.21-0.008l0.234-0.008h0.025l0.208-0.003h0.233h0.027
		l0.206,0.003l0.026,0.002h0.023c0.148,0.004,0.297,0.012,0.445,0.021l0.204,0.012l0.029,0.002l0.201,0.016L146.136,24l0.201,0.02
		l0.031,0.004l0.2,0.02l0.032,0.003l0.198,0.025l0.032,0.004l0.197,0.025l0.033,0.006l0.195,0.029l0.033,0.006l0.196,0.03
		l0.034,0.006l0.192,0.033l0.036,0.005l0.19,0.036l0.035,0.008c0.304,0.057,0.602,0.124,0.897,0.196l0.185,0.046l0.038,0.01
		c0.295,0.077,0.588,0.159,0.875,0.245l0.172,0.052l0.042,0.013c0.57,0.18,1.124,0.383,1.657,0.598l0.151,0.062l0.197,0.082
		c10.875-14.774,28.07-24.606,47.614-25.495V0.067c0.32-0.015,0.641-0.027,0.965-0.036c0.319-0.01,0.641-0.017,0.965-0.021
		c0.322-0.007,0.646-0.01,0.971-0.01c0.318,0,0.638,0.003,0.956,0.007c0.32,0.005,0.636,0.012,0.954,0.021
		c0.316,0.01,0.633,0.023,0.949,0.037h0.003c0.313,0.015,0.63,0.03,0.946,0.05l0,0c18.908,1.136,35.564,10.66,46.291,24.898
		c1.531-0.532,3.197-0.918,4.904-1.034l0.044-0.003l0.161-0.01l0.166-0.008l0.042-0.002l0.044-0.001l0.164-0.006l0.044-0.002
		l0.164-0.002l0.044-0.001l0.167-0.001h0.042l0.165,0.001h0.042l0.208,0.004l0.17,0.007l0.038,0.001l0.17,0.008l0.038,0.002
		l0.173,0.011l0.032,0.003l0.175,0.014l0.033,0.002l0.175,0.017l0.034,0.004c0.413,0.042,0.829,0.105,1.239,0.19l0.184,0.038
		l0.024,0.005l0.181,0.042l0.024,0.006l0.184,0.046l0.021,0.005l0.184,0.048l0.02,0.006l0.188,0.052l0.017,0.006l0.184,0.057
		l0.019,0.006l0.188,0.061l0.015,0.005l0.202,0.071l0.188,0.067l0.012,0.006l0.188,0.073l0.011,0.005l0.191,0.077l0.012,0.006
		c0.329,0.138,0.657,0.293,0.979,0.468l0.006,0.004l0.19,0.102l0.004,0.003l0.191,0.109l0.002,0.001l0.192,0.115l0.002,0
		l0.188,0.119v0.002l0.191,0.124c3.507,2.38,5.528,3.431,7.256,4.116c0.777,0.309,1.499,0.543,2.265,0.792l0.401,0.138l1.596,0.388
		c0.865,0.19,1.852,0.409,2.923,0.76c2.677,0.873,5.879,2.564,8.98,6.709c0.225,0.303,0.327,0.425,2.051,0.558
		c4.485,0.334,9.276,1.123,14.281,6.741c1.676,1.897,4.059,2.851,7.95,3.145c4.514,0.354,9.16,1.19,12.642,4.673
		c2.972,2.941,7.825,6,10.356,6.875c5.459,1.911,9.242,0.496,10.544-1.758c0.284-0.476,0.477-0.999,0.573-1.552
		c0.048-0.284,0.077-0.576,0.077-0.87c0-2.46-1.643-5.365-4.616-7.973l-0.372-0.307L340.886,47c-3.577-2.81-6.152-5.015-6.774-7.462
		c-0.164-0.634-0.236-1.346-0.236-2.106c0-1.857,0.509-4.039,1.778-5.85c1.128-1.564,3.312-3.522,7.288-3.902
		c5.53-0.502,9.97-3.667,10.62-4.598c1.042-1.485,2.695-2.283,4.444,0.621c0.373,1.408,0.558,2.786,0.558,4.102
		c0,2.724-0.759,5.185-2.244,7.106c-1.579,2.051-4.769,4.474-11.015,4.474c-0.134,0-0.318,0.061-0.472,0.123
		c0.31,0.402,1.082,1.184,3.17,2.322c4.584,2.509,8.845,7.926,8.882,15.219c0,1.616-0.673,3.521-1.216,5.046
		c-0.472,1.317-1.278,2.872-2.644,4.288c-0.16,0.166-0.324,0.327-0.5,0.487c-2.579,2.398-6.88,4.279-14.043,3.851
		c-0.722-0.042-1.475-0.111-2.258-0.204c-0.185,3.614-1.177,7.909-2.571,10.077c-0.426,0.68-0.508,1.137-0.508,1.361
		c0,0.093,0.008,0.149,0.008,0.188c0.046,0.016,3.179,1.864,3.179,1.864l0.506,0.257c0,0,0.292,0.139,0.332,0.171
		c0.046-0.017,1.083-0.063,1.083-0.063l0.204-0.029l0.02-0.003c1.96-0.186,4.954-1.145,6.224,2.409
		c0.335,0.943,0.536,1.762,0.727,2.491c0.39,1.486,0.722,2.59,2.022,3.593c0,0,0.645-0.552,1.375-1.201
		c0.597-0.531,1.247-1.126,1.658-1.531c0.906-0.929,2.585-0.457,3.792,0c1.224,0.464,2.738,1.518,3.809,2.128
		c1.076,0.604,1.673,1.37,1.983,2.285c0.323,0.913,1.07,1.516,2.212,2.121c1.103,0.625,2.679,2.631,2.679,5.339
		c0,0.415,0.049,0.77,0.164,1.147c0.08,0.25,0.188,0.509,0.339,0.804c1.539,3.103,0.301,4.667-0.588,5.325
		c-1.199,0.898-3.315,1.269-5.301,0.944l0.015,0.511l-2.903-0.388c-1.121-0.14-2.606,0.147-3.49,0.332l-0.21,0.056
		c-2.065,0.411-4.767-0.288-6.283-2.754c-0.057-0.092-0.113-0.183-0.164-0.28c-0.775-1.361-1.98-2.622-2.568-2.972
		c-0.854,0.234-2.201,0.551-3.803,0.388c-1.489-0.15-3.201-0.72-4.945-2.165c-0.287-0.24-0.58-0.505-0.866-0.793
		c-2.565-2.57-5.945-3.097-8.069-2.771l-1.267,0.225c-2.616,0.474-5.885,1.077-8.902-0.766c-0.753-0.458-1.835-0.929-2.896-1.378
		c-2.738-1.192-5.573-2.423-5.956-5.016c-0.065-0.464-0.565-1.308-0.978-1.98c-0.363-0.595-0.759-1.246-1.062-1.942
		c-0.292-0.666-0.502-1.374-0.525-2.113c-0.874,0.225-1.789,0.326-2.746,0.28c-0.321-0.015-0.647-0.048-0.978-0.096l-1.19-0.185
		c-2.002-0.342-6.202-1.031-7.537-0.543c-2.665,0.96-11.041,1.424-13.338,0.899c0,0-0.843-0.186-1.642-0.355
		c-0.766,0.789-1.618,1.532-2.517,2.19c1.682,0.092,3.159-0.117,4.175,0.146l2.111,0.556c0.674-0.199,2.321-0.176,3.257-0.092
		l2.471,0.186l2.817,0.271c1.36,0.272,2.801,0.859,2.557,3.521c-0.097,0.821-0.554,1.981-1.247,2.663
		c-0.381,0.418-1.852,2.555-2.179,3.228l-0.105,0.209c-0.573,1.223-1.425,2.346-3.902,2.346c-0.309,0-0.706,0.007-0.942,0.038
		c-0.077,0.201-0.279,0.572-0.279,0.572c-0.558,1.269-1.362,3.035-2.901,4.056l-0.413,0.295c-1.237,0.881-3.296,2.337-6.447,1.192
		l-1.084-0.388c-2.749-0.99-6.904-2.476-9.001-3.623l-0.294-0.162c-1.953-1.069-2.385-1.284-3.095-1.185l-0.395,0.061
		c-1.498,0.209-4.321,0.589-6.275-2.648l-0.179-0.279c-9.26,12.708-23.175,21.803-39.235,24.772l-0.069,0.013
		c-0.547,0.101-1.098,0.195-1.65,0.281l-0.205,0.031l-0.755,0.111c-0.294,0.041-0.588,0.082-0.885,0.118l-0.538,0.065l-0.849,0.094
		l-0.588,0.061c-0.384,0.035-0.769,0.066-1.154,0.096l-0.366,0.026c-0.352,0.023-0.704,0.046-1.06,0.065l-0.388,0.02
		c-0.411,0.02-0.819,0.034-1.232,0.046l-0.418,0.009c-0.436,0.01-0.868,0.016-1.304,0.016c-0.449,0-0.894-0.008-1.34-0.017
		l-0.394-0.008c-0.395-0.012-0.788-0.026-1.182-0.044l-0.483-0.025c-0.333-0.019-0.665-0.038-0.998-0.062l-0.425-0.03
		c-0.394-0.029-0.785-0.062-1.179-0.098l-0.582-0.062l-0.771-0.085l-0.43-0.05c-0.405-0.05-0.81-0.105-1.212-0.163l-0.488-0.074
		l-0.862-0.136l-0.444-0.075c-0.346-0.06-0.693-0.123-1.04-0.188l-0.746-0.148l-0.383-0.08c-0.513-0.108-1.027-0.221-1.534-0.343
		l-0.136-0.031l-0.799-0.196l-0.41-0.106c-0.477-0.123-0.951-0.253-1.423-0.389l-0.169-0.047
		c-14.081-4.065-26.117-12.933-34.23-24.713l-1.068,1.625c-1.935,3.237-4.752,2.857-6.269,2.648l-0.395-0.061
		c-0.707-0.1-1.156,0.115-3.089,1.185l-0.311,0.162c-2.088,1.147-6.23,2.632-8.993,3.623l-1.086,0.388
		c-3.149,1.145-5.216-0.311-6.43-1.192l-0.426-0.295c-1.54-1.021-2.338-2.787-2.904-4.056c0,0-0.186-0.371-0.275-0.572
		c-0.242-0.031-0.631-0.038-0.946-0.038c-2.455,0-3.33-1.123-3.895-2.346l-0.1-0.209c-0.333-0.673-1.788-2.81-2.19-3.228
		c-0.681-0.681-1.163-1.841-1.24-2.663c-0.255-2.663,1.207-3.25,2.553-3.521l2.821-0.271l2.476-0.186
		c0.92-0.084,2.569-0.107,3.242,0.092l2.113-0.556c1.006-0.263,2.499-0.054,4.164-0.146c-0.881-0.658-1.708-1.401-2.507-2.19
		c-0.806,0.169-1.643,0.355-1.643,0.355c-2.304,0.525-10.666,0.061-13.312-0.899c-1.345-0.488-5.541,0.201-7.555,0.543l-1.208,0.185
		c-1.298,0.193-2.546,0.117-3.698-0.185c-0.064,1.516-0.886,2.892-1.588,4.056c-0.409,0.672-0.928,1.517-0.991,1.98
		c-0.362,2.593-3.229,3.824-5.959,5.016c-1.062,0.449-2.128,0.921-2.887,1.378c-2.996,1.842-6.278,1.239-8.901,0.766l-1.271-0.225
		c-2.113-0.326-5.496,0.201-8.064,2.771c-3.926,3.918-7.834,3.057-9.614,2.57c-0.589,0.35-1.803,1.611-2.571,2.972
		c-1.484,2.695-4.319,3.46-6.455,3.035l-0.215-0.056c-0.876-0.185-2.339-0.472-3.461-0.332l-2.919,0.388l0.033-0.511
		c-1.998,0.325-4.119-0.046-5.324-0.944c-0.885-0.658-2.123-2.222-0.561-5.325c0.365-0.745,0.487-1.262,0.487-1.952
		c0-2.708,1.566-4.714,2.666-5.339c1.152-0.605,1.911-1.208,2.219-2.121c0.302-0.916,0.897-1.681,1.975-2.285
		c1.066-0.61,2.585-1.664,3.801-2.128c1.213-0.457,2.892-0.929,3.808,0c0.922,0.897,3.033,2.732,3.033,2.732
		c1.937-1.495,1.751-3.22,2.756-6.084c1.256-3.553,4.26-2.594,6.209-2.409l0.225,0.032c0,0,1.051,0.046,1.082,0.063
		c0.054-0.032,0.349-0.171,0.349-0.171l0.488-0.257c0,0,3.149-1.848,3.18-1.864c0.014-0.039,0.014-0.094,0.014-0.188
		c0-0.225-0.077-0.681-0.501-1.361c-1.401-2.168-2.39-6.463-2.57-10.077c-0.505,0.06-0.994,0.109-1.474,0.148
		C58.233,71.283,53.7,69.354,51.048,66.87L51.048,66.87z M338.477,84.34l-0.224,0.032L338.477,84.34L338.477,84.34z M261.479,24.208
		c-0.41-0.084-0.826-0.146-1.239-0.19L261.479,24.208L261.479,24.208z M264.694,25.365c-0.321-0.174-0.649-0.33-0.979-0.468
		L264.694,25.365L264.694,25.365z M210.598,124.868c0.297-0.038,0.591-0.077,0.885-0.118L210.598,124.868L210.598,124.868z
		 M207.469,125.184c0.386-0.029,0.771-0.061,1.154-0.096L207.469,125.184L207.469,125.184z M206.043,125.275
		c0.355-0.02,0.707-0.042,1.06-0.065L206.043,125.275L206.043,125.275z M204.423,125.341c0.411-0.012,0.821-0.026,1.232-0.046
		L204.423,125.341L204.423,125.341z M201.361,125.349c0.446,0.009,0.89,0.017,1.34,0.017c0.436,0,0.868-0.006,1.304-0.016
		L201.361,125.349L201.361,125.349z M199.786,125.297c0.394,0.018,0.788,0.032,1.182,0.044L199.786,125.297L199.786,125.297z
		 M198.305,125.21c0.333,0.023,0.666,0.043,0.998,0.062L198.305,125.21L198.305,125.21z M196.701,125.082
		c0.394,0.035,0.785,0.068,1.179,0.098L196.701,125.082L196.701,125.082z M193.706,124.723c0.402,0.058,0.807,0.111,1.212,0.163
		L193.706,124.723L193.706,124.723z M190.871,124.249c0.347,0.065,0.694,0.13,1.04,0.188L190.871,124.249L190.871,124.249z"/>
	<path fill-rule="evenodd" clip-rule="evenodd" fill="#EE2D3A" d="M147.168,46.363c-0.444-0.798-0.261-1.612,0.185-2.391
		c1.007-1.542,1.948,0.14,1.948,0.14c3.474,4.845,0.908,12.097,0.908,12.097C149.852,49.534,147.168,46.363,147.168,46.363
		L147.168,46.363z M177.123,78.441c0.052-1.424,0.173-4.585-1.274-5.714c-0.534-0.424-2.643-2.735-2.643-2.735
		c-0.321-0.56-0.568-0.595-0.568-0.595c-0.434-0.042-0.997,0.969-0.997,0.969c-1.502,2.9-3.001,2.546-3.001,2.546
		c-0.012-0.529,0.341-1.119,0.341-1.119c0.411-0.774,2.155-4.237,2.155-4.237c0.219-0.504,0.421-1.174,0.421-1.174
		c1.451-2.248,2.817-0.537,2.817-0.537c0.61,1.191,3.862,5.071,3.862,5.071c0.721,0.858,0.791,1.779,0.791,1.779
		C179.781,78.011,177.123,78.441,177.123,78.441L177.123,78.441L177.123,78.441z M168.553,91.981
		c-0.617-0.016-0.774-0.242-0.697-0.921c0.415-1.889,1.927-2.704,1.927-2.704c2.84-1.697,3.186,0.003,3.186,0.003
		c0.52,3.031-1.877,3.413-1.877,3.413C170.614,91.937,168.553,91.981,168.553,91.981L168.553,91.981L168.553,91.981z
		 M45.014,100.779c0,0,0.62,0.457,0.288,1.361c0,0-1.585,4.336-1.51,5.791c0,0-3.505,0.626-3.991-1.104c0,0-0.094-0.668,0.479-1.637
		c0,0,0.593-0.902,0.749-2.555c0,0-0.053-4.158,2.641-3.056C44.204,99.879,44.625,100.313,45.014,100.779L45.014,100.779
		L45.014,100.779z M49.291,93.882c0.578-0.484,1.427-0.755,2.179-0.58c1.698,0.366,0.67,1.834,0.67,1.834
		c-0.688,1.286-2.932,3.457-2.932,3.457c-1.996,1.494-3.576-0.286-3.576-0.286c-1.479-1.458,0.445-2.162,0.445-2.162
		C47.197,95.691,49.291,93.882,49.291,93.882L49.291,93.882L49.291,93.882z M69.824,67.882c0,0-0.635,6.15,2.136,11.572
		c0,0,2.052,2.91-0.081,4.779l-4.246,2.467c0,0-0.57,0.424-2.462,0.28c0,0-2.617-0.647-3.49,0.507c0,0-0.762,2.224-1.709,4.055
		c0,0-1.934,4.44-5.132,5.863c0,0-2.549,0.584-3.323,2.794c0,0-0.823,1.553-2.468,1.62c0,0-1.228,0.391-2.04,3.125
		c0,0-0.445,1.77-0.42,3.126c0,0,2.094-0.274,3.458,0.219c0,0,3.355,1.127,4.856-1.636c0-0.001,2.898-4.964,5.046-4.218
		c0,0,4.317,1.445,7.367-1.705c0,0,4.19-4.577,10.106-3.635c0,0,6.664,1.35,8.743-0.188c0,0,4.204-2.196,5.781-2.742
		c0,0,1.929-0.567,2.129-2.679c0,0,1.173-2.973,2.026-3.963l-3.18-0.036c0,0-2.88,4.842-7.771,6.301c0,0-2.675,1.069-8.044,0.201
		c0,0-7.709-1.746-14.48,5.567c0,0-0.925,1.337-2.246,0.803c0,0,3.742-6.381,11.957-7.893c0,0,2.688-0.571,4.931-0.208
		c0,0,11.064,0.325,16.195-10.568c0,0-0.555-9.287,1.893-11.486c0,0,0.948-0.29,0.759,1.507c0,0-1.684,9.729,1.479,11.612
		c0,0,1.835,1.442,5.23,0.908c0,0,5.148-1.23,9.333-0.513c0,0,6.436,1.527,11.965,0.821c0,0-1.436-2.199-1.155-4.827
		c0,0,0.792-1.882,1.7-0.671c0,0,2.128,7.029,7.942,9.138c0,0,5.192,1.892,5.109,8.478c0,0-0.795,0.902-7.682,3.349
		c0,0-2.573,0.813-3.402-1.109c0,0-3.32-7.107-6.212-6.889l-5.427,0.441c0,0-1.852,0.474-0.488,1.958c0,0,1.858,2.472,2.618,3.946
		c0,0,0.222,1.261,1.968,0.993c0.001,0,2.423-1.2,3.789,3.305c0,0,1.25,2.253,3.365,2.973c0,0,1.979,0.662,3.836-0.381
		c0,0,8.963-3.291,10.524-4.458c0,0,1.938-1.084,3.475-0.562c0,0,2.689,0.641,3.796-1.481l2.779-4.298c0,0,0.61-1.058,0.526-2.388
		c0-0.001,0.25-1.318-0.86-2.656c0,0-1.05-1.109-1.215-1.913l-1.98-4.654c0,0-0.804-1.243-1.684-1.754l-2.645,0.194
		c0,0,1.821,4.649,3.151,6.542c0,0,1.803,2.757,1.711,4.51c0,0-0.119,1.229-0.603,1.742c0,0-0.61,0.976-0.856,1.45
		c0,0-0.802,1.739-1.452,2.125c0,0-1.125,0.666-1.398,0.692c0,0-0.49,0.135-0.125-0.741c0,0,1.48-3.118,1.384-4.785
		c0,0,0.287-1.736-0.944-2.753c0,0-2.88-4.546-3.292-5.905c0,0-0.904-1.818-1.386-2.13c0,0-1.006-1.323,0.617-1.941
		c0,0,4.049-0.914,4.773-1.411c0,0,1.944-0.589,3.208-4.642c0,0,1.741-4.725,1.716-7.643c0,0,3.411,6.576-2.029,13.264
		c0,0,4.305,1.269,6.085,0c0,0,5.362-0.783,6.397-1.069c0,0,1.348-0.327,0.578,0.631c0,0-1.616,2.301-1.753,3.807
		c0,0-0.104,1.199-1.088,1.902c0,0-3.048,2.134-3.315,4.18c0,0-0.654,1.968,0.693,1.497c0,0,1.826-0.848,2.47,0.006
		c0,0,0.188,0.088-0.515,0.879c0,0-1.831,1.592-1.969,3.731c0,0,0.339,2.467,0.986,3.26c0,0,0.823,1.143,2.127,0.781
		c0,0,0.345-0.281,0.97-0.092c0,0,0.645-0.002,2.328-0.583c0,0,2.552-0.701,3.405-1.002c0,0,3.248-1.163,4.85-1.081
		c0,0,1.042-0.115,2.371,0.151c0,0,4.063,0.461,6.77-2.531c0,0,2.062-1.634,2.76-0.047c0,0,4.942,6.632,12.942,4.884
		c0,0-6.366-2.618-8.016-6.183c0,0-0.221-3.027-3.555-7.23c0,0-1.019-1.396-0.037-1.758c0,0,0.568-0.425,1.811,0.821
		c0,0,3.168,3.039,4.311,5.82c0,0,3.934,5.944,9.605,3.947c0,0-4.451-1.718-6.542-4.919c0,0-1.293-4.334-5.64-7.559
		c0,0-0.172-4.871-2.197-7.609c0,0-1.032-4.574-1.312-5.643c0,0-1.094-4.018-1.085-5.127c0,0,0.36-5.248-3.024-9.332
		c0,0-2.266-4.371-5.797-7.415c0,0-2.684-3.314-4.678-5.344c0,0-2.624-3.078-8.348-7.093c0,0-2.592-1.884-4.489-3.909
		c0,0-10.095-7.267-17.389-1.439c0,0-5.037,3.426-9.244,4.487c0,0-8.645,1.006-12.329,7.006c0,0-0.316,1.108-3.8,1.532
		c0,0-7.653-0.923-13.29,6.603c0,0-2.618,2.555-7.799,3.177c0,0-8.452-0.865-13.955,5.616c0,0-13.886,12.112-22.166,4.258
		c0,0-4.29-4.063,0.615-11.416c0,0,3.11-3.754,8.417-7.677c0,0,4.305-3.033,2.332-7.749c0,0-1.043-4.556-7.495-4.676
		c0,0-8.096-1.564-11.37-5.653c0,0-3.657,12.877,10.692,12.661c0,0,3.739,0.553,2.434,3.521c0,0-1.834,2.541-4.294,3.463
		c0,0-4.33,1.893-6.284,8.196c0,0-4.372,11.033,6.294,15.292C60.859,69.035,65.601,68.617,69.824,67.882L69.824,67.882
		L69.824,67.882z"/>
	<path fill-rule="evenodd" clip-rule="evenodd" fill="#EE2D3A" d="M256.396,46.363c0.443-0.798,0.261-1.612-0.187-2.391
		c-1.007-1.542-1.943,0.14-1.943,0.14c-3.477,4.845-0.91,12.097-0.91,12.097C253.71,49.534,256.396,46.363,256.396,46.363
		L256.396,46.363z M226.441,78.441c-0.053-1.424-0.175-4.585,1.273-5.714c0.535-0.424,2.644-2.735,2.644-2.735
		c0.322-0.56,0.568-0.595,0.568-0.595c0.433-0.042,0.998,0.969,0.998,0.969c1.501,2.9,3.002,2.546,3.002,2.546
		c0.011-0.529-0.345-1.119-0.345-1.119c-0.41-0.774-2.154-4.237-2.154-4.237c-0.22-0.504-0.422-1.174-0.422-1.174
		c-1.451-2.248-2.816-0.537-2.816-0.537c-0.609,1.191-3.86,5.071-3.86,5.071c-0.724,0.858-0.794,1.779-0.794,1.779
		C223.784,78.011,226.441,78.441,226.441,78.441L226.441,78.441L226.441,78.441z M235.01,91.981
		c0.619-0.016,0.776-0.242,0.698-0.921c-0.416-1.889-1.927-2.704-1.927-2.704c-2.841-1.697-3.188,0.003-3.188,0.003
		c-0.519,3.031,1.878,3.413,1.878,3.413C232.951,91.937,235.01,91.981,235.01,91.981L235.01,91.981L235.01,91.981z M358.549,100.779
		c0,0-0.616,0.457-0.286,1.361c0,0,1.582,4.336,1.508,5.791c0,0,3.508,0.626,3.991-1.104c0,0,0.096-0.668-0.478-1.637
		c0,0-0.594-0.902-0.747-2.555c0,0,0.052-4.158-2.642-3.056C359.361,99.879,358.938,100.313,358.549,100.779L358.549,100.779
		L358.549,100.779z M354.271,93.882c-0.579-0.484-1.426-0.755-2.176-0.58c-1.701,0.366-0.671,1.834-0.671,1.834
		c0.688,1.286,2.932,3.457,2.932,3.457c1.997,1.494,3.576-0.286,3.576-0.286c1.478-1.458-0.448-2.162-0.448-2.162
		C356.368,95.691,354.271,93.882,354.271,93.882L354.271,93.882L354.271,93.882z M333.739,67.882c0,0,0.636,6.15-2.136,11.572
		c0,0-2.055,2.91,0.079,4.779l4.246,2.467c0,0,0.571,0.424,2.466,0.28c0,0,2.615-0.647,3.487,0.507c0,0,0.761,2.224,1.71,4.055
		c0,0,1.935,4.44,5.132,5.863c0.001,0,2.551,0.584,3.321,2.794c0,0,0.823,1.553,2.468,1.62c0,0,1.23,0.391,2.043,3.125
		c0,0,0.442,1.77,0.423,3.126c0,0-2.096-0.274-3.462,0.219c0,0-3.355,1.127-4.854-1.636c0-0.001-2.9-4.964-5.048-4.218
		c0,0-4.316,1.445-7.367-1.705c0,0-4.19-4.577-10.106-3.635c0,0-6.663,1.35-8.742-0.188c0,0-4.201-2.196-5.779-2.742
		c0,0-1.932-0.567-2.128-2.679c0,0-1.174-2.973-2.028-3.963l3.179-0.036c0,0,2.88,4.842,7.771,6.301c0,0,2.676,1.069,8.044,0.201
		c0,0,7.709-1.746,14.48,5.567c0,0,0.926,1.337,2.243,0.803c0,0-3.737-6.381-11.954-7.893c0,0-2.688-0.571-4.931-0.208
		c0,0-11.066,0.325-16.196-10.568c0,0,0.558-9.287-1.892-11.486c0,0-0.945-0.29-0.762,1.507c0,0,1.685,9.729-1.477,11.612
		c0,0-1.838,1.442-5.231,0.908c0,0-5.149-1.23-9.331-0.513c0,0-6.436,1.527-11.967,0.821c0,0,1.437-2.199,1.154-4.827
		c0,0-0.791-1.882-1.7-0.671c0,0-2.128,7.029-7.941,9.138c0,0-5.193,1.892-5.109,8.478c0,0,0.797,0.902,7.684,3.349
		c0,0,2.574,0.813,3.403-1.109c0,0,3.317-7.107,6.21-6.889l5.43,0.441c0,0,1.849,0.474,0.485,1.958c0,0-1.857,2.472-2.619,3.946
		c0,0-0.218,1.261-1.968,0.993c0,0-2.421-1.2-3.788,3.305c0,0-1.248,2.253-3.364,2.973c0,0-1.98,0.662-3.837-0.381
		c0,0-8.964-3.291-10.522-4.458c0,0-1.939-1.084-3.476-0.562c0,0-2.688,0.641-3.795-1.481l-2.779-4.298c0,0-0.613-1.058-0.527-2.388
		c0.001-0.001-0.252-1.318,0.859-2.656c0,0,1.052-1.109,1.215-1.913l1.981-4.654c0,0,0.804-1.243,1.684-1.754l2.646,0.194
		c0,0-1.822,4.649-3.153,6.542c0,0-1.804,2.757-1.712,4.51c0,0,0.122,1.229,0.604,1.742c0,0,0.61,0.976,0.858,1.45
		c0,0,0.798,1.739,1.449,2.125c0.001,0,1.124,0.666,1.398,0.692c0,0,0.491,0.135,0.125-0.741c0,0-1.479-3.118-1.384-4.785
		c0,0-0.286-1.736,0.942-2.753c0,0,2.882-4.546,3.296-5.905c0,0,0.9-1.818,1.384-2.13c0,0,1.007-1.323-0.618-1.941
		c0,0-4.048-0.914-4.771-1.411c0,0-1.944-0.589-3.209-4.642c0,0-1.739-4.725-1.714-7.643c0,0-3.412,6.576,2.03,13.264
		c0,0-4.305,1.269-6.086,0c0,0-5.361-0.783-6.398-1.069c0,0-1.346-0.327-0.577,0.631c0,0,1.614,2.301,1.753,3.807
		c0,0,0.103,1.199,1.087,1.902c0,0,3.049,2.134,3.315,4.18c0,0,0.654,1.968-0.694,1.497c0,0-1.824-0.848-2.469,0.006
		c0,0-0.188,0.088,0.517,0.879c0,0,1.831,1.592,1.967,3.731c0,0-0.339,2.467-0.985,3.26c0.001,0-0.824,1.143-2.127,0.781
		c0,0-0.344-0.281-0.972-0.092c0,0-0.643-0.002-2.326-0.583c0,0-2.552-0.701-3.403-1.002c0,0-3.248-1.163-4.853-1.081
		c0,0-1.042-0.115-2.371,0.151c0,0-4.063,0.461-6.771-2.531c0.001,0-2.061-1.634-2.757-0.047c0,0-4.943,6.632-12.945,4.884
		c0,0,6.369-2.618,8.019-6.183c0,0,0.22-3.027,3.554-7.23c0,0,1.018-1.396,0.035-1.758c0.001,0-0.568-0.425-1.811,0.821
		c0,0-3.165,3.039-4.308,5.82c0,0-3.936,5.944-9.605,3.947c0,0,4.449-1.718,6.541-4.919c0,0,1.292-4.334,5.642-7.559
		c0,0,0.169-4.871,2.196-7.609c0.001,0,1.032-4.574,1.31-5.643c0,0,1.093-4.018,1.085-5.127c0,0-0.361-5.248,3.022-9.332
		c0,0,2.267-4.371,5.801-7.415c0,0,2.682-3.314,4.676-5.344c0,0,2.624-3.078,8.35-7.093c0,0,2.59-1.884,4.487-3.909
		c0,0,10.095-7.267,17.389-1.439c0,0,5.037,3.426,9.245,4.487c0,0,8.644,1.006,12.328,7.006c0,0,0.314,1.108,3.8,1.532
		c0,0,7.652-0.923,13.287,6.603c0,0,2.618,2.555,7.803,3.177c0,0,8.45-0.865,13.951,5.616c0,0,13.887,12.112,22.169,4.258
		c0.001,0,4.289-4.063-0.616-11.416c0,0-3.107-3.754-8.416-7.677c0,0-4.306-3.033-2.332-7.749c0,0,1.042-4.556,7.496-4.676
		c0,0,8.095-1.564,11.369-5.653c0,0,3.658,12.877-10.693,12.661c0,0-3.737,0.553-2.432,3.521c0.001,0,1.832,2.541,4.292,3.463
		c0,0,4.332,1.893,6.286,8.196c0,0,4.371,11.033-6.297,15.292C342.703,69.035,337.963,68.617,333.739,67.882L333.739,67.882
		L333.739,67.882z"/>
	<path fill-rule="evenodd" clip-rule="evenodd" fill="#EE2D3A" d="M80.024,201.941h21.343c0,0-0.889-10.075-10.522-10.075
		S80.024,201.941,80.024,201.941L80.024,201.941L80.024,201.941z M91.141,179.717c28.75,0,27.564,28.01,27.564,28.01v4.443H79.729
		c0,6.371,5.334,11.854,12.597,11.854c7.26,0,10.966-6.966,10.966-6.966l13.78,6.816c-6.371,9.636-14.965,13.485-24.597,13.485
		c-29.938,0-30.529-24.895-30.529-28.007S62.392,179.717,91.141,179.717L91.141,179.717L91.141,179.717z M155.161,221.652
		L155.161,221.652c-0.89,0-12.006,0.15-12.006-13.482c0-13.637,12.154-14.08,12.154-14.08s13.634,0.443,13.634,13.783
		C168.942,221.209,156.049,221.652,155.161,221.652L155.161,221.652L155.161,221.652z M168.205,145v41.086
		c0,0-8.301-6.369-17.79-6.369c-9.481,0-25.487,6.668-25.487,27.709c0,21.045,13.635,29.05,25.343,29.05
		c11.708,0,18.229-7.708,18.229-7.708v6.843h16.892V145H168.205L168.205,145z M282.166,182.53h17.19v30.38
		c0,0,0.594,10.229,10.226,10.229s9.486-10.229,9.486-10.229v-30.232h17.335v31.271c0,0,2.227,24.451-26.379,24.451
		c-28.599,0-27.858-21.488-27.858-25.34C282.166,209.204,282.166,182.53,282.166,182.53L282.166,182.53L282.166,182.53z
		 M346.409,145h16.968v90.61h-16.968V145L346.409,145z M375.23,145h16.749v90.61H375.23V145L375.23,145z M247.708,220.468
		L247.708,220.468h-16.077v-56.685h8.594c0,0,11.678-0.879,11.678,9.309c0,10.188-9.29,9.29-9.29,9.29h-5.35v15.272
		c0,0,7.705,0,10.442,0c2.738,0,11.458,1.327,11.458,11.363C259.163,219.051,247.708,220.468,247.708,220.468L247.708,220.468
		L247.708,220.468z M262.159,188.311c0,0,7.853-6.105,7.853-17.682c0-11.579-8.41-22.021-26.32-22.021c-17.907,0-29.993,0-29.993,0
		l0.001,87.003h36.943c0,0,26.479-0.3,26.479-24.226C277.121,197.492,271.729,192.172,262.159,188.311L262.159,188.311
		L262.159,188.311z M0,146.752v88.858h17.931v-71.902h8.447c0,0,13.188-0.593,13.188,11.412c0,12.003-11.707,11.707-11.707,11.707
		h-4.298v20.452l17.934,28.331h21.042l-25.043-36.333c0,0,20.598-1.777,20.598-24.157c0-22.376-15.561-28.368-36.307-28.368
		C1.039,146.752,0,146.752,0,146.752L0,146.752L0,146.752z"/>
</g>
</svg>
