<?xml version="1.0" encoding="utf-8"?>
<!-- Generator: Adobe Illustrator 16.0.3, SVG Export Plug-In . SVG Version: 6.00 Build 0)  -->
<!DOCTYPE svg PUBLIC "-//W3C//DTD SVG 1.1//EN" "http://www.w3.org/Graphics/SVG/1.1/DTD/svg11.dtd">
<svg version="1.1" xmlns="http://www.w3.org/2000/svg" xmlns:xlink="http://www.w3.org/1999/xlink" x="0px" y="0px"
	 width="158.667px" height="71px" viewBox="0 0 158.667 71" enable-background="new 0 0 158.667 71" xml:space="preserve">
<g id="Layer_1">
</g>
<g id="Layer_2">
	<g>
		<path fill="#FFFFFF" d="M0,0c0,0,0,55.25,0,61s5.5,10,9.5,10S47,71,47,71V58c0,0-26.334,0-29,0c-1.152,0-2-0.832-2-2.916
			S16,0,16,0H0z"/>
		<path fill="#FFFFFF" d="M37,0c0,0,0,9.832,0,10.541S37.918,12,38.583,12S60,12,60,12v59h15V12h23c0,0,0-9.916,0-10.417
			C98,0.792,97.21,0,96.458,0S37,0,37,0z"/>
		<polygon fill="#FFFFFF" points="117,0 132,0 158.667,71 143,71 		"/>
		<polygon fill="#FFFFFF" points="90,71 106,71 132,0 117,0 		"/>
		<path fill="#FFFFFF" d="M114,44.938c0,0,3-3.375,10.5-3.375S135,45,135,45l8,26c0,0-5.167-17.969-18.438-17.969
			C112.333,53.031,106,71,106,71L114,44.938z"/>
	</g>
</g>
</svg>
