<?xml version="1.0" encoding="utf-8"?>
<!-- Generator: Adobe Illustrator 16.0.3, SVG Export Plug-In . SVG Version: 6.00 Build 0)  -->
<!DOCTYPE svg PUBLIC "-//W3C//DTD SVG 1.1//EN" "http://www.w3.org/Graphics/SVG/1.1/DTD/svg11.dtd">
<svg version="1.1" id="Layer_1" xmlns="http://www.w3.org/2000/svg" xmlns:xlink="http://www.w3.org/1999/xlink" x="0px" y="0px"
	 width="1121.762px" height="36.249px" viewBox="0 0 1121.762 36.249" enable-background="new 0 0 1121.762 36.249"
	 xml:space="preserve">
<g>
	<g>
		<g>
			<path fill-rule="evenodd" clip-rule="evenodd" fill="#ED1C24" d="M58.159-0.099c-3.706,0-6.724,3.05-6.724,6.796v22.691
				c0,3.761,3.018,6.803,6.724,6.803h22.861c3.715,0,6.732-3.042,6.732-6.803V6.697c0-3.746-3.018-6.796-6.732-6.796H58.159z
				 M58.808,29.268V6.821c0-0.618,0.446-1.163,0.997-1.163h19.583c0.534,0,0.988,0.545,0.988,1.163v22.447
				c0,0.642-0.455,1.158-0.988,1.158H59.805C59.253,30.426,58.808,29.909,58.808,29.268z"/>
		</g>
		<g>
			<path fill-rule="evenodd" clip-rule="evenodd" fill="#ED1C24" d="M244.217-0.099c-3.705,0-6.723,3.05-6.723,6.796v22.691
				c0,3.761,3.018,6.803,6.723,6.803h22.866c3.701,0,6.728-3.042,6.728-6.803V6.697c0-3.746-3.026-6.796-6.728-6.796H244.217z
				 M244.87,29.268V6.821c0-0.618,0.441-1.163,0.988-1.163h19.583c0.534,0,1.002,0.545,1.002,1.163v22.447
				c0,0.642-0.468,1.158-1.002,1.158h-19.583C245.312,30.426,244.87,29.909,244.87,29.268z"/>
		</g>
		<polygon fill-rule="evenodd" clip-rule="evenodd" fill="#ED1C24" points="0,-0.002 7.906,-0.002 20.88,27.426 34.164,-0.002 
			42.083,-0.002 24.679,36.251 17.404,36.251 		"/>
		<path fill-rule="evenodd" clip-rule="evenodd" fill="#ED1C24" d="M167.983-0.002l17.404,36.253h-7.584l-3.494-7.511h-19.605
			l-3.48,7.511h-7.906l17.713-36.253H167.983z M157.25,23.195h13.914l-6.966-14.374L157.25,23.195z"/>
		<polygon fill-rule="evenodd" clip-rule="evenodd" fill="#ED1C24" points="227.471,-0.002 227.471,5.555 202.324,5.555 
			202.324,12.739 227.471,12.739 227.471,18.296 202.324,18.296 202.324,36.251 194.877,36.251 194.877,-0.002 		"/>
		<polygon fill-rule="evenodd" clip-rule="evenodd" fill="#ED1C24" points="312.894,25.48 312.894,-0.002 320.164,-0.002 
			320.164,36.251 313.524,36.251 291.387,10.776 291.387,36.251 284.416,36.251 284.416,-0.002 291.061,-0.002 		"/>
		<polygon fill-rule="evenodd" clip-rule="evenodd" fill="#ED1C24" points="363.514,-0.002 363.514,5.555 338.283,5.555 
			338.283,12.739 363.514,12.739 363.514,18.296 338.283,18.296 338.283,30.216 363.514,30.216 363.514,36.251 331.083,36.251 
			331.083,-0.002 		"/>
		<g>
			<path fill-rule="evenodd" clip-rule="evenodd" fill="#ED1C24" d="M97.988-0.099v36.29h29.581c3.706,0,6.728-3.042,6.728-6.803
				V6.697c0-3.746-3.022-6.796-6.728-6.796H97.988z M105.355,5.658h20.567c0.542,0,0.997,0.545,0.997,1.163v22.447
				c0,0.642-0.454,1.158-0.997,1.158h-20.567V5.658z"/>
		</g>
	</g>
	<path fill-rule="evenodd" clip-rule="evenodd" fill="#808080" d="M779.445,36.269h7.258L801.905,9.16v27.109h7.266V0.032H798.42
		l-15.498,28.076L767.732,0.032h-10.756v36.237h7.275V8.502L779.445,36.269z M1092.957,5.953h25.636V0.032c0,0-22.504,0-27.202,0
		c-3.313,0-5.846,3.397-5.709,6.525c0.137,2.792,2.475,4.372,4.121,5.545l24.67,18.3c-9.587,0-28.791,0-28.791,0l0,0v5.921
		c0,0,25.676,0,30.365,0c3.31,0,5.854-3.411,5.709-6.529c-0.119-2.784-2.475-4.381-4.12-5.55L1092.957,5.953 M996.151-0.074v36.29
		h29.585c3.71,0,6.728-3.053,6.728-6.807V6.711c0-3.746-3.018-6.785-6.728-6.785H996.151z M1003.523,5.674h20.571
		c0.547,0,1.002,0.543,1.002,1.169v22.447c0,0.631-0.455,1.16-1.002,1.16h-20.571V5.674z M942.02,30.451h-24.255
		c-0.552,0-1.011-0.529-1.011-1.16V6.843c0-0.626,0.459-1.169,1.011-1.169h24.255v-5.748h-25.914c-3.71,0-6.715,3.039-6.715,6.785
		V29.41c0,3.754,3.005,6.807,6.715,6.807h25.914V30.451z M1042.342,0.032v36.237h32.443v-6.044h-25.239v-11.92h25.239v-5.541
		h-25.239V5.578h25.239V0.032H1042.342z M819.618,0.032v36.237h32.431v-6.044h-25.235v-11.92h25.235v-5.541h-25.235V5.578h25.235
		V0.032H819.618z M952.807,0.032v36.237h32.43v-6.044h-25.23v-11.92h25.23v-5.541h-25.23V5.578h25.23V0.032H952.807z
		 M890.796,36.269h8.28l-8.836-12.644h1.773c3.706,0,6.719-3.044,6.719-6.785V6.826c0-3.754-3.013-6.794-6.719-6.794h-29.06v36.237
		h7.143V23.625h12.242L890.796,36.269z M870.097,5.578h20.399c0.538,0,0.992,0.533,0.992,1.16V16.5c0,0.622-0.454,1.165-0.992,1.165
		h-20.399V5.578z"/>
	<path fill-rule="evenodd" clip-rule="evenodd" fill="#808080" d="M568.477,0l17.404,36.249h-7.594l-3.489-7.518h-19.61
		l-3.484,7.518h-7.897L561.514,0H568.477z M557.721,23.186h13.928l-6.967-14.365L557.721,23.186z M692.18,0h-6.645v36.249h6.957
		V10.767l22.156,25.481h6.631V0h-7.266v25.462L692.18,0z M642.191,0v36.249h32.43v-6.039h-25.217V18.28h25.217v-5.55h-25.217V5.552
		h25.217V0H642.191z M425.803,36.249h7.257l15.198-27.103v27.103h7.27V0h-10.75l-15.498,28.091L414.09,0h-10.756v36.249h7.274V8.497
		L425.803,36.249z M503.465,36.249h32.422v-5.881h-25.614V0h-6.808V36.249z M492.555,10.127h-19.852
		c-3.711,0-6.724,3.048-6.724,6.785v12.476c0,3.746,3.013,6.794,6.724,6.794h19.852v-5.426h-19.256V15.677h19.256V10.127z
		 M623.529,36.249h8.271l-8.836-12.644h1.777c3.701,0,6.719-3.058,6.719-6.799V6.792c0-3.746-3.018-6.792-6.719-6.792h-29.051
		v36.249h7.146V23.605h12.242L623.529,36.249z M602.838,5.552h20.387c0.533,0,0.998,0.536,0.998,1.163v9.752
		c0,0.64-0.465,1.16-0.998,1.16h-20.387V5.552z"/>
</g>
</svg>
