<?xml version="1.0" encoding="utf-8"?>
<!-- Generator: Adobe Illustrator 16.0.3, SVG Export Plug-In . SVG Version: 6.00 Build 0)  -->
<!DOCTYPE svg PUBLIC "-//W3C//DTD SVG 1.1//EN" "http://www.w3.org/Graphics/SVG/1.1/DTD/svg11.dtd">
<svg version="1.1" id="Ebene_1" xmlns="http://www.w3.org/2000/svg" xmlns:xlink="http://www.w3.org/1999/xlink" x="0px" y="0px"
	 width="132.307px" height="38.502px" viewBox="0 0 132.307 38.502" enable-background="new 0 0 132.307 38.502"
	 xml:space="preserve">
<g>
	<path fill-rule="evenodd" clip-rule="evenodd" fill="#EF402F" d="M118.961,31.087c1.384-4.11,3.118-9.483,3.118-11.014
		c0-1.211-0.357-2.121-1.564-2.121c-5.107,0-13.188,7.588-18.467,13.135l0,0c-2.301,2.417-4.069,4.448-4.826,5.298
		c-0.818,0.914-2.018,1.106-3.416,1.106c-1.734,0-3.58-0.921-3.756-1.013c-0.549-0.28-0.573-0.595-0.41-1.256l0.459-1.87
		c0.132-0.545,0.355-1.319,0.646-2.269v-0.106c1.546-5.033,5.038-14.915,7.582-20.691c0.128-0.29,0.257-0.531,0.912-0.633
		c0.306-0.048,1.305-0.28,2.7-0.28c1.02,0,3.007,0.072,4.004,0.606c0,0,0.008-0.015,0.008,1.654c0,0.722,0.079,3.178,2.388,3.178
		c3.897,0,10.975-6.691,17.229-6.691c5.497,0,6.739,3.394,6.739,6.017c0,3.075-2.554,11.355-4.387,16.84v0.109
		c-0.796,2.369-1.451,4.217-1.712,4.902c-0.563,1.485-1.646,1.696-3.046,1.696c-2.538,0-4.453-0.605-5.385-1.352
		c-0.194-0.155-0.434-0.485-0.271-0.97c0.294-0.875,0.841-2.452,1.455-4.28V31.087z"/>
	<path fill-rule="evenodd" clip-rule="evenodd" fill="#EF402F" d="M55.255,31.087c0-0.048,0-0.094,0-0.142
		c0-3.032,2.643-8.591,4.813-13.858c0.923-2.241,4.854-9.77,18.237-9.77c5.524,0,12.371,0.867,12.371,6.881
		c0,3.705-3.659,11.84-4.833,14.101c-0.543,1.041-1.102,1.967-1.682,2.785v0.003c-4.688,6.647-10.614,6.599-17.212,6.599
		C63.352,37.686,55.367,37.725,55.255,31.087z M75.18,14.631c-0.927,0-2.312,0.146-2.937,1.012
		c-2.344,3.246-3.897,11.361-3.897,13.62c0,1.54,1.071,1.444,2.501,1.444c0.835,0,2.179,0.018,2.938-0.771
		c2.06-2.148,3.835-11.868,3.835-13.623C77.619,15.065,77.53,14.631,75.18,14.631z"/>
	<path fill-rule="evenodd" clip-rule="evenodd" fill="#EF402F" d="M25.216,31.087c1.288-0.693,2.116-1.506,2.399-1.807
		c0,0,4.338-0.499,7.124-0.499c2.702,0,6.688,0.433,6.688,1.975l-0.079,0.331c-0.662,3.006-10.019,7.415-17.915,7.415
		c-8.26,0-15.972-3.008-20.161-7.418l0.002,0.003C1.21,28.908,0,26.393,0,23.728C0,10.195,26.12,0,33.736,0
		c6.862,0,7.797,10.927,7.797,14.921c0,8.527-5.25,10.299-11.069,10.299h-4.091c-4.089,0-12.319-0.241-12.319-0.241
		c-0.663-0.014-1.157-0.146-1.157,0.241c0,1.888,1.451,4.429,3.882,5.864l0.046,0.003c1.151,0.677,2.522,1.108,4.06,1.108
		c1.755,0,3.221-0.507,4.338-1.108 M31.819,14.005c0-1.74-0.082-4.235-1.444-4.235c-4.431,0-12.214,6.777-12.995,7.556
		c-0.577,0.577-0.144,0.528,0.625,0.528h9.963C31.498,17.854,31.819,17.263,31.819,14.005z"/>
	<path fill-rule="evenodd" clip-rule="evenodd" fill="#EF402F" d="M54.485,19.781c0,0.913-1.063,3.429-1.214,3.802
		c-0.958,2.361-3.467,2.742-5.235,2.742c-2.649,0-3.561-0.951-3.561-2.453c0-1.162,0.977-3.17,1.106-3.465
		c1.192-2.735,3.33-3.033,5.438-3.033C52.807,17.374,54.485,18.117,54.485,19.781"/>
</g>
</svg>
