<?xml version="1.0" encoding="utf-8"?>
<!-- Generator: Adobe Illustrator 16.0.3, SVG Export Plug-In . SVG Version: 6.00 Build 0)  -->
<!DOCTYPE svg PUBLIC "-//W3C//DTD SVG 1.1//EN" "http://www.w3.org/Graphics/SVG/1.1/DTD/svg11.dtd">
<svg version="1.1" id="Layer_1" xmlns="http://www.w3.org/2000/svg" xmlns:xlink="http://www.w3.org/1999/xlink" x="0px" y="0px"
	 width="130.153px" height="39.307px" viewBox="0 0 130.153 39.307" enable-background="new 0 0 130.153 39.307"
	 xml:space="preserve">
<g>
	<path fill-rule="evenodd" clip-rule="evenodd" fill="#FFFFFF" d="M18.458,0h-6.738H1.318l0,0C0.049,0,0.049,0,0.049,0.928l0,0
		v34.546l0,0c-0.024-0.024-0.024,0-0.049,0.024l0,0v0.024l0,0c0.025,0.195,0.245,0.757,0.977,0.757c0.749,0,7.579,0,8.301,0
		c0.806,0,0.806,0,0.806-0.732l0,0v-6.958l0,0c0-0.952,0-1.099,0.928-1.099l0,0h0.708h6.738l0,0
		c3.955-0.171,4.932-1.099,4.932-5.591l0,0V4.663l0,0C23.389,0.83,22.413,0,18.458,0L18.458,0L18.458,0L18.458,0z M13.355,21.436
		c-0.049,1.074-0.854,1.611-1.636,1.611c-0.83,0-1.636-0.562-1.636-1.709l0,0V5.591l0,0c0-1.074,0.806-1.636,1.636-1.636
		s1.636,0.562,1.636,1.709l0,0V21.436L13.355,21.436L13.355,21.436z"/>
	<path fill-rule="evenodd" clip-rule="evenodd" fill="#FFFFFF" d="M50.416,0.83c0-0.83-0.171-0.562-0.928-0.83l0,0h-8.203l0,0
		c-0.903,0-0.903,0-0.903,0.83l0,0l-0.024,28.589l0,0c0,2.808-3.173,2.734-3.173,0l0,0V0.83l0,0c0-0.83,0-0.83-0.831-0.83l0,0
		h-8.569l0,0c-1.001,0-1.001,0-1.001,0.83l0,0v30.249l0,0c0,4.468,1.001,5.2,3.735,5.2l0,0h15.869l0,0
		c3.101,0,4.126-0.83,4.028-4.932l0,0V0.83L50.416,0.83L50.416,0.83z"/>
	<path fill-rule="evenodd" clip-rule="evenodd" fill="#FFFFFF" d="M86.158,0H57.886l0,0c-3.369,0-4.37,0.83-4.37,4.126l0,0v31.421
		l0,0c0,0.732,0,0.732,1.001,0.732l0,0h7.935l0,0c1.099,0,1.099,0,1.099-0.732l0,0V5.957l0,0c0-2.588,3.173-2.856,3.173,0l0,0v29.59
		l0,0c0,0.732,0,0.732,1.197,0.732l0,0h7.91l0,0c0.928,0,0.928,0,0.928-0.732l0,0V5.957l0,0c0-2.441,3.174-2.588,3.174,0l0,0v29.59
		l0,0c0,0.732,0,0.732,1.001,0.732l0,0h8.13l0,0c0.903,0,0.903,0,0.903-0.732l0,0V3.931l0,0C89.967,0.83,88.966,0,86.158,0L86.158,0
		L86.158,0L86.158,0z"/>
	<path fill-rule="evenodd" clip-rule="evenodd" fill="#FFFFFF" d="M113.6,0h-8.179H97.56l0,0c-2.661,0-3.76,0.83-3.76,3.955l0,0
		v31.592l0,0c0,0.732,0,0.732,1.099,0.732l0,0h7.935l0,0c1.001,0,1.001,0,1.001-0.732l0,0v-7.056l0,0
		c0.098-1.099,0.83-1.66,1.587-1.685c0.806-0.024,1.611,0.562,1.611,1.782l0,0v6.958l0,0c0,0.732,0,0.732,1.001,0.732l0,0h8.228l0,0
		c0.806,0,0.806,0,0.806-0.732l0,0V3.931l0,0C117.066,0.83,116.236,0,113.6,0L113.6,0L113.6,0L113.6,0z M107.032,21.436
		c0,0.977-0.806,1.465-1.611,1.44c-0.781,0-1.587-0.488-1.587-1.44l0,0V5.957l0,0c0-1.074,0.806-1.587,1.587-1.587
		c0.806,0.024,1.611,0.562,1.611,1.587l0,0V21.436L107.032,21.436L107.032,21.436z"/>
	<path fill-rule="evenodd" clip-rule="evenodd" fill="#FFFFFF" d="M125.855,30.615c-0.024,0-0.049,0-0.073,0
		c-2.368,0-4.321,1.953-4.321,4.37c0,2.368,1.953,4.321,4.321,4.321c0.024,0,0.049,0,0.073,0c2.394-0.024,4.298-1.953,4.298-4.321
		C130.153,32.593,128.249,30.664,125.855,30.615L125.855,30.615L125.855,30.615L125.855,30.615z M129.273,35.352
		c-0.269,1.831-1.709,3.052-3.418,3.076c-0.463,0-0.928-0.073-1.392-0.244c-1.44-0.708-2.246-1.929-2.123-3.54
		c0.268-1.953,1.854-3.174,3.515-3.149c0.952,0,1.904,0.391,2.637,1.27C129.078,33.594,129.322,34.302,129.273,35.352
		L129.273,35.352L129.273,35.352L129.273,35.352z"/>
	<path fill-rule="evenodd" clip-rule="evenodd" fill="#FFFFFF" d="M127.247,35.059c0.317-0.293,0.488-0.684,0.488-1.147
		c0-0.415-0.194-0.781-0.586-1.05c-0.342-0.269-0.806-0.439-1.294-0.464c-0.049,0-0.097,0-0.171,0l0,0h-1.709l-0.024,5.2h0.854
		l-0.024-2.026h0.659l0.415,0.562l1.099,1.44h0.83l-1.611-2.051l0,0C126.54,35.522,126.905,35.327,127.247,35.059L127.247,35.059
		L127.247,35.059L127.247,35.059z M125.685,34.912h-0.879l-0.024-1.953h0.903l0,0c0.074,0,0.122,0.024,0.171,0.024
		c0.269,0.024,0.537,0.122,0.709,0.269c0.219,0.171,0.365,0.439,0.365,0.659c0,0.293-0.122,0.513-0.365,0.708
		c-0.195,0.171-0.44,0.269-0.709,0.293C125.807,34.912,125.759,34.912,125.685,34.912L125.685,34.912L125.685,34.912L125.685,34.912
		z"/>
</g>
</svg>
