<?xml version="1.0" encoding="utf-8"?>
<!-- Generator: Adobe Illustrator 16.0.3, SVG Export Plug-In . SVG Version: 6.00 Build 0)  -->
<!DOCTYPE svg PUBLIC "-//W3C//DTD SVG 1.1//EN" "http://www.w3.org/Graphics/SVG/1.1/DTD/svg11.dtd">
<svg version="1.1" id="Layer_1" xmlns="http://www.w3.org/2000/svg" xmlns:xlink="http://www.w3.org/1999/xlink" x="0px" y="0px"
	 width="117.067px" height="39.307px" viewBox="0 0 117.067 39.307" enable-background="new 0 0 117.067 39.307"
	 xml:space="preserve">
<g>
	<path fill="#FFFFFF" d="M18.458,0H11.72H1.318l0,0C0.049,0,0.049,0,0.049,0.928l0,0v34.546l0,0c-0.024-0.023-0.024,0-0.049,0.024
		l0,0v0.023l0,0c0.024,0.195,0.245,0.757,0.977,0.757c0.749,0,7.579,0,8.301,0c0.807,0,0.807,0,0.807-0.731l0,0v-6.958l0,0
		c0-0.952,0-1.099,0.928-1.099l0,0h0.708h6.738l0,0c3.955-0.172,4.932-1.1,4.932-5.592l0,0V4.663l0,0C23.389,0.83,22.413,0,18.458,0
		L18.458,0L18.458,0L18.458,0z M13.355,21.436c-0.049,1.074-0.854,1.611-1.636,1.611c-0.83,0-1.636-0.562-1.636-1.709l0,0V5.591l0,0
		c0-1.074,0.806-1.636,1.636-1.636s1.636,0.562,1.636,1.709l0,0V21.436L13.355,21.436L13.355,21.436z"/>
	<path fill="#FFFFFF" d="M50.416,0.83c0-0.83-0.171-0.562-0.929-0.83l0,0h-8.202l0,0c-0.903,0-0.903,0-0.903,0.83l0,0l-0.024,28.589
		l0,0c0,2.808-3.173,2.733-3.173,0l0,0V0.83l0,0c0-0.83,0-0.83-0.831-0.83l0,0h-8.568l0,0c-1.001,0-1.001,0-1.001,0.83l0,0v30.249
		l0,0c0,4.468,1.001,5.199,3.734,5.199l0,0h15.869l0,0c3.101,0,4.126-0.829,4.028-4.932l0,0V0.83L50.416,0.83L50.416,0.83z"/>
	<path fill="#FFFFFF" d="M86.158,0H57.886l0,0c-3.369,0-4.37,0.83-4.37,4.126l0,0v31.421l0,0c0,0.731,0,0.731,1.001,0.731l0,0h7.936
		l0,0c1.099,0,1.099,0,1.099-0.731l0,0V5.957l0,0c0-2.588,3.173-2.856,3.173,0l0,0v29.59l0,0c0,0.731,0,0.731,1.197,0.731l0,0h7.91
		l0,0c0.928,0,0.928,0,0.928-0.731l0,0V5.957l0,0c0-2.441,3.174-2.588,3.174,0l0,0v29.59l0,0c0,0.731,0,0.731,1.001,0.731l0,0h8.13
		l0,0c0.903,0,0.903,0,0.903-0.731l0,0V3.931l0,0C89.967,0.83,88.966,0,86.158,0L86.158,0L86.158,0L86.158,0z"/>
	<path fill="#FFFFFF" d="M113.6,0h-8.179H97.56l0,0c-2.661,0-3.76,0.83-3.76,3.955l0,0v31.592l0,0c0,0.731,0,0.731,1.099,0.731l0,0
		h7.936l0,0c1.001,0,1.001,0,1.001-0.731l0,0v-7.056l0,0c0.098-1.1,0.83-1.66,1.587-1.686c0.806-0.023,1.611,0.562,1.611,1.782l0,0
		v6.958l0,0c0,0.731,0,0.731,1.001,0.731l0,0h8.228l0,0c0.806,0,0.806,0,0.806-0.731l0,0V3.931l0,0C117.066,0.83,116.236,0,113.6,0
		L113.6,0L113.6,0L113.6,0z M107.032,21.436c0,0.978-0.807,1.465-1.611,1.44c-0.781,0-1.587-0.488-1.587-1.44l0,0V5.957l0,0
		c0-1.074,0.806-1.587,1.587-1.587c0.806,0.023,1.611,0.562,1.611,1.587l0,0V21.436L107.032,21.436L107.032,21.436z"/>
</g>
</svg>
