<?xml version="1.0" encoding="utf-8"?>
<!-- Generator: Adobe Illustrator 16.0.3, SVG Export Plug-In . SVG Version: 6.00 Build 0)  -->
<!DOCTYPE svg PUBLIC "-//W3C//DTD SVG 1.1//EN" "http://www.w3.org/Graphics/SVG/1.1/DTD/svg11.dtd">
<svg version="1.1" id="Layer_1" xmlns="http://www.w3.org/2000/svg" xmlns:xlink="http://www.w3.org/1999/xlink" x="0px" y="0px"
	 width="331.842px" height="164.152px" viewBox="0 0 331.842 164.152" enable-background="new 0 0 331.842 164.152"
	 xml:space="preserve">
<g>
	<g>
		<path fill-rule="evenodd" clip-rule="evenodd" fill="#FFFFFF" d="M0,0v164.152h167.699L331.842,0H0z M202.205,101.001h-10.553
			v31.368h-48.383l-4.796-15.007c-5.121,1.679-10.91,2.616-17.031,2.616c-6.296,0-12.224-0.997-17.437-2.756l-4.983,15.146H69.361
			l3.268-8.759c-0.389,0.346-0.784,0.703-1.189,1.028c-7.404,5.945-16.651,9.228-28.12,9.431l-1.698,0.014
			c-13.156,0-26.064-3.633-36.973-9.837l10.09-20.035c10.925,6.456,17.785,7.904,27.049,7.719c4.796-0.092,8.262-0.971,10.529-3.31
			c1.365-1.432,2.095-3.193,2.135-5.093c0.091-5.207-7.312-7.647-16.375-10.447c-7.351-2.289-15.693-5.394-22.201-10.167
			C8.145,77.234,4.47,70.131,4.648,60.102c0.119-7.292,2.819-13.863,7.82-19.05c7.176-7.416,18.767-11.932,32.666-11.932h0.08
			c11.917,0.02,26.464,3.395,37.003,8.756L70.845,57.643c-11.518-5.568-17.322-6.089-23.891-6.444
			c-9.769-0.53-14.722,2.975-14.782,6.74c-0.083,4.594,9.231,8.757,18.046,11.578c13.332,4.239,30.273,9.907,32.853,26.271
			l24.369-64.938h28.291l28.538,77.656V30.851l32.663,0.008c31.221,0,45.887,11.127,45.887,35.378
			C242.818,88.015,227.715,101.001,202.205,101.001z"/>
		<path fill-rule="evenodd" clip-rule="evenodd" fill="#FFFFFF" d="M198.854,52.221h-7.201v26.33h7.201
			c9.599,0,17.236-3.186,17.236-13.316C216.09,55.405,208.452,52.221,198.854,52.221z"/>
		<path fill-rule="evenodd" clip-rule="evenodd" fill="#FFFFFF" d="M121.333,62.819l-10.36,32.657
			c3.083,1.173,6.664,1.849,10.47,1.849c3.716,0,7.201-0.649,10.248-1.754l-10.145-32.752H121.333z"/>
	</g>
</g>
</svg>
