<?xml version="1.0" encoding="utf-8"?>
<!-- Generator: Adobe Illustrator 16.0.3, SVG Export Plug-In . SVG Version: 6.00 Build 0)  -->
<!DOCTYPE svg PUBLIC "-//W3C//DTD SVG 1.1//EN" "http://www.w3.org/Graphics/SVG/1.1/DTD/svg11.dtd">
<svg version="1.1" id="Layer_1" xmlns="http://www.w3.org/2000/svg" xmlns:xlink="http://www.w3.org/1999/xlink" x="0px" y="0px"
	 width="415.151px" height="147.32px" viewBox="319.686 -194.16 415.151 147.32"
	 enable-background="new 319.686 -194.16 415.151 147.32" xml:space="preserve">
<g id="Layer_1_2_">
	<g id="Layer_1_1_" display="none">
		<g id="W8eZLx_1_" display="inline">
			
				<image overflow="visible" enable-background="new    " width="648" height="311" id="W8eZLx_2_" xlink:href="../../mono-color/ellen/5C5C6E0E56B1D68.png"  transform="matrix(1 0 0 1 -132.3613 -132.9998)">
			</image>
		</g>
	</g>
</g>
<g id="Layer_2_1_">
	<g>
		<g id="Layer_2_2_">
			<g enable-background="new    ">
				<path fill="#D0CAB3" d="M482.683-166.861h19.184v4.978h-13.624v5.158h11.989v4.979h-11.989v5.34h13.806v4.978h-19.364
					L482.683-166.861L482.683-166.861z"/>
				<path fill="#D0CAB3" d="M507.026-166.861h5.595v20.345h12.68v5.086h-18.273L507.026-166.861L507.026-166.861z"/>
				<path fill="#D0CAB3" d="M529.518-166.861h5.596v20.345h12.679v5.086h-18.273L529.518-166.861L529.518-166.861z"/>
				<path fill="#D0CAB3" d="M552.008-166.861h19.184v4.978h-13.624v5.158h11.987v4.979h-11.987v5.34h13.806v4.978h-19.364
					L552.008-166.861L552.008-166.861z"/>
				<path fill="#D0CAB3" d="M576.352-166.861h5.158l11.918,15.659v-15.659h5.521v25.433h-4.76l-12.316-16.167v16.167h-5.521
					V-166.861L576.352-166.861z"/>
				<path fill="#D0CAB3" d="M482.683-131.861h6.031l6.686,10.754l6.686-10.754h6.031v25.432h-5.561v-16.604l-7.156,10.863h-0.146
					l-7.086-10.754v16.493h-5.485V-131.861L482.683-131.861z"/>
				<path fill="#D0CAB3" d="M522.94-132.042h5.158l10.898,25.612h-5.849l-2.325-5.703H520.07l-2.325,5.703h-5.704L522.94-132.042z
					 M528.826-117.074l-3.379-8.247l-3.379,8.247H528.826z"/>
				<path fill="#D0CAB3" d="M540.164-119.072v-0.073c0-7.229,5.449-13.151,13.26-13.151c4.796,0,7.666,1.599,10.027,3.924
					l-3.562,4.104c-1.961-1.779-3.959-2.871-6.503-2.871c-4.287,0-7.375,3.562-7.375,7.921v0.072c0,4.36,3.017,7.993,7.375,7.993
					c2.907,0,4.688-1.163,6.686-2.979l3.561,3.597c-2.615,2.797-5.521,4.542-10.427,4.542
					C545.723-105.993,540.164-111.77,540.164-119.072z"/>
				<path fill="#D0CAB3" d="M576.822-132.042h5.16l10.897,25.612h-5.85l-2.324-5.703h-10.754l-2.325,5.703h-5.704L576.822-132.042z
					 M582.709-117.074l-3.379-8.247l-3.379,8.247H582.709z"/>
				<path fill="#D0CAB3" d="M596.807-131.861h11.627c3.232,0,5.74,0.908,7.412,2.579c1.416,1.417,2.181,3.416,2.181,5.813v0.072
					c0,4.105-2.218,6.686-5.451,7.885l6.213,9.082h-6.539l-5.449-8.138h-0.071h-4.324v8.138h-5.597L596.807-131.861L596.807-131.861
					z M608.07-119.508c2.725,0,4.287-1.454,4.287-3.598v-0.072c0-2.398-1.673-3.634-4.396-3.634h-5.559v7.304H608.07z"/>
				<path fill="#D0CAB3" d="M628.998-126.702h-7.738v-5.159h21.072v5.159h-7.738v20.272h-5.596V-126.702L628.998-126.702z"/>
				<path fill="#D0CAB3" d="M646.621-131.861h5.594v10.063h10.318v-10.063h5.596v25.432h-5.596v-10.209h-10.318v10.209h-5.594
					V-131.861z"/>
				<path fill="#D0CAB3" d="M673.836-117.329v-14.532h5.594v14.387c0,4.143,2.072,6.285,5.486,6.285c3.416,0,5.486-2.07,5.486-6.104
					v-14.569h5.596v14.352c0,7.701-4.324,11.479-11.154,11.479S673.836-109.844,673.836-117.329z"/>
				<path fill="#D0CAB3" d="M701.703-131.861h11.627c3.232,0,5.74,0.908,7.412,2.579c1.416,1.417,2.18,3.416,2.18,5.813v0.072
					c0,4.105-2.217,6.686-5.451,7.885l6.213,9.082h-6.539l-5.448-8.138h-0.072H707.3v8.138h-5.596L701.703-131.861L701.703-131.861z
					 M712.967-119.508c2.726,0,4.287-1.454,4.287-3.598v-0.072c0-2.398-1.672-3.634-4.396-3.634h-5.56v7.304H712.967z"/>
				<path fill="#D0CAB3" d="M482.683-96.861h19.364v5.086h-13.77v5.413h12.135v5.086h-12.135v9.846h-5.596L482.683-96.861
					L482.683-96.861z"/>
				<path fill="#D0CAB3" d="M505.392-84.072v-0.073c0-7.229,5.704-13.151,13.553-13.151c7.848,0,13.479,5.849,13.479,13.079v0.072
					c0,7.23-5.704,13.152-13.552,13.152S505.392-76.843,505.392-84.072z M526.572-84.072v-0.073c0-4.359-3.197-7.993-7.702-7.993
					s-7.63,3.562-7.63,7.921v0.072c0,4.36,3.197,7.993,7.703,7.993C523.447-76.152,526.572-79.713,526.572-84.072z"/>
				<path fill="#D0CAB3" d="M537.002-82.329v-14.532h5.595v14.387c0,4.143,2.071,6.285,5.486,6.285s5.485-2.07,5.485-6.104v-14.569
					h5.596v14.352c0,7.701-4.324,11.479-11.154,11.479S537.002-74.844,537.002-82.329z"/>
				<path fill="#D0CAB3" d="M564.869-96.861h5.16l11.916,15.659v-15.659h5.521v25.432h-4.758l-12.316-16.167v16.167h-5.522V-96.861z
					"/>
				<path fill="#D0CAB3" d="M593.574-96.861h9.918c7.992,0,13.516,5.486,13.516,12.644v0.072c0,7.157-5.522,12.716-13.516,12.716
					h-9.918V-96.861z M603.492-76.479c4.578,0,7.666-3.088,7.666-7.593v-0.073c0-4.505-3.088-7.666-7.666-7.666h-4.324v15.332
					H603.492z"/>
				<path fill="#D0CAB3" d="M628.891-97.042h5.158l10.9,25.612h-5.851l-2.325-5.703H626.02l-2.323,5.703h-5.705L628.891-97.042z
					 M634.775-82.074l-3.379-8.247l-3.38,8.247H634.775z"/>
				<path fill="#D0CAB3" d="M651.525-91.702h-7.738v-5.159h21.072v5.159h-7.738v20.272h-5.596V-91.702L651.525-91.702z"/>
				<path fill="#D0CAB3" d="M669.402-96.861h5.596v25.432h-5.596V-96.861z"/>
				<path fill="#D0CAB3" d="M680.23-84.072v-0.073c0-7.229,5.704-13.151,13.553-13.151c7.846,0,13.479,5.849,13.479,13.079v0.072
					c0,7.23-5.705,13.152-13.553,13.152S680.23-76.843,680.23-84.072z M701.412-84.072v-0.073c0-4.359-3.197-7.993-7.703-7.993
					c-4.504,0-7.629,3.562-7.629,7.921v0.072c0,4.36,3.197,7.993,7.703,7.993C698.287-76.152,701.412-79.713,701.412-84.072z"/>
				<path fill="#D0CAB3" d="M712.24-96.861h5.16l11.916,15.659v-15.659h5.521v25.432h-4.758l-12.316-16.167v16.167h-5.522V-96.861z"
					/>
			</g>
		</g>
		<g>
			<path fill="#D0CAB3" d="M393.346-185.163c35.655,0,64.663,29.008,64.663,64.663s-29.008,64.663-64.663,64.663
				c-35.654,0-64.662-29.008-64.662-64.663S357.689-185.163,393.346-185.163 M393.346-194.16c-40.681,0-73.66,32.978-73.66,73.66
				c0,40.681,32.979,73.66,73.66,73.66c40.682,0,73.66-32.979,73.66-73.66C467.006-161.182,434.026-194.16,393.346-194.16
				L393.346-194.16z"/>
		</g>
		<g>
			<path fill="#0177B1" d="M399-160.422c25.836,0,46.855,21.02,46.855,46.856S424.835-66.708,399-66.708
				c-25.838,0-46.857-21.021-46.857-46.857S373.162-160.422,399-160.422 M399-169.419c-30.848,0-55.854,25.007-55.854,55.854
				c0,30.848,25.006,55.854,55.854,55.854c30.846,0,55.854-25.007,55.854-55.854C454.854-144.412,429.846-169.419,399-169.419
				L399-169.419z"/>
		</g>
		<g>
			<path fill="#8F9FA6" d="M392.705-148.88c16.145,0,29.277,13.134,29.277,29.276c0,16.145-13.134,29.278-29.277,29.278
				c-16.145,0-29.277-13.134-29.277-29.278C363.428-135.746,376.561-148.88,392.705-148.88 M392.705-157.876
				c-21.139,0-38.273,17.136-38.273,38.273c0,21.14,17.135,38.275,38.273,38.275c21.138,0,38.273-17.136,38.273-38.275
				C430.979-140.741,413.844-157.876,392.705-157.876L392.705-157.876z"/>
		</g>
	</g>
</g>
</svg>
