<?xml version="1.0" encoding="utf-8"?>
<!-- Generator: Adobe Illustrator 16.0.3, SVG Export Plug-In . SVG Version: 6.00 Build 0)  -->
<!DOCTYPE svg PUBLIC "-//W3C//DTD SVG 1.1//EN" "http://www.w3.org/Graphics/SVG/1.1/DTD/svg11.dtd">
<svg version="1.1" id="Layer_1" xmlns="http://www.w3.org/2000/svg" xmlns:xlink="http://www.w3.org/1999/xlink" x="0px" y="0px"
	 width="1000px" height="208px" viewBox="0 0 1000 208" enable-background="new 0 0 1000 208" xml:space="preserve">
<g>
	<path fill="#C41230" d="M866.65,0h8.6c0.84,1.52,0.37,3.34,0.39,4.99c-1.52,23.03-2.9,46.07-4.3,69.11
		c-0.29,2.94,0.15,6.16-1.46,8.78c-12.43,21.3-24.64,42.73-37.04,64.05c-2.37,3.03-6.16,4.47-9.15,6.78
		c-16.69,11.28-33.42,22.47-50.11,33.74c-3.07,1.95-5.9,4.31-9.26,5.75c-1.38-2.69-3.38-5.1-4.27-8
		C795.38,123.36,831.38,61.88,866.65,0z"/>
	<path fill="#C41230" d="M883.72,0h9.81c5.92,11.35,12.73,22.24,19,33.41c19.52,33.84,39.03,67.68,58.55,101.52
		c9.7,16.53,18.94,33.35,28.92,49.71v1.8c-1.96,2.23-3.21,4.95-4.83,7.41c-21.38-14.3-42.7-28.7-64.08-43.01
		c-1.73-1.21-3.79-2.16-4.84-4.07c-12.4-21.59-24.84-43.16-37.26-64.73c-0.85-1.54-0.68-3.37-0.84-5.06
		C886.8,51.32,885.02,25.67,883.72,0z"/>
	<path fill="#C41230" d="M841.04,163.67c9.95-0.52,19.96,0.17,29.92-0.39c15.05-0.07,30.1-0.01,45.15-0.03
		c2.13-0.14,3.99,1.01,5.84,1.92c22.99,11.72,46.07,23.3,69.04,35.06c-0.07,2.75-2.73,5.1-3.67,7.77h-214.3
		c-1.45-2.6-3.77-5.05-4.17-8c11.39-6.09,23.03-11.76,34.57-17.58C816.03,176.32,828.3,169.49,841.04,163.67z"/>
</g>
<g>
	<g>
		<path fill="#FFFFFF" d="M0,52.8c19.99-0.12,39.98-0.01,59.97-0.05c8.71-0.06,17.49,0.28,26.02,2.15
			c10.94,2.33,21.83,7.42,28.74,16.51c7.68,10.02,9.38,23.41,7.75,35.63c-1.47,11.01-7.58,21.41-16.94,27.51
			c-9.75,6.75-21.97,8.31-33.55,7.51c16.91,18.75,33.7,37.61,50.6,56.37c1.7,1.83,3.34,3.72,4.82,5.74
			c-12.47,0.17-24.93,0.04-37.4,0.07c-17.8-19.63-35.46-39.4-53.21-59.07c-2.34-2.54-4.44-5.33-7.11-7.53
			c-0.4,22.1-0.18,44.22-0.11,66.33c-9.84,0.64-19.72,0.11-29.58,0.27V52.8z M29.56,78.98c-0.13,13.82-0.07,27.65-0.04,41.47
			c12.83,0.14,25.65,0.01,38.48,0.06c6.6-0.16,13.52-0.81,19.4-4.08c4.23-2.31,6.92-6.78,7.69-11.46
			c1.17-6.18,0.36-13.22-4.15-17.93c-5.66-5.78-14.1-7.49-21.88-8C55.9,78.93,42.73,79.05,29.56,78.98z"/>
	</g>
	<g>
		<path fill="#FFFFFF" d="M377.19,52.94c9.85-0.35,19.73-0.23,29.59-0.06c-0.02,12.41-0.11,24.83,0.05,37.24
			c4.91-3.26,10.45-5.55,16.29-6.52c15.07-2.49,31.61-0.22,44.04,9.18c11.58,8.58,18.24,22.91,18.36,37.22
			c-0.01,10.01-0.03,20.02,0.01,30.03c0.07,12.25-4.46,24.66-13.15,33.4c-9.3,9.45-22.57,13.81-35.56,14.57h-11.54
			c-10.61-0.78-20.8-4.75-29.35-11.02c-6.37,2.11-11.47,8.67-18.72,7.14C377.26,153.73,377.3,103.33,377.19,52.94z M423.51,109.53
			c-8.87,1.74-15.95,9.5-16.6,18.55c-0.38,10.63-0.04,21.29-0.17,31.93c-0.1,7.98,4.41,15.99,11.81,19.29
			c8.22,3.86,18.29,3.74,26.46-0.19c6.8-3.35,11.01-10.68,11.21-18.16c0.07-9.99,0-19.98,0.04-29.97
			c0.03-7.04-3.13-14.37-9.25-18.17C440.11,108.45,431.34,107.53,423.51,109.53z"/>
	</g>
	<path fill="#FFFFFF" d="M623.8,52.76c9.8-0.01,19.59-0.03,29.39,0.01c0.1,27.1,0.09,54.21,0.01,81.3
		c7.76-7.85,14.65-16.58,22.09-24.76c7.85-8.93,15.68-17.88,23.56-26.78c11.99-0.15,23.98,0.19,35.96-0.18
		c0.17,1.52-1.15,2.45-1.99,3.5c-16.67,18.77-33.07,37.8-49.83,56.48c13.79,15.73,28,31.09,41.95,46.69
		c4.35,5.1,9.3,9.74,13.29,15.14c-11.77,0.2-23.54,0.02-35.3,0.1c-2.28,0.29-3.27-2.17-4.67-3.46
		c-15.04-16.58-29.87-33.36-45.06-49.8c0.08,17.73,0.05,35.47,0.02,53.2c-9.8,0.09-19.61,0.06-29.41,0.02
		C623.71,153.73,623.72,103.25,623.8,52.76z"/>
	<g>
		<path fill="#FFFFFF" d="M144.57,96.53c10.39-10.07,25.32-14.14,39.5-14.05c13.16-0.31,26.85,2.78,37.49,10.81
			c8.67,6.41,14.46,16.28,16.54,26.8c1.74,8.2,0.99,16.61,1.14,24.93c-0.1,2.86,0.38,5.79-0.4,8.59
			c-26.27-0.17-52.55-0.24-78.81,0.04c-0.4,7.92,0.87,16.77,6.83,22.55c5.38,5.03,13.15,5.92,20.16,6.55
			c7.02-0.09,14.77-0.67,20.39-5.36c2.64-2.09,3.4-5.44,4.45-8.45c8.96-0.32,18-0.32,26.98,0.01c-0.83,9.49-4.22,19.06-11.16,25.8
			c-7.82,7.88-18.97,11.55-29.83,12.46c-7.57-0.19-15.14-0.01-22.71-0.05c-11.61-1.55-23.02-6.51-31.24-15.01
			c-8.56-8.71-13.17-21.01-12.92-33.19c0.04-10,0.01-20.01,0.02-30.01C131.31,116.99,135.77,104.85,144.57,96.53z M165.4,114.38
			c-4.51,4.64-5.46,11.41-5.44,17.6c16.76,0.04,33.52,0.02,50.29,0.01c0.21-5.1-0.48-10.46-3.37-14.79
			c-3.71-6.12-10.93-9.06-17.79-9.71C180.82,106.68,171.35,108.03,165.4,114.38z"/>
	</g>
	<g>
		<path fill="#FFFFFF" d="M268.35,95.39c10.74-9.51,25.53-13.2,39.63-12.92c14.45-0.15,29.66,4.03,40.22,14.32
			c9.73,9.2,14.15,22.99,13.56,36.18c-0.26,6.88,0.48,13.84-0.36,20.67c-26.07-0.37-52.17,0.1-78.24-0.24
			c-1.27,7.34,0.19,15.58,5.05,21.41c5.31,6.25,14.09,7.37,21.78,7.95c7.76-0.22,17.12-0.86,22.11-7.71
			c1.6-1.76,1.23-4.67,2.84-6.26c8.78-0.07,17.56-0.06,26.34,0.01c-0.6,10.11-4.61,20.33-12.26,27.18
			c-7.93,7.15-18.62,10.4-29.07,11.36c-7.27-0.33-14.55-0.27-21.82-0.21c-14.25-1.52-28.22-8.82-36.41-20.78
			c-5.4-7.65-8.05-17.04-8.24-26.36c0.02-10,0-20.01,0.01-30.02C253.66,117.12,258.55,103.99,268.35,95.39z M288.16,114.2
			c-4.53,4.67-5.85,11.5-5.38,17.79c16.69-0.04,33.38,0.12,50.06-0.08c0.12-5.67-0.72-11.75-4.47-16.25
			c-4.3-5.59-11.52-7.99-18.36-8.33C302.3,106.92,293.7,108.35,288.16,114.2z"/>
	</g>
	<g>
		<path fill="#FFFFFF" d="M543.07,83.15c15.24-1.89,31.7-0.49,44.93,7.94c9.6,5.98,16.39,15.97,18.95,26.94
			c2.27,8.81,1.39,17.97,1.56,26.96c-0.19,8.72,0.68,17.56-1.31,26.14c-2.3,11.13-8.92,21.4-18.51,27.6
			c-7.07,4.72-15.39,7.51-23.81,8.43c-6.6-0.07-13.2-0.16-19.79,0.06c-13.64-1.26-27.37-7.45-35.66-18.65
			c-4.79-6.26-7.49-13.9-8.59-21.65c-0.98-6.62-0.47-13.33-0.59-19.99c0.19-10.53-0.92-21.33,2.27-31.55
			c3.01-10.21,9.78-19.3,18.97-24.76C528.01,86.55,535.51,84.26,543.07,83.15z M545.38,109.57c-4.64,1.32-9.12,3.87-11.85,7.95
			c-2.96,4.19-4.02,9.42-4.04,14.48c0.01,8.65,0.01,17.31-0.01,25.97c-0.02,5.5,1.26,11.27,4.84,15.59
			c3.59,4.51,9.17,6.95,14.74,7.87c8.14,1.17,17.22-0.09,23.48-5.83c4.91-4.39,6.73-11.19,6.71-17.58
			c-0.04-8.99,0.06-17.99-0.05-26.99c-0.14-6.49-2.48-13.29-7.78-17.35C564.13,108.1,554.05,107.26,545.38,109.57z"/>
	</g>
</g>
</svg>
