<?xml version="1.0" encoding="utf-8"?>
<!-- Generator: Adobe Illustrator 16.0.3, SVG Export Plug-In . SVG Version: 6.00 Build 0)  -->
<!DOCTYPE svg PUBLIC "-//W3C//DTD SVG 1.1//EN" "http://www.w3.org/Graphics/SVG/1.1/DTD/svg11.dtd">
<svg version="1.1" id="Layer_1" xmlns="http://www.w3.org/2000/svg" xmlns:xlink="http://www.w3.org/1999/xlink" x="0px" y="0px"
	 width="524.898px" height="110.03px" viewBox="0 0 524.898 110.03" enable-background="new 0 0 524.898 110.03"
	 xml:space="preserve">
<g>
	<path fill="#FFFFFF" d="M432.564,56.05c0,1.899,0,13.573,0,18.743c0,22.021-15.05,34.352-36.123,35.018
		c-1.178,0.037-3.28,0.049-4.562,0c-21.063-0.797-36.122-13.131-36.122-35.018c0-2.723,0-14.732,0-18.743
		c0-22.067,15.189-34.396,36.329-35.024c1.081-0.03,3.152-0.029,4.15,0C417.515,21.653,432.564,34.113,432.564,56.05z
		 M392.701,39.271c-8.334,0.5-16.271,4.788-16.271,16.732c0,6.493,0,9.165,0,18.925c0,11.553,7.912,16.111,16.273,16.66
		c0.408,0.031,2.532,0.023,2.92,0c8.214-0.504,16.27-4.943,16.27-16.66c0-4.182,0-8.582,0-18.925
		c0-11.859-8.049-16.226-16.327-16.732C394.482,39.205,393.652,39.214,392.701,39.271z"/>
	<path fill="#FFFFFF" d="M464.317,58.166c0,0,30.97-35.17,32.734-37.169c1.727,0,25.871,0,25.871,0L485.43,63.541l39.469,43.732
		h-26.164l-34.417-38.086v38.086H443.54V0l20.777,0V58.166z"/>
	<path fill="#FFFFFF" d="M170.031,71.242c0,0,0-9.883,0-15.195c0-22.001-15.4-34.305-36.548-35.011c-0.25-0.007-3.655-0.007-3.945,0
		c-21.286,0.706-36.327,13.01-36.327,35.02c0,4.979,0-2.225,0,18.741c0,20.969,15.645,34.08,35.863,35.018
		c2.151,0.098,3.259,0,4.745,0c25.283,0,34.67-12.865,35.856-27.473c-2.914,0-16.307,0-19.018,0
		c-0.567,2.713-1.418,9.838-17.438,9.838c-2.768,0-6.623-0.646-9.434-1.582c-11.85-3.949-9.949-18.551-9.949-19.355
		C114.502,71.242,170.031,71.242,170.031,71.242z M113.771,54.64c0-11.365,7.516-15.761,16.441-16.177
		c0.921-0.04,1.94-0.037,2.762,0c9.057,0.416,16.648,5.167,16.648,16.157c0,0.518,0.002,0.928,0.002,1.492
		c-1.422,0-34.834,0-35.859,0C113.765,55.829,113.771,55.131,113.771,54.64z"/>
	<path fill="#FFFFFF" d="M257.197,71.242c0,0,0-9.883,0-15.195c0-22.001-15.4-34.305-36.547-35.011c-0.25-0.007-3.655-0.007-3.945,0
		c-21.286,0.706-36.327,13.01-36.327,35.02c0,4.979,0-2.225,0,18.741c0,20.969,15.645,34.08,35.863,35.018
		c2.151,0.098,3.259,0,4.745,0c25.283,0,34.67-12.865,35.856-27.473c-2.914,0-16.307,0-19.018,0
		c-0.567,2.713-1.418,9.838-17.438,9.838c-2.768,0-6.623-0.646-9.434-1.582c-11.85-3.949-9.949-18.551-9.949-19.355
		C201.669,71.242,257.197,71.242,257.197,71.242z M200.938,54.64c0-11.365,7.516-15.761,16.441-16.177
		c0.921-0.04,1.94-0.037,2.762,0c9.057,0.416,16.648,5.167,16.648,16.157c0,0.518,0.002,0.928,0.002,1.492
		c-1.422,0-34.834,0-35.859,0C200.932,55.829,200.938,55.131,200.938,54.64z"/>
	<path fill="#FFFFFF" d="M308.936,21.181c-9.627,0-16.203,2.623-19.895,5.731c0-1.594,0-26.912,0-26.912h-20.682v107.273h3.633
		c0,0,9.184-5.184,9.674-5.355c1.344,1.445,10.381,8.096,22.912,8.096c1.6,0,2.973,0.037,4.566,0
		c20.957-0.5,36.119-13.506,36.119-35.018V56.252C345.264,35.176,330.004,21.181,308.936,21.181z M324.529,75.088
		c0,11.723-8.053,16.16-16.271,16.66c-0.387,0.023-2.51,0.031-2.92,0c-8.359-0.549-16.27-5.107-16.27-16.66V56.164
		c0-11.941,7.938-16.23,16.264-16.73c0.955-0.057,1.789-0.066,2.869,0c8.283,0.504,16.328,4.869,16.328,16.73V75.088z"/>
	<path fill="#FFFFFF" d="M90.63,107.273L50.865,62.998c1.984,0.135,3.981,0.213,5.962,0.213c13.638,0,30.597-8.66,30.597-30.435
		C87.424,6.503,65.667,0,46.391,0C27.119,0,0,0,0,0v107.273h20.957l-0.015-47.914l43.086,47.914H90.63z M20.957,18.36
		c0,0,13.506,0.002,25.189,0.002c11.685,0,21.916,3.659,21.916,14.664c0,11.074-6.424,15.093-21.916,15.093
		c-15.491,0-25.189,0-25.189,0V18.36z"/>
</g>
</svg>
