<?xml version="1.0" encoding="utf-8"?>
<!-- Generator: Adobe Illustrator 16.0.3, SVG Export Plug-In . SVG Version: 6.00 Build 0)  -->
<!DOCTYPE svg PUBLIC "-//W3C//DTD SVG 1.1//EN" "http://www.w3.org/Graphics/SVG/1.1/DTD/svg11.dtd">
<svg version="1.1" id="Layer_1" xmlns="http://www.w3.org/2000/svg" xmlns:xlink="http://www.w3.org/1999/xlink" x="0px" y="0px"
	 width="466.221px" height="66.914px" viewBox="0 0 466.221 66.914" enable-background="new 0 0 466.221 66.914"
	 xml:space="preserve">
<g>
	<path fill="#FFFFFF" d="M461.201,13.671c4.945-8.688-3.405-11.163-14.646-11.346C455.93,3.111,462.524,7.641,461.201,13.671"/>
	<path d="M370.46,28.528c64.057-40.741,150.385-42.101,49.565,23.911C452.967,10.393,389.713,20.665,370.46,28.528"/>
	<path fill="#131313" d="M420.047,52.427c32.909-42.034-30.339-31.762-49.56-23.921C434.479-12.18,520.679-13.506,420.047,52.427"/>
	<path fill="#181819" d="M420.059,52.406c32.897-42.036-30.351-31.741-49.532-23.917C434.455-12.133,520.496-13.438,420.059,52.406"
		/>
	<path fill="#222122" d="M420.075,52.395c32.881-42.029-30.379-31.729-49.512-23.917C434.428-12.095,520.341-13.357,420.075,52.395"
		/>
	<path fill="#282728" d="M420.103,52.361c32.844-42.007-30.41-31.708-49.516-23.883C434.4-12.05,520.152-13.307,420.103,52.361"/>
	<path fill="#2B2A2B" d="M420.13,52.345c32.804-42.007-30.455-31.686-49.504-23.883C434.367-12.003,519.998-13.221,420.13,52.345"/>
	<path fill="#2C2B2C" d="M420.158,52.322c32.771-41.99-30.495-31.668-49.494-23.883C434.351-11.976,519.82-13.144,420.158,52.322"/>
	<path fill="#2B2A2A" d="M420.175,52.283c32.748-41.957-30.512-31.629-49.482-23.855C434.317-11.917,519.644-13.091,420.175,52.283"
		/>
	<path fill="#2B2A2A" d="M420.202,52.283c32.721-41.979-30.544-31.629-49.471-23.866C434.289-11.89,519.472-13.008,420.202,52.283"
		/>
	<path fill="#2A2929" d="M420.225,52.262c32.692-41.968-30.571-31.608-49.466-23.867C434.256-11.84,519.3-12.944,420.225,52.262"/>
	<path fill="#272827" d="M420.252,52.229c32.665-41.952-30.604-31.569-49.454-23.844C434.223-11.798,519.123-12.881,420.252,52.229"
		/>
	<path fill="#242625" d="M420.263,52.207c32.645-41.936-30.621-31.553-49.432-23.833C434.195-11.765,518.951-12.803,420.263,52.207"
		/>
	<path fill="#242624" d="M420.285,52.177c32.621-41.933-30.644-31.523-49.416-23.826C434.173-11.712,518.796-12.734,420.285,52.177"
		/>
	<path fill="#212422" d="M420.318,52.167c32.582-41.923-30.688-31.524-49.421-23.823C434.135-11.674,518.613-12.667,420.318,52.167"
		/>
	<path fill="#202522" d="M420.341,52.14c32.561-41.907-30.716-31.497-49.41-23.806C434.117-11.641,518.431-12.587,420.341,52.14"/>
	<path fill="#222524" d="M420.352,52.117c32.55-41.885-30.731-31.485-49.388-23.805C434.067-11.591,518.27-12.521,420.352,52.117"/>
	<path fill="#232724" d="M420.379,52.102c32.518-41.88-30.776-31.47-49.382-23.806C434.046-11.555,518.099-12.44,420.379,52.102"/>
	<path fill="#232725" d="M420.412,52.062c32.482-41.863-30.81-31.442-49.377-23.784C434.007-11.488,517.927-12.377,420.412,52.062"
		/>
	<path fill="#242825" d="M420.435,52.05c32.455-41.851-30.832-31.429-49.371-23.771C433.996-11.452,517.749-12.302,420.435,52.05"/>
	<path fill="#252926" d="M420.451,52.018c32.428-41.841-30.859-31.386-49.339-23.755C433.957-11.424,517.578-12.225,420.451,52.018"
		/>
	<path fill="#252926" d="M420.468,52.007c32.411-41.852-30.882-31.375-49.344-23.761C433.924-11.375,517.406-12.172,420.468,52.007"
		/>
	<path fill="#282B28" d="M420.49,51.984c32.383-41.83-30.904-31.364-49.322-23.755C433.896-11.333,517.229-12.1,420.49,51.984"/>
	<path fill="#2A2C28" d="M420.523,51.962c32.344-41.824-30.954-31.354-49.316-23.745C433.868-11.3,517.074-12.02,420.523,51.962"/>
	<path fill="#2B2D29" d="M420.54,51.94c32.327-41.813-30.971-31.331-49.311-23.733C433.835-11.256,516.896-11.953,420.54,51.94"/>
	<path fill="#2B2D29" d="M420.551,51.908c32.3-41.787-30.987-31.299-49.282-23.712C433.812-11.214,516.72-11.884,420.551,51.908"/>
	<path fill="#2C2E2A" d="M420.596,51.896c32.255-41.797-31.036-31.287-49.294-23.723C433.78-11.164,516.548-11.818,420.596,51.896"
		/>
	<path fill="#2D2E2A" d="M420.601,51.878c32.25-41.785-31.059-31.27-49.261-23.715C433.741-11.125,516.382-11.737,420.601,51.878"/>
	<path fill="#2E2F2B" d="M420.629,51.852c32.217-41.758-31.087-31.242-49.256-23.711C433.719-11.084,516.204-11.668,420.629,51.852"
		/>
	<path fill="#2F312B" d="M420.656,51.818c32.188-41.747-31.114-31.209-49.261-23.689C433.697-11.045,516.033-11.602,420.656,51.818"
		/>
	<path fill="#30302D" d="M420.673,51.796c32.161-41.741-31.143-31.197-49.244-23.684C433.664-11.006,515.861-11.538,420.673,51.796"
		/>
	<path fill="#32322D" d="M420.706,51.773c32.117-41.74-31.176-31.164-49.229-23.666C433.636-10.959,515.7-11.452,420.706,51.773"/>
	<path fill="#33332E" d="M420.723,51.764c32.102-41.736-31.191-31.154-49.204-23.679C433.604-10.915,515.523-11.386,420.723,51.764"
		/>
	<path fill="#343230" d="M420.745,51.74c32.078-41.718-31.227-31.131-49.211-23.667C433.58-10.868,515.346-11.328,420.745,51.74"/>
	<path fill="#35352F" d="M420.756,51.712c32.067-41.702-31.241-31.104-49.184-23.645C433.536-10.835,515.175-11.25,420.756,51.712"
		/>
	<path fill="#363631" d="M420.778,51.691c32.039-41.691-31.286-31.082-49.174-23.65C433.514-10.802,514.997-11.181,420.778,51.691"
		/>
	<path fill="#373731" d="M420.806,51.669c32.013-41.68-31.312-31.07-49.172-23.646C433.48-10.76,514.82-11.106,420.806,51.669"/>
	<path fill="#393732" d="M420.828,51.646c31.979-41.669-31.336-31.048-49.156-23.628C433.447-10.699,514.648-11.04,420.828,51.646"
		/>
	<path fill="#3A3934" d="M420.855,51.625c31.938-41.668-31.38-31.016-49.149-23.623C433.426-10.666,514.482-10.965,420.855,51.625"
		/>
	<path fill="#3B3A34" d="M420.866,51.607c31.924-41.652-31.402-31.009-49.139-23.611C433.387-10.625,514.305-10.882,420.866,51.607"
		/>
	<path fill="#3C3935" d="M420.895,51.585c31.891-41.651-31.431-30.986-49.128-23.601C433.359-10.575,514.134-10.835,420.895,51.585"
		/>
	<path fill="#3D3B35" d="M420.922,51.552c31.862-41.629-31.476-30.953-49.104-23.588C433.331-10.536,513.968-10.763,420.922,51.552"
		/>
	<path fill="#3E3C36" d="M420.955,51.531c31.824-41.62-31.509-30.933-49.111-23.568C433.304-10.5,513.79-10.693,420.955,51.531"/>
	<path fill="#403C37" d="M420.961,51.503c31.818-41.592-31.519-30.917-49.089-23.573C433.276-10.456,513.63-10.608,420.961,51.503"
		/>
	<path fill="#423D38" d="M420.988,51.486c31.791-41.608-31.546-30.899-49.078-23.567C433.248-10.417,513.452-10.552,420.988,51.486"
		/>
	<path fill="#433E39" d="M421.016,51.458c31.765-41.591-31.59-30.872-49.077-23.55C433.215-10.37,513.281-10.478,421.016,51.458"/>
	<path fill="#433F38" d="M421.021,51.441c31.758-41.585-31.597-30.854-49.05-23.544C433.193-10.336,513.109-10.397,421.021,51.441"
		/>
	<path fill="#443F3A" d="M421.061,51.431c31.696-41.586-31.641-30.843-49.051-23.562C433.16-10.287,512.938-10.336,421.061,51.431"
		/>
	<path fill="#46403A" d="M421.071,51.393c31.686-41.553-31.651-30.805-49.028-23.54C433.127-10.239,512.76-10.267,421.071,51.393"/>
	<path fill="#47423B" d="M421.094,51.375c31.657-41.551-31.696-30.788-49.012-23.527C433.094-10.201,512.594-10.195,421.094,51.375"
		/>
	<path fill="#48433C" d="M421.133,51.341c31.612-41.524-31.735-30.753-49.028-23.505C433.055-10.159,512.428-10.131,421.133,51.341"
		/>
	<path fill="#49433C" d="M421.144,51.341c31.598-41.535-31.746-30.753-49.006-23.516C433.043-10.126,512.251-10.057,421.144,51.341"
		/>
	<path fill="#4A443E" d="M421.166,51.309c31.562-41.519-31.772-30.732-48.983-23.489C433.01-10.065,512.085-9.99,421.166,51.309"/>
	<path fill="#4A443E" d="M421.188,51.287c31.541-41.509-31.794-30.71-48.982-23.5C432.977-10.035,511.902-9.924,421.188,51.287"/>
	<path fill="#4D453F" d="M421.21,51.259c31.519-41.502-31.829-30.683-48.962-23.473C432.955-9.99,511.735-9.844,421.21,51.259"/>
	<path fill="#4E473F" d="M421.237,51.236c31.479-41.491-31.856-30.66-48.956-23.473C432.916-9.946,511.559-9.774,421.237,51.236"/>
	<path fill="#4E463F" d="M421.254,51.214c31.464-41.469-31.884-30.638-48.944-23.472C432.889-9.916,511.393-9.702,421.254,51.214"/>
	<path fill="#4F473F" d="M421.287,51.199c31.425-41.465-31.929-30.623-48.95-23.469C432.86-9.871,511.215-9.622,421.287,51.199"/>
	<path fill="#514840" d="M421.287,51.175c31.425-41.452-31.935-30.609-48.917-23.444C432.827-9.819,511.044-9.559,421.287,51.175"/>
	<path fill="#524940" d="M421.326,51.154c31.386-41.442-31.984-30.578-48.923-23.446C432.8-9.796,510.866-9.492,421.326,51.154"/>
	<path fill="#524841" d="M421.359,51.121c31.342-41.432-32.019-30.556-48.906-23.413C432.771-9.735,510.694-9.423,421.359,51.121"/>
	<path fill="#534A41" d="M421.37,51.109c31.32-41.431-32.033-30.544-48.891-23.434C432.733-9.702,510.528-9.351,421.37,51.109"/>
	<path fill="#564A42" d="M421.398,51.076c31.292-41.409-32.073-30.511-48.886-23.401C432.717-9.667,510.362-9.276,421.398,51.076"/>
	<path fill="#564A42" d="M421.42,51.065c31.271-41.415-32.104-30.511-48.878-23.423C432.673-9.611,510.174-9.201,421.42,51.065"/>
	<path fill="#584A42" d="M421.438,51.033c31.254-41.382-32.122-30.479-48.856-23.391C432.656-9.575,510.014-9.14,421.438,51.033"/>
	<path fill="#594B43" d="M421.448,51.021c31.229-41.382-32.141-30.467-48.84-23.401C432.611-9.531,509.842-9.06,421.448,51.021"/>
	<path fill="#5A4C43" d="M421.481,51c31.191-41.376-32.185-30.445-48.836-23.391C432.595-9.503,509.665-8.999,421.481,51"/>
	<path fill="#5B4E44" d="M421.509,50.966c31.165-41.359-32.211-30.4-48.822-23.375C432.567-9.448,509.499-8.924,421.509,50.966"/>
	<path fill="#5B4D44" d="M421.515,50.949c31.153-41.343-32.217-30.395-48.789-23.368C432.539-9.406,509.321-8.85,421.515,50.949"/>
	<path fill="#5D4F44" d="M421.548,50.916c31.109-41.332-32.25-30.361-48.796-23.352C432.501-9.356,509.139-8.789,421.548,50.916"/>
	<path fill="#5E4E44" d="M421.575,50.904c31.082-41.331-32.294-30.35-48.801-23.351C432.484-9.32,508.979-8.714,421.575,50.904"/>
	<path fill="#5E4F45" d="M421.598,50.876c31.061-41.309-32.327-30.333-48.784-23.339C432.439-9.276,508.807-8.645,421.598,50.876"/>
	<path fill="#5F4F45" d="M421.62,50.855c31.021-41.293-32.35-30.312-48.773-23.33C432.418-9.237,508.635-8.567,421.62,50.855"/>
	<path fill="#615145" d="M421.647,50.833c30.997-41.298-32.395-30.291-48.764-23.318C432.379-9.196,508.463-8.509,421.647,50.833"/>
	<path fill="#625045" d="M421.664,50.811c30.971-41.287-32.41-30.268-48.746-23.307C432.352-9.151,508.28-8.432,421.664,50.811"/>
	<path fill="#635246" d="M421.681,50.789c30.954-41.275-32.427-30.256-48.734-23.302C432.318-9.115,508.12-8.362,421.681,50.789"/>
	<path fill="#635146" d="M421.697,50.766c30.938-41.264-32.455-30.233-48.714-23.301C432.296-9.06,507.938-8.296,421.697,50.766"/>
	<path fill="#655347" d="M421.725,50.744c30.91-41.253-32.493-30.207-48.706-23.279C432.27-9.027,507.782-8.227,421.725,50.744"/>
	<path fill="#665248" d="M421.747,50.732c30.888-41.253-32.521-30.206-48.696-23.29C432.235-8.974,507.6-8.152,421.747,50.732"/>
	<path fill="#665248" d="M421.77,50.705c30.865-41.237-32.548-30.179-48.689-23.272C432.202-8.941,507.434-8.074,421.77,50.705"/>
	<path fill="#685448" d="M421.797,50.684c30.815-41.227-32.582-30.157-48.68-23.274C432.19-8.908,507.268-8.005,421.797,50.684"/>
	<path fill="#695447" d="M421.824,50.656c30.783-41.221-32.609-30.13-48.668-23.258C432.141-8.869,507.084-7.944,421.824,50.656"/>
	<path fill="#6A5447" d="M421.853,50.645c30.756-41.215-32.638-30.118-48.668-23.263C432.113-8.811,506.913-7.87,421.853,50.645"/>
	<path fill="#6A5447" d="M421.869,50.611c30.738-41.193-32.677-30.085-48.652-23.252C432.086-8.783,506.741-7.8,421.869,50.611"/>
	<path fill="#6C5548" d="M421.88,50.589c30.722-41.188-32.688-30.062-48.629-23.235C432.058-8.736,506.569-7.723,421.88,50.589"/>
	<path fill="#6D5548" d="M421.913,50.556c30.688-41.16-32.737-30.041-48.629-23.213C432.024-8.686,506.387-7.659,421.913,50.556"/>
	<path fill="#6D5548" d="M421.93,50.539c30.661-41.147-32.754-30.023-48.618-23.212C431.997-8.653,506.227-7.582,421.93,50.539"/>
	<path fill="#705649" d="M421.952,50.522c30.639-41.137-32.787-30.018-48.602-23.207C431.985-8.611,506.043-7.523,421.952,50.522"/>
	<path fill="#705649" d="M421.979,50.505c30.601-41.143-32.813-30-48.591-23.195C431.931-8.567,505.883-7.451,421.979,50.505"/>
	<path fill="#705648" d="M421.996,50.473c30.583-41.126-32.837-29.968-48.562-23.196C431.908-8.52,505.717-7.382,421.996,50.473"/>
	<path fill="#715749" d="M422.023,50.451c30.551-41.116-32.87-29.947-48.573-23.186C431.881-8.493,505.534-7.313,422.023,50.451"/>
	<path fill="#735649" d="M422.041,50.423c30.521-41.099-32.888-29.918-48.554-23.168C431.848-8.442,505.362-7.225,422.041,50.423"/>
	<path fill="#74584A" d="M422.068,50.412c30.482-41.099-32.915-29.902-48.552-23.18C431.819-8.404,505.185-7.166,422.068,50.412"/>
	<path fill="#745749" d="M422.096,50.378c30.456-41.087-32.952-29.875-48.546-23.157C431.798-8.351,505.024-7.094,422.096,50.378"/>
	<path fill="#765749" d="M422.102,50.367c30.45-41.076-32.976-29.863-48.514-23.157C431.765-8.318,504.848-7.02,422.102,50.367"/>
	<path fill="#775A4A" d="M422.135,50.346C452.552,9.28,389.121,20.505,373.621,27.2C431.742-8.271,504.676-6.956,422.135,50.346"/>
	<path fill="#785849" d="M422.151,50.324c30.399-41.066-33.043-29.831-48.491-23.125C431.692-8.227,504.515-6.878,422.151,50.324"/>
	<path fill="#785849" d="M422.185,50.296c30.361-41.039-33.08-29.803-48.484-23.12C431.67-8.188,504.327-6.814,422.185,50.296"/>
	<path fill="#78594A" d="M422.201,50.262c30.323-41.015-33.108-29.769-48.47-23.107C431.648-8.152,504.155-6.743,422.201,50.262"/>
	<path fill="#7B5A4B" d="M422.234,50.251c30.283-41.026-33.136-29.764-48.485-23.113C431.62-8.107,503.994-6.668,422.234,50.251"/>
	<path fill="#7B5A4B" d="M422.24,50.234c30.277-41.021-33.142-29.747-48.447-23.107C431.582-8.063,503.823-6.604,422.24,50.234"/>
	<path fill="#7D5A4B" d="M422.262,50.207c30.257-40.999-33.186-29.725-48.436-23.097C431.56-8.03,503.646-6.538,422.262,50.207"/>
	<path fill="#7D5A4B" d="M422.295,50.18c30.213-40.988-33.219-29.698-48.43-23.075C431.531-7.972,503.474-6.474,422.295,50.18"/>
	<path fill="#7D5A4A" d="M422.323,50.158c30.185-40.978-33.247-29.67-48.432-23.07C431.487-7.944,503.297-6.402,422.323,50.158"/>
	<path fill="#805C4B" d="M422.334,50.146c30.174-40.978-33.263-29.659-48.408-23.069C431.46-7.892,503.131-6.316,422.334,50.146"/>
	<path fill="#805C4B" d="M422.356,50.125c30.14-40.966-33.303-29.637-48.393-23.063C431.427-7.858,502.959-6.247,422.356,50.125"/>
	<path fill="#805C4B" d="M422.378,50.085c30.118-40.943-33.322-29.598-48.386-23.052C431.404-7.82,502.776-6.181,422.378,50.085"/>
	<path fill="#815B4A" d="M422.395,50.08c30.103-40.955-33.352-29.592-48.368-23.058C431.377-7.772,502.61-6.106,422.395,50.08"/>
	<path fill="#815B4A" d="M422.434,50.041c30.059-40.921-33.391-29.559-48.374-23.019C431.344-7.723,502.449-6.04,422.434,50.041"/>
	<path fill="#815B4A" d="M422.444,50.019C452.491,9.114,389.049,20.482,374.104,27C431.315-7.689,502.271-5.97,422.444,50.019"/>
	<path fill="#825C4B" d="M422.473,49.992c30.014-40.895-33.43-29.521-48.342-23.015C431.288-7.648,502.095-5.89,422.473,49.992"/>
	<path fill="#845D4B" d="M422.494,49.975c29.975-40.894-33.462-29.503-48.341-22.997C431.261-7.604,501.924-5.823,422.494,49.975"/>
	<path fill="#855C4A" d="M422.506,49.958c29.963-40.89-33.489-29.487-48.309-22.993C431.232-7.565,501.746-5.754,422.506,49.958"/>
	<path fill="#855C4A" d="M422.539,49.925c29.93-40.866-33.529-29.454-48.304-22.98C431.194-7.523,501.58-5.685,422.539,49.925"/>
	<path fill="#865D4A" d="M422.562,49.914c29.896-40.877-33.558-29.438-48.304-22.97C431.172-7.479,501.403-5.619,422.562,49.914"/>
	<path fill="#865C4A" d="M422.583,49.892c29.875-40.855-33.578-29.42-48.286-22.986C431.145-7.432,501.236-5.544,422.583,49.892"/>
	<path fill="#895D4B" d="M422.611,49.869c29.847-40.844-33.606-29.404-48.275-22.969C431.111-7.393,501.06-5.483,422.611,49.869"/>
	<path fill="#895E4A" d="M422.628,49.841c29.824-40.827-33.635-29.375-48.266-22.958C431.078-7.349,500.895-5.408,422.628,49.841"/>
	<path fill="#895D4A" d="M422.639,49.814c29.813-40.812-33.649-29.354-48.253-22.942C431.056-7.308,500.717-5.336,422.639,49.814"/>
	<path fill="#8A5E4A" d="M422.678,49.802c29.765-40.821-33.688-29.342-48.241-22.94C431.021-7.269,500.545-5.256,422.678,49.802"/>
	<path fill="#8A5E4A" d="M422.699,49.781c29.742-40.8-33.728-29.321-48.23-22.937C430.989-7.21,500.384-5.198,422.699,49.781"/>
	<path fill="#8C5F4A" d="M422.711,49.764c29.73-40.805-33.751-29.304-48.215-22.936C430.961-7.183,500.201-5.12,422.711,49.764"/>
	<path fill="#8C5D48" d="M422.744,49.736c29.686-40.783-33.795-29.276-48.22-22.914C430.928-7.149,500.029-5.051,422.744,49.736"/>
	<path fill="#8D5E49" d="M422.755,49.714C452.43,8.937,388.949,20.455,374.563,26.8C430.906-7.097,499.858-4.971,422.755,49.714"/>
	<path fill="#8F5E49" d="M422.782,49.691c29.631-40.777-33.85-29.237-48.188-22.902C430.878-7.053,499.681-4.91,422.782,49.691"/>
	<path fill="#8F5D48" d="M422.815,49.669c29.593-40.754-33.883-29.209-48.188-22.902C430.845-7.014,499.525-4.835,422.815,49.669"/>
	<path fill="#905E49" d="M422.844,49.648c29.553-40.74-33.922-29.188-48.176-22.881C430.817-6.961,499.338-4.769,422.844,49.648"/>
	<path fill="#905E49" d="M422.86,49.615c29.536-40.717-33.938-29.155-48.166-22.881C430.79-6.934,499.172-4.699,422.86,49.615"/>
	<path fill="#935F4A" d="M422.877,49.582c29.52-40.694-33.972-29.122-48.144-22.858C430.757-6.884,499.005-4.619,422.877,49.582"/>
	<path fill="#935F4A" d="M422.898,49.57c29.498-40.7-33.993-29.122-48.12-22.858C430.729-6.851,498.828-4.563,422.898,49.57"/>
	<path fill="#935D49" d="M422.915,49.559c29.471-40.7-34.016-29.11-48.119-22.847C430.685-6.804,498.65-4.483,422.915,49.559"/>
	<path fill="#945E47" d="M422.938,49.537c29.448-40.695-34.038-29.087-48.091-22.848C430.657-6.756,498.484-4.422,422.938,49.537"/>
	<path fill="#945E47" d="M422.96,49.503c29.42-40.677-34.07-29.061-48.098-22.824C430.641-6.718,498.308-4.353,422.96,49.503"/>
	<path fill="#955E47" d="M422.993,49.492c29.387-40.667-34.104-29.049-48.081-22.825C430.612-6.673,498.142-4.268,422.993,49.492"/>
	<path fill="#955E47" d="M423.01,49.458c29.354-40.644-34.127-29.021-48.069-22.812C430.568-6.635,497.953-4.207,423.01,49.458"/>
	<path fill="#975E47" d="M423.031,49.438c29.332-40.645-34.148-29-48.06-22.809C430.54-6.587,497.787-4.137,423.031,49.438"/>
	<path fill="#985F48" d="M423.054,49.425c29.311-40.632-34.188-28.987-48.059-22.796C430.513-6.56,497.626-4.071,423.054,49.425"/>
	<path fill="#985F47" d="M423.082,49.393c29.276-40.611-34.216-28.955-48.043-22.786C430.485-6.513,497.46-3.991,423.082,49.393"/>
	<path fill="#9A5E47" d="M423.109,49.371c29.249-40.612-34.255-28.928-48.037-22.774C430.452-6.469,497.283-3.921,423.109,49.371"/>
	<path fill="#9B5E47" d="M423.126,49.343c29.232-40.594-34.275-28.899-48.021-22.764C430.424-6.418,497.105-3.849,423.126,49.343"/>
	<path fill="#9B5E47" d="M423.137,49.326c29.217-40.594-34.304-28.916-47.991-22.77C430.407-6.385,496.935-3.794,423.137,49.326"/>
	<path fill="#9C5D47" d="M423.165,49.311c29.188-40.59-34.338-28.9-47.993-22.776C430.369-6.344,496.763-3.708,423.165,49.311"/>
	<path fill="#9C5D46" d="M423.192,49.283c29.148-40.568-34.365-28.862-47.998-22.749C430.341-6.3,496.58-3.639,423.192,49.283"/>
	<path fill="#9E5E46" d="M423.209,49.259c29.133-40.543-34.394-28.837-47.972-22.747C430.297-6.252,496.431-3.578,423.209,49.259"/>
	<path fill="#9E5D46" d="M423.242,49.244c29.1-40.544-34.433-28.823-47.954-22.743C430.274-6.214,496.253-3.503,423.242,49.244"/>
	<path fill="#9F5D45" d="M423.253,49.216C452.342,8.671,388.812,20.41,375.3,26.49C430.247-6.169,496.064-3.423,423.253,49.216"/>
	<path fill="#9F5D45" d="M423.286,49.193c29.05-40.534-34.48-28.783-47.948-22.714C430.214-6.128,495.91-3.362,423.286,49.193"/>
	<path fill="#A15E45" d="M423.298,49.183c29.021-40.528-34.51-28.772-47.915-22.714C430.191-6.095,495.732-3.293,423.298,49.183"/>
	<path fill="#A05C45" d="M423.325,49.139c28.982-40.496-34.537-28.729-47.922-22.687C430.164-6.05,495.556-3.215,423.325,49.139"/>
	<path fill="#A35D44" d="M423.348,49.126c28.961-40.511-34.56-28.716-47.915-22.691C430.131-6.009,495.39-3.157,423.348,49.126"/>
	<path fill="#A35D44" d="M423.375,49.105c28.922-40.49-34.599-28.707-47.894-22.687C430.098-5.97,495.212-3.074,423.375,49.105"/>
	<path fill="#A35D44" d="M423.397,49.083c28.889-40.468-34.627-28.685-47.883-22.67C430.064-5.926,495.035-3.01,423.397,49.083"/>
	<path fill="#A55C43" d="M423.414,49.05c28.872-40.458-34.644-28.651-47.871-22.659C430.036-5.884,494.869-2.941,423.414,49.05"/>
	<path fill="#A55C43" d="M423.431,49.027c28.851-40.445-34.67-28.628-47.854-22.642C430.009-5.846,494.697-2.858,423.431,49.027"/>
	<path fill="#A55C43" d="M423.458,49.005c28.822-40.445-34.697-28.606-47.85-22.636C429.98-5.788,494.525-2.794,423.458,49.005"/>
	<path fill="#A65C43" d="M423.48,48.983c28.795-40.423-34.73-28.584-47.839-22.621C429.953-5.754,494.337-2.723,423.48,48.983"/>
	<path fill="#A85B43" d="M423.52,48.96c28.757-40.412-34.78-28.562-47.844-22.636C429.926-5.71,494.182-2.653,423.52,48.96"/>
	<path fill="#A85B43" d="M423.53,48.951c28.732-40.413-34.793-28.574-47.815-22.622C429.898-5.674,494.011-2.589,423.53,48.951"/>
	<path fill="#A85B43" d="M423.558,48.927c28.706-40.4-34.836-28.55-47.799-22.625C429.859-5.629,493.833-2.512,423.558,48.927"/>
	<path fill="#A95C41" d="M423.58,48.906c28.684-40.391-34.863-28.529-47.8-22.604C429.832-5.591,493.662-2.443,423.58,48.906"/>
	<path fill="#A95A40" d="M423.591,48.873C452.258,8.494,388.7,20.377,375.81,26.28C429.81-5.544,493.49-2.374,423.591,48.873"/>
	<path fill="#AA5A40" d="M423.619,48.851c28.639-40.357-34.919-28.462-47.771-22.582C429.771-5.5,493.329-2.302,423.619,48.851"/>
	<path fill="#AA5A40" d="M423.636,48.833c28.622-40.356-34.941-28.445-47.761-22.586C429.749-5.466,493.152-2.232,423.636,48.833"/>
	<path fill="#AC5B41" d="M423.652,48.812c28.595-40.356-34.964-28.435-47.744-22.576C429.721-5.425,492.986-2.166,423.652,48.812"/>
	<path fill="#AC5B41" d="M423.68,48.789c28.567-40.345-34.991-28.412-47.731-22.576C429.688-5.38,492.809-2.097,423.68,48.789"/>
	<path fill="#AD5A40" d="M423.696,48.773c28.551-40.335-35.024-28.396-47.727-22.577C429.66-5.336,492.632-2.025,423.696,48.773"/>
	<path fill="#AF5A3F" d="M423.735,48.74c28.501-40.313-35.059-28.363-47.711-22.549C429.633-5.289,492.466-1.95,423.735,48.74"/>
	<path fill="#AE583F" d="M423.752,48.716c28.479-40.3-35.085-28.339-47.698-22.524C429.594-5.25,492.288-1.881,423.752,48.716"/>
	<path fill="#AE583F" d="M423.769,48.695c28.451-40.291-35.102-28.318-47.688-22.521C429.571-5.206,492.111-1.809,423.769,48.695"/>
	<path fill="#AE583E" d="M423.796,48.673c28.424-40.291-35.141-28.296-47.684-22.515C429.538-5.165,491.945-1.74,423.796,48.673"/>
	<path fill="#B15A3E" d="M423.818,48.646c28.39-40.263-35.169-28.269-47.673-22.487C429.505-5.131,491.768-1.667,423.818,48.646"/>
	<path fill="#B1573E" d="M423.84,48.634c28.368-40.284-35.19-28.257-47.653-22.504C429.482-5.079,491.596-1.593,423.84,48.634"/>
	<path fill="#B1573C" d="M423.868,48.612c28.34-40.263-35.219-28.235-47.655-22.51C429.455-5.045,491.419-1.523,423.868,48.612"/>
	<path fill="#B3583D" d="M423.885,48.583c28.312-40.246-35.251-28.207-47.639-22.492C429.422-4.996,491.259-1.463,423.885,48.583"/>
	<path fill="#B4563C" d="M423.906,48.574c28.291-40.247-35.272-28.197-47.621-22.494C429.389-4.954,491.075-1.388,423.906,48.574"/>
	<path fill="#B4563B" d="M423.929,48.541c28.264-40.225-35.316-28.186-47.609-22.472C429.355-4.91,490.898-1.327,423.929,48.541"/>
	<path fill="#B4563B" d="M423.956,48.518c28.235-40.201-35.355-28.163-47.615-22.459C429.328-4.871,490.738-1.252,423.956,48.518"/>
	<path fill="#B5553B" d="M423.973,48.496c28.215-40.202-35.366-28.141-47.594-22.449C429.289-4.835,490.571-1.172,423.973,48.496"/>
	<path fill="#B5553B" d="M423.989,48.462c28.196-40.179-35.389-28.107-47.582-22.438C429.271-4.791,490.389-1.1,423.989,48.462"/>
	<path fill="#B7553B" d="M424.023,48.462c28.162-40.19-35.423-28.107-47.566-22.448C429.239-4.752,490.223-1.042,424.023,48.462"/>
	<path fill="#B8563C" d="M424.045,48.43c28.125-40.168-35.45-28.075-47.562-22.443C429.217-4.699,490.04-0.959,424.045,48.43"/>
	<path fill="#B8543A" d="M424.073,48.402c28.091-40.152-35.489-28.047-47.557-22.427C429.189-4.655,489.874-0.9,424.073,48.402"/>
	<path fill="#B8543A" d="M424.09,48.38c28.074-40.158-35.512-28.025-47.539-22.421C429.156-4.622,489.719-0.815,424.09,48.38"/>
	<path fill="#BA543A" d="M424.117,48.352c28.041-40.14-35.539-28.008-47.533-22.398C429.129-4.58,489.536-0.749,424.117,48.352"/>
	<path fill="#B95239" d="M424.134,48.335c28.024-40.129-35.572-27.992-47.506-22.394C429.09-4.542,489.359-0.69,424.134,48.335"/>
	<path fill="#BB533A" d="M424.156,48.318c28.002-40.124-35.595-27.975-47.507-22.382C429.062-4.5,489.193-0.61,424.156,48.318"/>
	<path fill="#BB5339" d="M424.167,48.285c27.975-40.096-35.616-27.941-47.482-22.365C429.034-4.461,489.021-0.549,424.167,48.285"/>
	<path fill="#BB5138" d="M424.206,48.264c27.936-40.08-35.655-27.92-47.482-22.366C429.007-4.417,488.85-0.469,424.206,48.264"/>
	<path fill="#BE5139" d="M424.233,48.251c27.907-40.09-35.694-27.918-47.483-22.364C428.968-4.37,488.667-0.396,424.233,48.251"/>
	<path fill="#BE5137" d="M424.244,48.23c27.887-40.091-35.722-27.898-47.444-22.36C428.935-4.326,488.512-0.333,424.244,48.23"/>
	<path fill="#BD4F37" d="M424.261,48.197c27.87-40.063-35.738-27.854-47.443-22.344C428.918-4.276,488.335-0.261,424.261,48.197"/>
	<path fill="#BF5037" d="M424.289,48.186c27.842-40.068-35.767-27.842-47.429-22.349C428.885-4.24,488.146-0.187,424.289,48.186"/>
	<path fill="#BF5037" d="M424.316,48.146c27.804-40.041-35.806-27.803-47.435-22.332C428.862-4.207,487.991-0.123,424.316,48.146"/>
	<path fill="#BF4E37" d="M424.339,48.137c27.771-40.031-35.826-27.793-47.417-22.322C428.818-4.157,487.809-0.051,424.339,48.137"/>
	<path fill="#C04E36" d="M424.344,48.113c27.766-40.029-35.854-27.77-47.389-22.31C428.802-4.115,487.643,0.024,424.344,48.113"/>
	<path fill="#C24C35" d="M424.377,48.091c27.727-40.007-35.888-27.758-47.39-22.298C428.763-4.082,487.471,0.104,424.377,48.091"/>
	<path fill="#C24C34" d="M424.399,48.064c27.704-39.992-35.91-27.743-47.367-22.283C428.741-4.032,487.294,0.166,424.399,48.064"/>
	<path fill="#C24C35" d="M424.427,48.052c27.665-40.001-35.947-27.73-47.378-22.298C428.708-3.991,487.122,0.237,424.427,48.052"/>
	<path fill="#C34C35" d="M424.443,48.009c27.647-39.98-35.966-27.687-47.361-22.261C428.663-3.946,486.95,0.301,424.443,48.009"/>
	<path fill="#C34A34" d="M424.46,47.998c27.632-39.97-35.986-27.675-47.345-22.276C428.642-3.905,486.778,0.381,424.46,47.998"/>
	<path fill="#C54A34" d="M424.499,47.986c27.593-39.98-36.037-27.665-47.352-22.282C428.613-3.866,486.607,0.448,424.499,47.986"/>
	<path fill="#C54A33" d="M424.516,47.953c27.565-39.958-36.06-27.63-47.316-22.249C428.597-3.827,486.446,0.511,424.516,47.953"/>
	<path fill="#C44833" d="M424.538,47.932c27.543-39.937-36.087-27.626-47.312-22.244C428.553-3.783,486.274,0.583,424.538,47.932"/>
	<path fill="#C64832" d="M424.565,47.91c27.51-39.932-36.121-27.604-47.312-22.234C428.541-3.741,486.098,0.642,424.565,47.91"/>
	<path fill="#C64832" d="M424.582,47.887c27.493-39.914-36.138-27.582-47.289-22.222C428.508-3.697,485.932,0.728,424.582,47.887"/>
	<path fill="#C74631" d="M424.604,47.871c27.449-39.903-36.175-27.561-47.277-22.228C428.464-3.65,485.749,0.794,424.604,47.871"/>
	<path fill="#C74631" d="M424.621,47.843c27.427-39.892-36.192-27.532-47.263-22.216C428.431-3.622,485.571,0.869,424.621,47.843"/>
	<path fill="#C94631" d="M424.644,47.826c27.404-39.892-36.236-27.516-47.25-22.21C428.403-3.583,485.399,0.938,424.644,47.826"/>
	<path fill="#C94630" d="M424.677,47.798c27.371-39.88-36.271-27.487-47.234-22.193C428.381-3.531,485.233,1.01,424.677,47.798"/>
	<path fill="#C84430" d="M424.704,47.787c27.338-39.879-36.298-27.481-47.245-22.205C428.348-3.487,485.067,1.073,424.704,47.787"/>
	<path fill="#CA442E" d="M424.715,47.753c27.327-39.857-36.313-27.455-47.217-22.193C428.32-3.445,484.901,1.146,424.715,47.753"/>
	<path fill="#CA442E" d="M424.731,47.732c27.294-39.848-36.33-27.433-47.201-22.172C428.292-3.412,484.725,1.226,424.731,47.732"/>
	<path fill="#CA442E" d="M424.76,47.699c27.267-39.815-36.364-27.4-47.2-22.15C428.265-3.362,484.541,1.295,424.76,47.699"/>
	<path fill="#CB422E" d="M424.781,47.682c27.232-39.831-36.402-27.382-47.185-22.155C428.23-3.31,484.375,1.361,424.781,47.682"/>
	<path fill="#CD422E" d="M424.804,47.666c27.211-39.814-36.431-27.377-47.173-22.139C428.198-3.282,484.204,1.439,424.804,47.666"/>
	<path fill="#CD422D" d="M424.831,47.638c27.173-39.797-36.458-27.35-47.167-22.122C428.171-3.232,484.037,1.505,424.831,47.638"/>
	<path fill="#CD3F2D" d="M424.848,47.615c27.156-39.797-36.479-27.327-47.155-22.122C428.143-3.204,483.86,1.566,424.848,47.615"/>
	<path fill="#CE3F2B" d="M424.87,47.587c27.134-39.78-36.52-27.299-47.146-22.104C428.121-3.157,483.694,1.649,424.87,47.587"/>
	<path fill="#CE3F2B" d="M424.897,47.566c27.105-39.771-36.547-27.278-47.135-22.106C428.082-3.107,483.506,1.705,424.897,47.566"/>
	<path fill="#D0402C" d="M424.92,47.555c27.072-39.77-36.573-27.267-47.112-22.105C428.055-3.066,483.351,1.782,424.92,47.555"/>
	<path fill="#D0402A" d="M424.947,47.521c27.045-39.748-36.603-27.239-47.117-22.089C428.026-3.016,483.174,1.86,424.947,47.521"/>
	<path fill="#D13D2A" d="M424.964,47.5c27.023-39.731-36.63-27.229-47.102-22.079C427.993-2.983,482.985,1.915,424.964,47.5"/>
	<path fill="#D13D2A" d="M424.98,47.477c27.007-39.73-36.663-27.199-47.067-22.072C427.971-2.947,482.819,2.004,424.98,47.477"/>
	<path fill="#D13D2A" d="M425.009,47.466c26.979-39.72-36.691-27.188-47.068-22.072C427.938-2.897,482.659,2.07,425.009,47.466"/>
	<path fill="#D23A29" d="M425.036,47.438c26.938-39.709-36.725-27.167-47.079-22.056C427.904-2.864,482.471,2.148,425.036,47.438"/>
	<path fill="#D23A29" d="M425.047,47.416c26.924-39.698-36.739-27.145-47.045-22.055C427.871-2.822,482.299,2.203,425.047,47.416"/>
	<path fill="#D23A27" d="M425.069,47.389c26.9-39.687-36.773-27.117-47.034-22.039C427.85-2.783,482.139,2.281,425.069,47.389"/>
	<path fill="#D33827" d="M425.098,47.373c26.867-39.677-36.808-27.102-47.028-22.045C427.816-2.728,481.961,2.341,425.098,47.373"/>
	<path fill="#D33827" d="M425.131,47.355c26.834-39.676-36.847-27.089-47.041-22.028C427.788-2.692,481.784,2.414,425.131,47.355"/>
	<path fill="#D53826" d="M425.142,47.322c26.802-39.659-36.856-27.056-47.007-22.017C427.767-2.647,481.623,2.491,425.142,47.322"/>
	<path fill="#D53826" d="M425.164,47.289c26.778-39.625-36.892-27.022-46.985-22.005C427.722-2.606,481.451,2.552,425.164,47.289"/>
	<path fill="#D43526" d="M425.186,47.289c26.758-39.647-36.911-27.022-46.983-22.005C427.7-2.567,481.274,2.624,425.186,47.289"/>
	<path fill="#D63526" d="M425.208,47.255c26.734-39.614-36.936-26.995-46.975-22C427.667-2.518,481.098,2.702,425.208,47.255"/>
	<path fill="#D73526" d="M425.241,47.229c26.696-39.61-36.984-26.962-46.969-21.979C427.639-2.481,480.938,2.768,425.241,47.229"/>
	<path fill="#D73526" d="M425.252,47.205c26.68-39.598-37.001-26.944-46.951-21.972C427.617-2.448,480.76,2.834,425.252,47.205"/>
	<path fill="#D73224" d="M425.28,47.184c26.65-39.587-37.029-26.923-46.93-21.961C427.578-2.393,480.582,2.912,425.28,47.184"/>
	<path fill="#D93224" d="M425.302,47.167c26.624-39.583-37.072-26.907-46.929-21.957C427.551-2.357,480.416,2.989,425.302,47.167"/>
	<path fill="#D93224" d="M425.33,47.15c26.579-39.587-37.106-26.89-46.925-21.961C427.522-2.312,480.239,3.045,425.33,47.15"/>
	<path fill="#D93224" d="M425.341,47.111c26.568-39.554-37.117-26.851-46.906-21.928C427.495-2.274,480.062,3.122,425.341,47.111"/>
	<path fill="#D93224" d="M425.368,47.101c26.536-39.56-37.15-26.84-46.896-21.934C427.467-2.227,479.901,3.2,425.368,47.101"/>
	<path fill="#DA2F24" d="M425.391,47.078c26.515-39.542-37.178-26.812-46.885-21.928C427.417-2.177,479.729,3.261,425.391,47.078"/>
	<path fill="#DA2F24" d="M425.424,47.057c26.476-39.532-37.223-26.807-46.885-21.929C427.4-2.155,479.553,3.355,425.424,47.057"/>
	<path fill="#DA2F24" d="M425.435,47.044c26.465-39.537-37.238-26.794-46.873-21.917C427.373-2.108,479.375,3.41,425.435,47.044"/>
	<path fill="#DB2B24" d="M425.451,47.023C451.888,7.502,388.19,20.25,378.61,25.095C427.346-2.058,479.215,3.471,425.451,47.023"/>
	<path fill="#DB2B24" d="M425.479,46.99c26.408-39.499-37.288-26.741-46.841-21.906C427.312-2.022,479.043,3.554,425.479,46.99"/>
	<path fill="#DD2B24" d="M425.507,46.968c26.381-39.487-37.322-26.724-46.835-21.884C427.284-1.978,478.86,3.609,425.507,46.968"/>
	<path fill="#DE2B24" d="M425.529,46.939c26.347-39.481-37.355-26.695-46.824-21.878C427.257-1.934,478.688,3.693,425.529,46.939"/>
	<path fill="#DE2B24" d="M425.557,46.923c26.319-39.465-37.389-26.673-46.817-21.874C427.224-1.886,478.527,3.765,425.557,46.923"/>
	<path fill="#DE2725" d="M425.568,46.878c26.303-39.431-37.4-26.628-46.786-21.838C427.196-1.848,478.345,3.809,425.568,46.878"/>
	<path fill="#DF2625" d="M425.585,46.878c26.286-39.447-37.422-26.641-46.786-21.866C427.168-1.809,478.179,3.903,425.585,46.878"/>
	<path fill="#DF2225" d="M425.623,46.857c26.248-39.449-37.478-26.625-46.779-21.846C427.135-1.767,478.008,3.97,425.623,46.857"/>
	<path fill="#E12124" d="M425.635,46.824c26.221-39.416-37.493-26.591-46.764-21.833C427.097-1.717,477.819,4.042,425.635,46.824"/>
	<path fill="#E12124" d="M425.668,46.802c26.188-39.417-37.526-26.569-46.765-21.818C427.085-1.684,477.664,4.113,425.668,46.802"/>
	<path fill="#E12126" d="M425.685,46.779c26.171-39.404-37.55-26.546-46.74-21.812C427.052-1.643,477.48,4.169,425.685,46.779"/>
	<path fill="#E01C25" d="M425.706,46.757c26.137-39.382-37.588-26.524-46.719-21.795C427.008-1.593,477.299,4.252,425.706,46.757"/>
	<path fill="#E01C25" d="M425.734,46.74c26.107-39.387-37.622-26.507-46.72-21.795C426.979-1.565,477.154,4.318,425.734,46.74"/>
	<path fill="#E21C25" d="M379.031,24.929c47.915-26.43,97.939-20.544,46.72,21.783C451.843,7.342,388.112,20.216,379.031,24.929"/>
	<path fill="#FFFFFF" d="M462.115,13.267c4.973-8.76-3.461-11.247-14.764-11.44C456.776,2.646,463.438,7.187,462.115,13.267"/>
	<path fill="#FFFFFF" d="M238.774,57.355h-10.793c-1.844,0-2.985-0.548-2.985-1.993c0-1.473,0.676-2.381,2.985-2.381h13.788v1.263
		C241.771,56.109,241.026,57.355,238.774,57.355 M261.737,54.259v-7.381c0-8.188-5.354-12.846-16.861-12.846H209.11v9.635h28.723
		c2.9,0,3.932,0.941,3.932,3.135v0.337H218.84c-9.68,0-12.925,4.126-12.925,9.375v1.174c0,2.382,0.742,4.401,2.116,5.731
		c2.78,2.681,8.195,3.494,15.499,3.494h19.858C256.339,66.914,261.737,63.906,261.737,54.259"/>
	<path fill="#FFFFFF" d="M323.547,43.512h10.92c1.845,0,3.046,0.665,3.046,2.094c0,1.474-0.621,2.281-2.93,2.281h-14.049v-1.263
		C320.534,44.757,321.276,43.512,323.547,43.512 M300.565,48.076v5.73c0,8.179,5.365,12.818,16.861,12.818h36.598v-9.547h-29.553
		c-2.902,0-3.933-0.886-3.933-3.072V53.68h22.925c8.15,0,13.002-2.726,13.002-8.845v-1.312c0-5.39-3.072-9.513-17.039-9.513h-20.516
		C305.96,34.009,300.565,38.417,300.565,48.076"/>
	<path fill="#FFFFFF" d="M298.429,34.697h-25.677c-4.12,0-6.706,2.204-6.706,5.758V66.66h19.9V44.542h12.481L298.429,34.697
		L298.429,34.697z"/>
	<polygon fill="#FFFFFF" points="187.619,28.777 167.629,28.777 167.629,66.621 203.024,66.621 203.035,56.757 187.619,56.757 	"/>
	<path fill="#FFFFFF" d="M162.845,44.548h-26.236c-2.791,0-4.989,1.711-4.989,5.975c0,4.861,2.63,6.279,5.167,6.279h26.402v9.846
		h-32.25c-13.622,0-19.464-4.24-19.464-14.779v-2.359c0-8.965,5.487-14.812,18.833-14.812h32.538L162.845,44.548L162.845,44.548z"/>
	<path fill="#FFFFFF" d="M66.344,66.647l21.064-19.215l-0.005,19.215h20.012V28.788H95.723c-4.82,0-8.223,2.032-11.496,4.868
		c-3.668,3.19-16.875,14.652-16.875,14.652v-19.52H55.576c-6.675,0-10.014,2.282-13.741,5.2C39.258,36.015,0,66.647,0,66.647h23.783
		L47.298,47.3v19.348L66.344,66.647L66.344,66.647z"/>
	<path fill="#FFFFFF" d="M360.304,66.615V34.47h31.68c16.104,0,21.68,3.173,21.68,14.48v17.664h-20.001V52.262
		c0-3.755-2.07-7.228-8.019-7.228H380.3v21.58H360.304z"/>
</g>
</svg>
