<?xml version="1.0" encoding="utf-8"?>
<!-- Generator: Adobe Illustrator 16.0.3, SVG Export Plug-In . SVG Version: 6.00 Build 0)  -->
<!DOCTYPE svg PUBLIC "-//W3C//DTD SVG 1.1//EN" "http://www.w3.org/Graphics/SVG/1.1/DTD/svg11.dtd">
<svg version="1.1" id="Layer_1" xmlns="http://www.w3.org/2000/svg" xmlns:xlink="http://www.w3.org/1999/xlink" x="0px" y="0px"
	 width="1128.402px" height="36.25px" viewBox="0 0 1128.402 36.25" enable-background="new 0 0 1128.402 36.25"
	 xml:space="preserve">
<g>
	<g>
		<g>
			<path fill="#ED1C24" d="M58.159,0c-3.706,0-6.724,3.05-6.724,6.796v22.691c0,3.761,3.018,6.804,6.724,6.804H81.02
				c3.715,0,6.732-3.043,6.732-6.804V6.796C87.753,3.05,84.735,0,81.021,0H58.159z M58.808,29.367V6.919
				c0-0.618,0.446-1.163,0.997-1.163h19.583c0.534,0,0.988,0.545,0.988,1.163v22.448c0,0.641-0.455,1.157-0.988,1.157H59.805
				C59.253,30.524,58.808,30.007,58.808,29.367z"/>
		</g>
		<g>
			<path fill="#ED1C24" d="M244.217,0c-3.705,0-6.723,3.05-6.723,6.796v22.691c0,3.761,3.018,6.804,6.723,6.804h22.866
				c3.701,0,6.728-3.043,6.728-6.804V6.796c0-3.746-3.025-6.796-6.728-6.796H244.217z M244.87,29.367V6.919
				c0-0.618,0.44-1.163,0.987-1.163h19.584c0.533,0,1.002,0.545,1.002,1.163v22.448c0,0.641-0.469,1.157-1.002,1.157h-19.584
				C245.312,30.524,244.87,30.007,244.87,29.367z"/>
		</g>
		<polygon fill="#ED1C24" points="0,0.097 7.906,0.097 20.88,27.524 34.164,0.097 42.083,0.097 24.679,36.35 17.404,36.35 		"/>
		<path fill="#ED1C24" d="M167.983,0.097l17.404,36.253h-7.584l-3.494-7.511h-19.605l-3.48,7.511h-7.906l17.713-36.253H167.983z
			 M157.25,23.292h13.914L164.198,8.92L157.25,23.292z"/>
		<polygon fill="#ED1C24" points="227.471,0.097 227.471,5.653 202.324,5.653 202.324,12.838 227.471,12.838 227.471,18.395 
			202.324,18.395 202.324,36.35 194.877,36.35 194.877,0.097 		"/>
		<polygon fill="#ED1C24" points="312.895,25.58 312.895,0.097 320.164,0.097 320.164,36.35 313.523,36.35 291.387,10.875 
			291.387,36.35 284.416,36.35 284.416,0.097 291.061,0.097 		"/>
		<polygon fill="#ED1C24" points="363.514,0.097 363.514,5.653 338.283,5.653 338.283,12.838 363.514,12.838 363.514,18.395 
			338.283,18.395 338.283,30.314 363.514,30.314 363.514,36.35 331.083,36.35 331.083,0.097 		"/>
		<g>
			<path fill="#ED1C24" d="M97.988,0v36.291h29.581c3.706,0,6.728-3.043,6.728-6.804V6.796c0-3.746-3.022-6.796-6.728-6.796H97.988z
				 M105.355,5.757h20.567c0.542,0,0.997,0.545,0.997,1.163v22.447c0,0.643-0.454,1.158-0.997,1.158h-20.567V5.757z"/>
		</g>
	</g>
	<path fill="#808080" d="M786.087,36.369h7.257l15.203-27.11v27.11h7.266V0.13h-10.752l-15.498,28.075L774.373,0.13h-10.756v36.237
		h7.274V8.6L786.087,36.369z M1099.598,6.051h25.638V0.13c0,0-22.507,0-27.203,0c-3.312,0-5.847,3.397-5.709,6.524
		c0.137,2.793,2.475,4.373,4.121,5.545l24.67,18.3c-9.586,0-28.791,0-28.791,0l0,0v5.922c0,0,25.676,0,30.364,0
		c3.312,0,5.854-3.412,5.709-6.529c-0.118-2.784-2.475-4.381-4.118-5.551L1099.598,6.051 M1002.793,0.026v36.289h29.584
		c3.711,0,6.729-3.053,6.729-6.808V6.81c0-3.746-3.019-6.784-6.729-6.784H1002.793z M1010.164,5.773h20.572
		c0.547,0,1.002,0.544,1.002,1.169v22.447c0,0.631-0.455,1.159-1.002,1.159h-20.572V5.773z M948.66,30.548h-24.254
		c-0.553,0-1.012-0.528-1.012-1.159V6.942c0-0.626,0.459-1.169,1.012-1.169h24.254V0.026h-25.914c-3.709,0-6.715,3.038-6.715,6.784
		v22.697c0,3.755,3.004,6.808,6.715,6.808h25.914V30.548z M1048.982,0.13v36.237h32.442v-6.045h-25.239v-11.92h25.239v-5.541
		h-25.239V5.675h25.239V0.129L1048.982,0.13L1048.982,0.13z M826.26,0.13v36.237h32.431v-6.045h-25.234v-11.92h25.234v-5.541
		h-25.234V5.675h25.234V0.129L826.26,0.13L826.26,0.13z M959.447,0.13v36.237h32.43v-6.045h-25.229v-11.92h25.229v-5.541h-25.229
		V5.675h25.229V0.129L959.447,0.13L959.447,0.13z M897.438,36.369h8.28l-8.836-12.646h1.772c3.707,0,6.719-3.044,6.719-6.785V6.923
		c0-3.754-3.012-6.794-6.719-6.794h-29.061v36.236h7.145V23.722h12.24L897.438,36.369z M876.738,5.676h20.397
		c0.538,0,0.993,0.533,0.993,1.16v9.763c0,0.622-0.455,1.165-0.993,1.165h-20.397V5.676z"/>
	<path fill="#808080" d="M570.761,0l17.403,36.25h-7.592l-3.49-7.52h-19.61l-3.484,7.52h-7.896L563.798,0H570.761z M560.005,23.186
		h13.928l-6.966-14.364L560.005,23.186z M694.463,0h-6.643v36.25h6.957V10.767l22.153,25.48h6.631V0h-7.266v25.462L694.463,0z
		 M644.475,0v36.25h32.431V30.21h-25.218V18.28h25.218v-5.55h-25.218V5.552h25.218V0H644.475L644.475,0z M428.087,36.25h7.257
		l15.197-27.104V36.25h7.271V0h-10.752l-15.498,28.091L416.373,0h-10.756v36.25h7.274V8.497L428.087,36.25z M505.75,36.25h32.421
		v-5.881h-25.614V0h-6.807V36.25L505.75,36.25z M494.84,10.128h-19.854c-3.709,0-6.724,3.048-6.724,6.785v12.476
		c0,3.745,3.015,6.795,6.724,6.795h19.854v-5.427h-19.258v-15.08h19.258V10.128z M625.812,36.25h8.271l-8.836-12.645h1.777
		c3.7,0,6.719-3.059,6.719-6.799V6.792c0-3.746-3.019-6.792-6.719-6.792h-29.052v36.25h7.146V23.605h12.242L625.812,36.25z
		 M605.123,5.553h20.387c0.533,0,0.996,0.536,0.996,1.163v9.752c0,0.64-0.463,1.16-0.996,1.16h-20.387V5.553z"/>
</g>
</svg>
