<?xml version="1.0" encoding="utf-8"?>
<!-- Generator: Adobe Illustrator 16.0.3, SVG Export Plug-In . SVG Version: 6.00 Build 0)  -->
<!DOCTYPE svg PUBLIC "-//W3C//DTD SVG 1.1//EN" "http://www.w3.org/Graphics/SVG/1.1/DTD/svg11.dtd">
<svg version="1.1" xmlns="http://www.w3.org/2000/svg" xmlns:xlink="http://www.w3.org/1999/xlink" x="0px" y="0px"
	 width="415.152px" height="147.319px" viewBox="319.686 -194.16 415.152 147.319"
	 enable-background="new 319.686 -194.16 415.152 147.319" xml:space="preserve">
<g id="Layer_1">
	<g id="Layer_1_1_" display="none">
		<g id="W8eZLx_1_" display="inline">
			
				<image overflow="visible" enable-background="new    " width="648" height="311" id="W8eZLx_2_" xlink:href="5C5C6E0E56B1D68.png"  transform="matrix(1 0 0 1 -132.3613 -133)">
			</image>
		</g>
	</g>
	<g id="Layer_2">
		<text transform="matrix(1 0 0 1 0 -305.709)" enable-background="new    "><tspan x="0" y="0" fill="#FFFFFF" font-family="'Gotham-Bold'" font-size="27.8793">ELLEN</tspan><tspan x="0" y="33.455" fill="#FFFFFF" font-family="'Gotham-Bold'" font-size="27.8793">MACARTHUR</tspan><tspan x="0" y="66.91" fill="#FFFFFF" font-family="'Gotham-Bold'" font-size="27.8793">FOUNDATION</tspan></text>
	</g>
	<g>
		<path fill="#FFFFFF" d="M-77.82-319.425c23.779,0,43.125,19.346,43.125,43.125s-19.346,43.125-43.125,43.125
			s-43.125-19.346-43.125-43.125S-101.599-319.425-77.82-319.425 M-77.82-325.425c-27.131,0-49.125,21.994-49.125,49.125
			c0,27.131,21.994,49.125,49.125,49.125s49.125-21.994,49.125-49.125C-28.695-303.432-50.689-325.425-77.82-325.425L-77.82-325.425
			z"/>
	</g>
	<g>
		<path fill="#FFFFFF" d="M-74.049-302.925c17.231,0,31.25,14.019,31.25,31.25s-14.019,31.25-31.25,31.25s-31.25-14.019-31.25-31.25
			S-91.281-302.925-74.049-302.925 M-74.049-308.925c-20.573,0-37.25,16.678-37.25,37.25s16.677,37.25,37.25,37.25
			c20.572,0,37.25-16.678,37.25-37.25S-53.477-308.925-74.049-308.925L-74.049-308.925z"/>
	</g>
	<g>
		<path fill="#FFFFFF" d="M-78.247-295.228c10.767,0,19.526,8.759,19.526,19.526s-8.759,19.526-19.526,19.526
			s-19.526-8.76-19.526-19.526S-89.014-295.228-78.247-295.228 M-78.247-301.228c-14.098,0-25.526,11.428-25.526,25.526
			c0,14.098,11.428,25.526,25.526,25.526s25.526-11.428,25.526-25.526C-52.721-289.799-64.149-301.228-78.247-301.228
			L-78.247-301.228z"/>
	</g>
	<g>
		<path fill="#FFFFFF" d="M-143.056-599c23.779,0,43.125,19.346,43.125,43.125s-19.346,43.125-43.125,43.125
			s-43.125-19.346-43.125-43.125S-166.835-599-143.056-599 M-143.056-605c-27.131,0-49.125,21.994-49.125,49.125
			c0,27.131,21.994,49.125,49.125,49.125s49.125-21.994,49.125-49.125C-93.931-583.006-115.925-605-143.056-605L-143.056-605z"/>
	</g>
	<g>
		<path fill="#FFFFFF" d="M-139.285-582.5c17.231,0,31.25,14.019,31.25,31.25S-122.054-520-139.285-520s-31.25-14.019-31.25-31.25
			S-156.517-582.5-139.285-582.5 M-139.285-588.5c-20.573,0-37.25,16.678-37.25,37.25s16.677,37.25,37.25,37.25
			c20.572,0,37.25-16.678,37.25-37.25S-118.713-588.5-139.285-588.5L-139.285-588.5z"/>
	</g>
	<g>
		<path fill="#FFFFFF" d="M-143.483-574.802c10.767,0,19.526,8.759,19.526,19.526s-8.759,19.526-19.526,19.526
			s-19.526-8.76-19.526-19.526S-154.25-574.802-143.483-574.802 M-143.483-580.802c-14.098,0-25.526,11.428-25.526,25.526
			c0,14.098,11.428,25.526,25.526,25.526s25.526-11.428,25.526-25.526C-117.957-569.374-129.385-580.802-143.483-580.802
			L-143.483-580.802z"/>
	</g>
	<g id="g06mvy_1_">
		
			<image overflow="visible" width="183" height="90" id="g06mvy_2_" xlink:href="5EC30DACA3414494.png"  transform="matrix(2.4475 0 0 2.4475 -26 -624.1396)">
		</image>
	</g>
</g>
<g id="Layer_2_1_">
	<g>
		<g id="Layer_2_2_">
			<g enable-background="new    ">
				<path fill="#FFFFFF" d="M482.683-166.861h19.183v4.977h-13.624v5.159h11.989v4.978h-11.989v5.34h13.806v4.978h-19.364V-166.861z
					"/>
				<path fill="#FFFFFF" d="M507.026-166.861h5.595v20.345h12.68v5.086h-18.274V-166.861z"/>
				<path fill="#FFFFFF" d="M529.518-166.861h5.595v20.345h12.679v5.086h-18.273V-166.861z"/>
				<path fill="#FFFFFF" d="M552.008-166.861h19.183v4.977h-13.624v5.159h11.988v4.978h-11.988v5.34h13.806v4.978h-19.364V-166.861z
					"/>
				<path fill="#FFFFFF" d="M576.352-166.861h5.158l11.918,15.659v-15.659h5.521v25.432h-4.76l-12.316-16.167v16.167h-5.521
					V-166.861z"/>
				<path fill="#FFFFFF" d="M482.683-131.861h6.031l6.685,10.754l6.686-10.754h6.031v25.432h-5.56v-16.604l-7.157,10.863h-0.145
					l-7.086-10.754v16.494h-5.485V-131.861z"/>
				<path fill="#FFFFFF" d="M522.94-132.042h5.159l10.898,25.613h-5.849l-2.325-5.704H520.07l-2.325,5.704h-5.704L522.94-132.042z
					 M528.826-117.074l-3.379-8.247l-3.379,8.247H528.826z"/>
				<path fill="#FFFFFF" d="M540.164-119.072v-0.073c0-7.23,5.449-13.152,13.26-13.152c4.796,0,7.666,1.599,10.027,3.924
					l-3.561,4.105c-1.961-1.78-3.959-2.871-6.503-2.871c-4.287,0-7.375,3.561-7.375,7.92v0.073c0,4.36,3.016,7.993,7.375,7.993
					c2.907,0,4.687-1.163,6.685-2.979l3.561,3.597c-2.615,2.797-5.521,4.542-10.427,4.542
					C545.723-105.993,540.164-111.77,540.164-119.072z"/>
				<path fill="#FFFFFF" d="M576.822-132.042h5.16l10.898,25.613h-5.85l-2.324-5.704h-10.754l-2.325,5.704h-5.704L576.822-132.042z
					 M582.709-117.074l-3.379-8.247l-3.379,8.247H582.709z"/>
				<path fill="#FFFFFF" d="M596.807-131.861h11.627c3.232,0,5.74,0.908,7.412,2.579c1.416,1.417,2.18,3.416,2.18,5.813v0.073
					c0,4.105-2.217,6.685-5.451,7.884l6.213,9.083h-6.539l-5.449-8.138h-0.072h-4.324v8.138h-5.596V-131.861z M608.07-119.508
					c2.725,0,4.287-1.454,4.287-3.597v-0.073c0-2.398-1.672-3.633-4.396-3.633h-5.559v7.303H608.07z"/>
				<path fill="#FFFFFF" d="M628.998-126.702h-7.738v-5.159h21.072v5.159h-7.738v20.273h-5.596V-126.702z"/>
				<path fill="#FFFFFF" d="M646.621-131.861h5.594v10.063h10.318v-10.063h5.596v25.432h-5.596v-10.209h-10.318v10.209h-5.594
					V-131.861z"/>
				<path fill="#FFFFFF" d="M673.836-117.329v-14.532h5.594v14.387c0,4.142,2.072,6.285,5.486,6.285
					c3.416,0,5.486-2.071,5.486-6.104v-14.569h5.596v14.351c0,7.702-4.324,11.48-11.154,11.48S673.836-109.844,673.836-117.329z"/>
				<path fill="#FFFFFF" d="M701.703-131.861h11.627c3.232,0,5.74,0.908,7.412,2.579c1.416,1.417,2.18,3.416,2.18,5.813v0.073
					c0,4.105-2.217,6.685-5.451,7.884l6.213,9.083h-6.539l-5.449-8.138h-0.072h-4.324v8.138h-5.596V-131.861z M712.967-119.508
					c2.725,0,4.287-1.454,4.287-3.597v-0.073c0-2.398-1.672-3.633-4.396-3.633h-5.559v7.303H712.967z"/>
				<path fill="#FFFFFF" d="M482.683-96.861h19.364v5.086h-13.77v5.413h12.135v5.086h-12.135v9.846h-5.595V-96.861z"/>
				<path fill="#FFFFFF" d="M505.392-84.072v-0.073c0-7.23,5.704-13.152,13.552-13.152s13.479,5.849,13.479,13.079v0.073
					c0,7.23-5.704,13.152-13.552,13.152C511.023-70.993,505.392-76.843,505.392-84.072z M526.572-84.072v-0.073
					c0-4.36-3.197-7.993-7.702-7.993s-7.63,3.561-7.63,7.92v0.073c0,4.36,3.197,7.993,7.703,7.993
					C523.447-76.152,526.572-79.713,526.572-84.072z"/>
				<path fill="#FFFFFF" d="M537.002-82.329v-14.532h5.595v14.387c0,4.142,2.071,6.285,5.486,6.285s5.485-2.071,5.485-6.104v-14.569
					h5.596v14.351c0,7.702-4.324,11.48-11.154,11.48S537.002-74.844,537.002-82.329z"/>
				<path fill="#FFFFFF" d="M564.869-96.861h5.16l11.916,15.659v-15.659h5.521v25.432h-4.758l-12.316-16.167v16.167h-5.523V-96.861z
					"/>
				<path fill="#FFFFFF" d="M593.574-96.861h9.918c7.992,0,13.516,5.486,13.516,12.643v0.073c0,7.157-5.523,12.716-13.516,12.716
					h-9.918V-96.861z M603.492-76.479c4.578,0,7.666-3.088,7.666-7.593v-0.073c0-4.505-3.088-7.666-7.666-7.666h-4.324v15.332
					H603.492z"/>
				<path fill="#FFFFFF" d="M628.891-97.042h5.158l10.9,25.613h-5.85l-2.326-5.704H626.02l-2.324,5.704h-5.705L628.891-97.042z
					 M634.775-82.074l-3.379-8.247l-3.379,8.247H634.775z"/>
				<path fill="#FFFFFF" d="M651.525-91.702h-7.738v-5.159h21.072v5.159h-7.738v20.273h-5.596V-91.702z"/>
				<path fill="#FFFFFF" d="M669.402-96.861h5.596v25.432h-5.596V-96.861z"/>
				<path fill="#FFFFFF" d="M680.23-84.072v-0.073c0-7.23,5.705-13.152,13.553-13.152c7.846,0,13.479,5.849,13.479,13.079v0.073
					c0,7.23-5.705,13.152-13.553,13.152S680.23-76.843,680.23-84.072z M701.412-84.072v-0.073c0-4.36-3.197-7.993-7.703-7.993
					c-4.504,0-7.629,3.561-7.629,7.92v0.073c0,4.36,3.197,7.993,7.703,7.993C698.287-76.152,701.412-79.713,701.412-84.072z"/>
				<path fill="#FFFFFF" d="M712.24-96.861h5.16l11.916,15.659v-15.659h5.521v25.432h-4.758l-12.316-16.167v16.167h-5.523V-96.861z"
					/>
			</g>
		</g>
		<g>
			<path fill="#FFFFFF" d="M393.346-185.163c35.655,0,64.663,29.008,64.663,64.663s-29.008,64.663-64.663,64.663
				s-64.663-29.008-64.663-64.663S357.69-185.163,393.346-185.163 M393.346-194.16c-40.681,0-73.66,32.978-73.66,73.66
				c0,40.681,32.979,73.66,73.66,73.66s73.66-32.979,73.66-73.66C467.006-161.182,434.026-194.16,393.346-194.16L393.346-194.16z"/>
		</g>
		<g>
			<path fill="#FFFFFF" d="M399-160.422c25.836,0,46.856,21.02,46.856,46.857c0,25.837-21.021,46.857-46.856,46.857
				c-25.838,0-46.857-21.02-46.857-46.857C352.143-139.402,373.162-160.422,399-160.422 M399-169.419
				c-30.848,0-55.854,25.007-55.854,55.854S368.152-57.711,399-57.711c30.846,0,55.854-25.007,55.854-55.854
				S429.846-169.419,399-169.419L399-169.419z"/>
		</g>
		<g>
			<path fill="#FFFFFF" d="M392.705-148.88c16.145,0,29.277,13.134,29.277,29.277c0,16.144-13.133,29.278-29.277,29.278
				s-29.277-13.134-29.277-29.278C363.428-135.746,376.561-148.88,392.705-148.88 M392.705-157.876
				c-21.139,0-38.274,17.136-38.274,38.274c0,21.139,17.136,38.275,38.274,38.275s38.274-17.136,38.274-38.275
				C430.979-140.741,413.844-157.876,392.705-157.876L392.705-157.876z"/>
		</g>
	</g>
</g>
</svg>
