<?xml version="1.0" encoding="utf-8"?>
<!-- Generator: Adobe Illustrator 16.0.3, SVG Export Plug-In . SVG Version: 6.00 Build 0)  -->
<!DOCTYPE svg PUBLIC "-//W3C//DTD SVG 1.1//EN" "http://www.w3.org/Graphics/SVG/1.1/DTD/svg11.dtd">
<svg version="1.1" id="Layer_1" xmlns="http://www.w3.org/2000/svg" xmlns:xlink="http://www.w3.org/1999/xlink" x="0px" y="0px"
	 width="224.254px" height="152.84px" viewBox="0 0 224.254 152.84" enable-background="new 0 0 224.254 152.84"
	 xml:space="preserve">
<g>
	<path fill-rule="evenodd" clip-rule="evenodd" fill="#FFFFFF" d="M44.259,124.359c7.839,0,14.198,6.359,14.198,14.199
		s-6.359,14.197-14.198,14.197s-14.198-6.357-14.198-14.197S36.42,124.359,44.259,124.359L44.259,124.359z M44.259,130.81
		c3.349,0,6.064,3.469,6.064,7.748c0,4.277-2.716,7.748-6.064,7.748s-6.065-3.471-6.065-7.748
		C38.193,134.279,40.91,130.81,44.259,130.81L44.259,130.81z M80.734,114.044h7.508v37.615c-4.309,0.789-8.486,1.096-12.662,1.096
		c-7.84,0-14.197-6.357-14.197-14.197s6.357-14.199,14.197-14.199c1.817,0,3.557,0.342,5.154,0.965V114.044L80.734,114.044z
		 M80.734,145.425v-13.736c-1.087-0.561-2.321-0.879-3.633-0.879c-4.329,0-7.842,3.469-7.842,7.748c0,4.277,3.513,7.748,7.842,7.748
		C78.413,146.306,79.647,145.986,80.734,145.425L80.734,145.425z M111.002,152.453h6.975V126.24
		c-4.31-1.002-7.466-1.662-12.663-1.662c-7.839,0-14.197,6.357-14.197,14.197s6.151,14.014,11.929,14.014
		c5.775,0,6.338-1.805,7.935-2.428L111.002,152.453L111.002,152.453z M110.468,131.703v11.854c-0.015,0.838-1.821,2.717-5.101,2.686
		c-3.281-0.031-5.846-3.188-5.846-7.467C99.521,133.308,104.678,129.505,110.468,131.703L110.468,131.703z M152.117,124.359
		c7.841,0,14.199,6.359,14.199,14.199s-6.358,14.197-14.199,14.197c-7.838,0-14.197-6.357-14.197-14.197
		S144.279,124.359,152.117,124.359L152.117,124.359z M152.117,130.81c3.35,0,6.065,3.469,6.065,7.748
		c0,4.277-2.716,7.748-6.065,7.748c-3.348,0-6.063-3.471-6.063-7.748C146.054,134.279,148.77,130.81,152.117,130.81L152.117,130.81z
		 M169.156,152.279L169.156,152.279v0.172h7.369v-0.172h0.172V132.33c1.826-0.492,3.623-0.695,5.414-0.723
		c3.993,0.168,5.929,2.514,5.806,6.711v14.133h7.805v-14.396c0.286-8.568-4.227-13.025-13.538-13.367
		c-4.31,0.057-8.686,0.547-13.027,1.906v0.064l0,0V152.279L169.156,152.279z M211.263,124.359c7.174,0,12.991,6.359,12.991,14.199
		c0,0.996-0.095,1.969-0.272,2.906h-16.482h-1.311c0.448,0.969,0.812,1.848,1.311,2.602c2.402,2.314,4.231,2.713,7.723,2.713
		c3.031,0,5.254-0.41,6.918-1.125l0.891-0.172l0.026,5.045c-3.58,2.641-8.623,2.299-11.794,2.299
		c-7.175,0-12.991-6.43-12.991-14.268C198.271,130.718,204.088,124.359,211.263,124.359L211.263,124.359z M211.813,130.783
		c2.528,0,4.695,1.984,5.605,4.807h-11.212C207.118,132.767,209.284,130.783,211.813,130.783L211.813,130.783z M0,124.783h8.183
		l6.938,17.164l6.938-17.164h8.182l-11.028,27.285l-0.04,0.096l0,0h-8.104l-0.04-0.098L0,124.783L0,124.783z M122.745,152.302h7.639
		v-20.395h6.975v-7.033h-6.975v-1.082c0.002-4.104,4.77-3.645,7.935-3.025v-6.6c-10.673-2.316-15.481,0.963-15.573,8.746V152.302
		L122.745,152.302z"/>
	<g>
		<path fill-rule="evenodd" clip-rule="evenodd" fill="#FFFFFF" d="M133.884,4.843c-8.964,4.471-15.062,12.675-15.372,22.137
			c13.329,2.277,23.517,13.531,23.517,27.091c0,15.324-12.81,27.63-28.493,27.63c-17.348,0-29.17-15.17-28.864-32.17
			c0-24.852,20.742-44.967,46.373-44.967c0.806,0,1.601,0.04,2.396,0.08C126.904,1.669,119.652,0,112.019,0
			C83.551,0,60.516,23.035,60.516,51.502c0,28.685,23.035,51.72,51.503,51.72c28.467,0,51.72-23.035,51.72-51.72
			C163.738,30.841,151.484,13.051,133.884,4.843z"/>
		<path fill-rule="evenodd" clip-rule="evenodd" fill="#FFFFFF" d="M134.217,4.669c-0.257-0.017-0.52-0.013-0.777-0.026
			c0.147,0.067,0.297,0.131,0.444,0.2C133.996,4.787,134.104,4.724,134.217,4.669z"/>
	</g>
</g>
</svg>
