<?xml version="1.0" encoding="utf-8"?>
<!-- Generator: Adobe Illustrator 16.0.3, SVG Export Plug-In . SVG Version: 6.00 Build 0)  -->
<!DOCTYPE svg PUBLIC "-//W3C//DTD SVG 1.1//EN" "http://www.w3.org/Graphics/SVG/1.1/DTD/svg11.dtd">
<svg version="1.1" id="Layer_1" xmlns="http://www.w3.org/2000/svg" xmlns:xlink="http://www.w3.org/1999/xlink" x="0px" y="0px"
	 width="430.662px" height="339.808px" viewBox="0 0 430.662 339.808" enable-background="new 0 0 430.662 339.808"
	 xml:space="preserve">
<g>
	<g>
		<polygon fill="#DC3030" points="349.362,180.144 430.662,260.909 430.662,81.274 349.362,7.716 		"/>
		<polygon fill="#8D1A20" points="300.604,40.561 260.379,0 251.968,8.391 251.808,81.514 300.604,130.654 349.401,81.514 
			349.401,7.755 340.83,0 		"/>
		<polygon fill="#00B6F1" points="81.484,80.766 0.185,0 0.185,179.635 81.484,253.193 		"/>
		<polygon fill="#00B6F1" points="179.078,80.766 260.378,0 260.378,179.635 179.078,253.193 		"/>
		<g>
			<polygon fill="#0091D2" points="130.281,220.388 170.507,260.948 179.078,253.193 179.078,179.435 130.281,130.294 
				81.484,179.435 81.484,253.193 90.055,260.948 			"/>
		</g>
	</g>
	<polygon fill="#0091D2" points="36.694,287.827 52.117,323.199 66.594,289.745 73.347,289.745 52.117,339.092 36.701,303.645 
		21.273,339.092 0,289.745 6.759,289.745 21.341,323.58 	"/>
	<rect x="90.499" y="289.667" fill="#0091D2" width="6.468" height="47.923"/>
	<polygon fill="#0091D2" points="119.851,287.752 155.284,324.175 155.284,289.67 161.828,289.67 161.828,339.808 126.395,303.546 
		126.395,337.59 119.851,337.59 	"/>
	<path fill="#0091D2" d="M229.048,297.343l-4.851,4.778c-4.89-4.792-10.544-7.188-16.963-7.188c-5.618,0-10.293,1.805-14.03,5.414
		c-3.736,3.604-5.608,8.115-5.608,13.526c0,4.735,1.814,8.999,5.441,12.793c3.618,3.795,8.617,5.692,14.985,5.692
		c9.556,0,15.558-4.148,18.019-12.446H213.1v-6.548h20.424c0,3.282-0.218,5.897-0.658,7.85c-0.438,1.95-1.348,4.109-2.728,6.46
		c-1.378,2.354-3.217,4.465-5.511,6.331c-2.293,1.864-4.751,3.197-7.371,4c-2.62,0.8-5.747,1.202-9.384,1.202
		c-8.277,0-14.875-2.6-19.804-7.8s-7.391-11.146-7.391-17.833c0-7.045,2.521-13.04,7.559-17.988
		c5.041-4.944,11.146-7.422,18.319-7.422c4.264,0,8.157,0.646,11.68,1.938C221.755,291.393,225.359,293.807,229.048,297.343z"/>
	<polygon fill="#DC3030" points="280.741,339.092 265.318,303.72 250.843,337.174 244.087,337.174 265.318,287.827 280.734,323.274 
		296.161,287.827 317.434,337.174 310.677,337.174 296.093,303.341 	"/>
	<polygon fill="#DC3030" points="386.568,287.752 422.002,324.175 422.002,289.67 428.546,289.67 428.546,339.808 393.113,303.546 
		393.113,337.59 386.568,337.59 	"/>
	<polygon fill="#DC3030" points="349.375,303.72 334.9,337.174 328.143,337.174 349.375,287.827 370.604,336.973 363.849,336.973 
		349.374,303.518 	"/>
</g>
</svg>
