<?xml version="1.0" encoding="utf-8"?>
<!-- Generator: Adobe Illustrator 16.0.3, SVG Export Plug-In . SVG Version: 6.00 Build 0)  -->
<!DOCTYPE svg PUBLIC "-//W3C//DTD SVG 1.1//EN" "http://www.w3.org/Graphics/SVG/1.1/DTD/svg11.dtd">
<svg version="1.1" id="Layer_1" xmlns="http://www.w3.org/2000/svg" xmlns:xlink="http://www.w3.org/1999/xlink" x="0px" y="0px"
	 width="29.79px" height="17.329px" viewBox="0 0 29.79 17.329" enable-background="new 0 0 29.79 17.329" xml:space="preserve">
<g>
	<polygon fill="#FFFFFF" points="46.5,-76.858 46.5,-54.86 54.5,-47.859 54.5,-69.858 	"/>
	<polygon fill="#FFFFFF" points="70.5,-69.858 70.5,-47.859 78.5,-54.86 78.5,-76.858 	"/>
	<g>
		<defs>
			<polygon id="SVGID_1_" points="54.5,-58.859 54.5,-47.859 62.5,-54.859 70.5,-47.859 70.5,-58.859 62.5,-65.859 			"/>
		</defs>
		<clipPath id="SVGID_2_">
			<use xlink:href="#SVGID_1_"  overflow="visible"/>
		</clipPath>
		<defs>
			<filter id="Adobe_OpacityMaskFilter" filterUnits="userSpaceOnUse" x="54.5" y="-65.859" width="16" height="18">
				<feColorMatrix  type="matrix" values="1 0 0 0 0  0 1 0 0 0  0 0 1 0 0  0 0 0 1 0"/>
			</filter>
		</defs>
		<mask maskUnits="userSpaceOnUse" x="54.5" y="-65.859" width="16" height="18" id="SVGID_3_">
			<g filter="url(#Adobe_OpacityMaskFilter)">
				
					<radialGradient id="SVGID_4_" cx="88.6265" cy="-25.623" r="1.0007" gradientTransform="matrix(0 26.5845 26.5845 0 743.5106 -2425.7957)" gradientUnits="userSpaceOnUse">
					<stop  offset="0" style="stop-color:#FFFFFF"/>
					<stop  offset="1" style="stop-color:#000000"/>
				</radialGradient>
				<rect x="54.5" y="-65.859" clip-path="url(#SVGID_2_)" fill="url(#SVGID_4_)" width="16" height="18"/>
			</g>
		</mask>
		
			<radialGradient id="SVGID_5_" cx="88.6265" cy="-25.623" r="1.0007" gradientTransform="matrix(0 26.5845 26.5845 0 743.5106 -2425.7957)" gradientUnits="userSpaceOnUse">
			<stop  offset="0" style="stop-color:#FFFFFF"/>
			<stop  offset="1" style="stop-color:#FFFFFF"/>
		</radialGradient>
		<rect x="54.5" y="-65.859" clip-path="url(#SVGID_2_)" mask="url(#SVGID_3_)" fill="url(#SVGID_5_)" width="16" height="18"/>
	</g>
</g>
<g>
	<polygon fill="#FFFFFF" points="113.501,-57.833 113.501,-79.832 105.501,-86.833 105.501,-64.833 	"/>
	<polygon fill="#FFFFFF" points="89.5,-64.833 89.5,-86.833 81.5,-79.832 81.5,-57.833 	"/>
	<g>
		<defs>
			<polygon id="SVGID_6_" points="105.501,-75.833 105.501,-86.833 97.501,-79.833 89.5,-86.833 89.5,-75.833 97.501,-68.833 			"/>
		</defs>
		<clipPath id="SVGID_7_">
			<use xlink:href="#SVGID_6_"  overflow="visible"/>
		</clipPath>
		<defs>
			<filter id="Adobe_OpacityMaskFilter_1_" filterUnits="userSpaceOnUse" x="89.5" y="-86.833" width="16.001" height="18">
				<feColorMatrix  type="matrix" values="1 0 0 0 0  0 1 0 0 0  0 0 1 0 0  0 0 0 1 0"/>
			</filter>
		</defs>
		<mask maskUnits="userSpaceOnUse" x="89.5" y="-86.833" width="16.001" height="18" id="SVGID_8_">
			<g filter="url(#Adobe_OpacityMaskFilter_1_)">
				
					<radialGradient id="SVGID_9_" cx="89.0024" cy="-24.0811" r="1.0001" gradientTransform="matrix(0 -26.5845 -26.5845 0 -542.5086 2301.0828)" gradientUnits="userSpaceOnUse">
					<stop  offset="0" style="stop-color:#FFFFFF"/>
					<stop  offset="1" style="stop-color:#000000"/>
				</radialGradient>
				<rect x="89.5" y="-86.833" clip-path="url(#SVGID_7_)" fill="url(#SVGID_9_)" width="16.001" height="18"/>
			</g>
		</mask>
		
			<radialGradient id="SVGID_10_" cx="89.0024" cy="-24.0811" r="1.0001" gradientTransform="matrix(0 -26.5845 -26.5845 0 -542.5086 2301.0828)" gradientUnits="userSpaceOnUse">
			<stop  offset="0" style="stop-color:#FFFFFF"/>
			<stop  offset="1" style="stop-color:#FFFFFF"/>
		</radialGradient>
		
			<rect x="89.5" y="-86.833" clip-path="url(#SVGID_7_)" mask="url(#SVGID_8_)" fill="url(#SVGID_10_)" width="16.001" height="18"/>
	</g>
</g>
<g>
	<polygon fill="#00B7F1" points="0,4.435 0,14.216 3.557,17.329 3.557,7.547 	"/>
	<polygon fill="#00B7F1" points="10.671,7.547 10.671,17.329 14.228,14.216 14.228,4.435 	"/>
	<g>
		<defs>
			<polygon id="SVGID_11_" points="3.557,12.438 3.557,17.329 7.114,14.217 10.671,17.329 10.671,12.438 7.114,9.325 			"/>
		</defs>
		<clipPath id="SVGID_12_">
			<use xlink:href="#SVGID_11_"  overflow="visible"/>
		</clipPath>
		<defs>
			<filter id="Adobe_OpacityMaskFilter_2_" filterUnits="userSpaceOnUse" x="3.557" y="9.325" width="7.114" height="8.004">
				<feColorMatrix  type="matrix" values="1 0 0 0 0  0 1 0 0 0  0 0 1 0 0  0 0 0 1 0"/>
			</filter>
		</defs>
		<mask maskUnits="userSpaceOnUse" x="3.557" y="9.325" width="7.114" height="8.004" id="SVGID_13_">
			<g filter="url(#Adobe_OpacityMaskFilter_2_)">
				
					<radialGradient id="SVGID_14_" cx="91.5352" cy="-27.7031" r="0.4449" gradientTransform="matrix(0 26.5845 26.5845 0 743.5106 -2425.7957)" gradientUnits="userSpaceOnUse">
					<stop  offset="0" style="stop-color:#FFFFFF"/>
					<stop  offset="1" style="stop-color:#000000"/>
				</radialGradient>
				<rect x="3.557" y="9.325" clip-path="url(#SVGID_12_)" fill="url(#SVGID_14_)" width="7.114" height="8.004"/>
			</g>
		</mask>
		<rect x="3.557" y="9.325" clip-path="url(#SVGID_12_)" mask="url(#SVGID_13_)" fill="#00B7F1" width="7.114" height="8.004"/>
	</g>
</g>
<g>
	<polygon fill="#00B7F1" points="29.79,12.894 29.79,3.113 26.232,0 26.232,9.781 	"/>
	<polygon fill="#00B7F1" points="19.118,9.781 19.118,0 15.562,3.113 15.562,12.894 	"/>
	<g>
		<defs>
			<polygon id="SVGID_15_" points="26.232,4.891 26.232,0 22.676,3.112 19.118,0 19.118,4.891 22.676,8.003 			"/>
		</defs>
		<clipPath id="SVGID_16_">
			<use xlink:href="#SVGID_15_"  overflow="visible"/>
		</clipPath>
		<defs>
			<filter id="Adobe_OpacityMaskFilter_3_" filterUnits="userSpaceOnUse" x="19.118" y="0" width="7.114" height="8.003">
				<feColorMatrix  type="matrix" values="1 0 0 0 0  0 1 0 0 0  0 0 1 0 0  0 0 0 1 0"/>
			</filter>
		</defs>
		<mask maskUnits="userSpaceOnUse" x="19.118" y="0" width="7.114" height="8.003" id="SVGID_17_">
			<g filter="url(#Adobe_OpacityMaskFilter_3_)">
				
					<radialGradient id="SVGID_18_" cx="86.1924" cy="-21.2637" r="0.4444" gradientTransform="matrix(0 -26.5845 -26.5845 0 -542.5086 2301.0828)" gradientUnits="userSpaceOnUse">
					<stop  offset="0" style="stop-color:#FFFFFF"/>
					<stop  offset="1" style="stop-color:#000000"/>
				</radialGradient>
				<rect x="19.118" clip-path="url(#SVGID_16_)" fill="url(#SVGID_18_)" width="7.114" height="8.003"/>
			</g>
		</mask>
		<rect x="19.118" clip-path="url(#SVGID_16_)" mask="url(#SVGID_17_)" fill="#00B7F1" width="7.114" height="8.003"/>
	</g>
</g>
</svg>
