<?xml version="1.0" encoding="utf-8"?>
<!-- Generator: Adobe Illustrator 16.0.3, SVG Export Plug-In . SVG Version: 6.00 Build 0)  -->
<!DOCTYPE svg PUBLIC "-//W3C//DTD SVG 1.1//EN" "http://www.w3.org/Graphics/SVG/1.1/DTD/svg11.dtd">
<svg version="1.1" id="Layer_1" xmlns="http://www.w3.org/2000/svg" xmlns:xlink="http://www.w3.org/1999/xlink" x="0px" y="0px"
	 width="41px" height="13px" viewBox="334.5 86.5 41 13" enable-background="new 334.5 86.5 41 13" xml:space="preserve">
<rect x="-0.5" y="-1.313" fill="#F4F4F4" width="200" height="200"/>
<polyline fill="none" stroke="#000000" stroke-width="4" stroke-miterlimit="10" points="33.747,17.573 23.837,20.451 
	26.379,29.198 26.379,29.198 17.632,31.743 20.179,40.503 11.077,43.149 "/>
<polyline fill="none" stroke="#000000" stroke-width="4" stroke-miterlimit="10" points="18.17,-3.443 8.26,-0.565 10.802,8.182 
	10.802,8.182 2.055,10.727 4.602,19.486 -4.5,22.133 "/>
<polyline fill="none" stroke="#000000" stroke-width="4" stroke-miterlimit="10" points="127.064,15.345 116.756,15.825 
	117.184,24.925 117.184,24.925 108.083,25.354 108.511,34.466 99.043,34.911 "/>
<polyline fill="none" stroke="#000000" stroke-width="4" stroke-miterlimit="10" points="186.188,120.814 181.711,111.518 
	173.504,115.47 173.504,115.47 169.549,107.264 161.331,111.223 157.217,102.686 "/>
<polyline fill="none" stroke="#000000" stroke-width="4" stroke-miterlimit="10" points="110.706,153.109 113.055,143.061 
	104.184,140.99 104.184,140.99 106.252,132.118 97.369,130.045 99.521,120.814 "/>
<polyline fill="none" stroke="#000000" stroke-width="4" stroke-miterlimit="10" points="24.364,55.229 14.216,53.359 
	12.568,62.318 12.568,62.318 3.608,60.673 1.958,69.645 -7.364,67.932 "/>
<polyline fill="none" stroke="#000000" stroke-width="4" stroke-miterlimit="10" points="147.605,89.643 140.662,82.009 
	133.925,88.141 133.925,88.141 127.792,81.404 121.046,87.544 114.665,80.535 "/>
<polyline fill="none" stroke="#000000" stroke-width="4" stroke-miterlimit="10" points="176.525,14.079 167.667,8.787 
	162.997,16.608 162.997,16.608 155.175,11.941 150.499,19.773 142.359,14.917 "/>
<polyline fill="none" stroke="#000000" stroke-width="4" stroke-miterlimit="10" points="68.676,28.607 58.961,25.128 
	55.891,33.703 55.891,33.703 47.312,30.636 44.238,39.225 35.314,36.031 "/>
<polyline fill="none" stroke="#000000" stroke-width="4" stroke-miterlimit="10" points="165.832,147.093 161.207,137.867 
	153.064,141.951 153.064,141.951 148.979,133.811 140.825,137.9 136.574,129.43 "/>
<polyline fill="none" stroke="#000000" stroke-width="4" stroke-miterlimit="10" points="145.97,126.023 145.771,115.705 
	136.664,115.883 136.664,115.883 136.482,106.775 127.363,106.953 127.178,97.477 "/>
<polyline fill="none" stroke="#000000" stroke-width="4" stroke-miterlimit="10" points="97.789,193.852 88.093,190.316 
	84.975,198.874 84.975,198.874 76.416,195.759 73.292,204.329 64.386,201.085 "/>
<polyline fill="none" stroke="#000000" stroke-width="4" stroke-miterlimit="10" points="58.413,142.936 50.184,136.708 
	44.688,143.971 44.688,143.971 37.423,138.479 31.919,145.752 24.359,140.034 "/>
<polyline fill="none" stroke="#000000" stroke-width="4" stroke-miterlimit="10" points="77.535,152.715 68.386,147.939 
	64.173,156.014 64.173,156.014 56.098,151.803 51.875,159.891 43.472,155.506 "/>
<polyline fill="none" stroke="#000000" stroke-width="4" stroke-miterlimit="10" points="59.395,124.657 51.518,117.989 
	45.634,124.941 45.634,124.941 38.679,119.061 32.785,126.023 25.55,119.9 "/>
<polyline fill="none" stroke="#000000" stroke-width="4" stroke-miterlimit="10" points="92.361,147.775 90.779,137.576 
	81.779,138.975 81.779,138.975 80.381,129.973 71.365,131.371 69.911,122.006 "/>
<polyline fill="none" stroke="#000000" stroke-width="4" stroke-miterlimit="10" points="49.015,176.302 58.941,179.122 
	61.43,170.359 61.43,170.359 70.191,172.848 72.686,164.07 81.803,166.658 "/>
<polyline fill="none" stroke="#000000" stroke-width="4" stroke-miterlimit="10" points="8.786,173.759 18.417,177.468 
	21.688,168.968 21.688,168.968 30.189,172.238 33.467,163.725 42.313,167.129 "/>
<polyline fill="none" stroke="#000000" stroke-width="4" stroke-miterlimit="10" points="-24.127,190.745 -14.496,194.454 
	-11.225,185.954 -11.225,185.954 -2.724,189.225 0.554,180.711 9.4,184.115 "/>
<polyline fill="none" stroke="#000000" stroke-width="4" stroke-miterlimit="10" points="26.472,199.902 35.616,204.688 
	39.836,196.615 39.836,196.615 47.908,200.834 52.136,192.75 60.536,197.141 "/>
<polyline fill="none" stroke="#000000" stroke-width="4" stroke-miterlimit="10" points="-24.532,130.209 -15.388,134.992 
	-11.168,126.921 -11.168,126.921 -3.096,131.141 1.132,123.057 9.532,127.445 "/>
<polyline fill="none" stroke="#000000" stroke-width="4" stroke-miterlimit="10" points="-16.396,146.938 -7.251,151.72 
	-3.032,143.648 -3.032,143.648 5.041,147.867 9.269,139.783 17.668,144.174 "/>
<polyline fill="none" stroke="#000000" stroke-width="4" stroke-miterlimit="10" points="149.986,36.229 140.436,32.319 
	136.986,40.749 136.986,40.749 128.555,37.304 125.102,45.746 116.328,42.158 "/>
<polyline fill="none" stroke="#000000" stroke-width="4" stroke-miterlimit="10" points="79.594,182.486 89.693,180.369 
	87.824,171.456 87.824,171.456 96.736,169.581 94.861,160.654 104.139,158.706 "/>
<polyline fill="none" stroke="#000000" stroke-width="4" stroke-miterlimit="10" points="41.386,106.863 33.179,100.605 
	27.657,107.85 27.657,107.85 20.411,102.332 14.882,109.587 7.343,103.842 "/>
<polyline fill="none" stroke="#000000" stroke-width="4" stroke-miterlimit="10" points="16.521,95.273 8.314,89.018 2.793,96.261 
	2.793,96.261 -4.453,90.743 -9.982,97.998 -17.521,92.253 "/>
<polyline fill="none" stroke="#000000" stroke-width="4" stroke-miterlimit="10" points="76.594,114.322 73.025,104.641 
	64.479,107.789 64.479,107.789 61.325,99.245 52.768,102.4 49.487,93.508 "/>
<polyline fill="none" stroke="#000000" stroke-width="4" stroke-miterlimit="10" points="42.829,85.089 36.694,76.79 29.371,82.204 
	29.371,82.204 23.952,74.884 16.618,80.309 10.982,72.688 "/>
<polyline fill="none" stroke="#000000" stroke-width="4" stroke-miterlimit="10" points="113.055,114.322 109.484,104.641 
	100.939,107.789 100.939,107.789 97.785,99.245 89.227,102.4 85.947,93.508 "/>
<polyline fill="none" stroke="#000000" stroke-width="4" stroke-miterlimit="10" points="133.318,66.573 125.229,60.166 
	119.574,67.305 119.574,67.305 112.432,61.654 106.77,68.807 99.338,62.922 "/>
<polyline fill="none" stroke="#000000" stroke-width="4" stroke-miterlimit="10" points="95.643,84.014 88.971,76.143 
	82.021,82.032 82.021,82.032 76.128,75.089 69.171,80.989 63.041,73.761 "/>
<polyline fill="none" stroke="#000000" stroke-width="4" stroke-miterlimit="10" points="103.012,52.525 95.93,45.022 
	89.307,51.273 89.307,51.273 83.049,44.654 76.417,50.917 69.91,44.025 "/>
<polyline fill="none" stroke="#000000" stroke-width="4" stroke-miterlimit="10" points="103.545,17.357 94.93,11.68 89.918,19.283 
	89.918,19.283 82.309,14.277 77.291,21.895 69.376,16.681 "/>
<polyline fill="none" stroke="#000000" stroke-width="4" stroke-miterlimit="10" points="153.658,-0.743 145.043,-6.421 
	140.031,1.183 140.031,1.183 132.422,-3.823 127.404,3.794 119.489,-1.42 "/>
<polyline fill="none" stroke="#000000" stroke-width="4" stroke-miterlimit="10" points="66.408,64.16 58.535,57.489 52.646,64.438 
	52.646,64.438 45.694,58.555 39.799,65.516 32.566,59.391 "/>
<polyline fill="none" stroke="#000000" stroke-width="4" stroke-miterlimit="10" points="18.17,196.557 8.26,199.434 
	10.803,208.182 10.803,208.182 2.055,210.727 4.602,219.484 -4.5,222.132 "/>
<polyline fill="none" stroke="#000000" stroke-width="4" stroke-miterlimit="10" points="127.275,166.738 117.457,169.909 
	120.257,178.578 120.257,178.578 111.591,181.381 114.396,190.061 105.379,192.979 "/>
<polyline fill="none" stroke="#000000" stroke-width="4" stroke-miterlimit="10" points="130.971,162.609 134.977,153.1 
	126.584,149.564 126.584,149.564 130.113,141.168 121.707,137.629 125.384,128.895 "/>
<polyline fill="none" stroke="#000000" stroke-width="4" stroke-miterlimit="10" points="153.658,199.257 145.043,193.579 
	140.031,201.184 140.031,201.184 132.422,196.177 127.404,203.794 119.489,198.579 "/>
<polyline fill="none" stroke="#000000" stroke-width="4" stroke-miterlimit="10" points="218.176,-3.443 208.266,-0.565 
	210.809,8.182 210.809,8.182 202.061,10.727 204.607,19.486 195.506,22.133 "/>
<polyline fill="none" stroke="#000000" stroke-width="4" stroke-miterlimit="10" points="224.37,55.229 214.223,53.359 
	212.573,62.318 212.573,62.318 203.614,60.673 201.964,69.645 192.643,67.932 "/>
<polyline fill="none" stroke="#000000" stroke-width="4" stroke-miterlimit="10" points="184.02,85.85 178.785,76.955 
	170.936,81.573 170.936,81.573 166.314,73.725 158.452,78.352 153.645,70.182 "/>
<polyline fill="none" stroke="#000000" stroke-width="4" stroke-miterlimit="10" points="176.271,55.512 168.631,48.575 
	162.51,55.32 162.51,55.32 155.764,49.199 149.632,55.955 142.613,49.586 "/>
<polyline fill="none" stroke="#000000" stroke-width="4" stroke-miterlimit="10" points="175.878,190.745 185.51,194.454 
	188.781,185.954 188.781,185.954 197.282,189.225 200.561,180.711 209.406,184.115 "/>
<polyline fill="none" stroke="#000000" stroke-width="4" stroke-miterlimit="10" points="175.475,130.209 184.618,134.992 
	188.838,126.921 188.838,126.921 196.91,131.141 201.139,123.057 209.538,127.445 "/>
<polyline fill="none" stroke="#000000" stroke-width="4" stroke-miterlimit="10" points="160.807,170.075 169.95,174.857 
	174.171,166.787 174.171,166.787 182.243,171.006 186.471,162.922 194.871,167.312 "/>
<polyline fill="none" stroke="#000000" stroke-width="4" stroke-miterlimit="10" points="183.609,146.938 192.755,151.72 
	196.975,143.648 196.975,143.648 205.046,147.867 209.273,139.783 217.675,144.174 "/>
<polyline fill="none" stroke="#000000" stroke-width="4" stroke-miterlimit="10" points="216.527,95.273 208.32,89.018 
	202.799,96.261 202.799,96.261 195.553,90.743 190.023,97.998 182.484,92.253 "/>
<polyline fill="none" stroke="#000000" stroke-width="4" stroke-miterlimit="10" points="320.122,96.92 312.733,89.715 
	306.375,96.235 306.375,96.235 299.851,89.88 293.482,96.41 286.695,89.795 "/>
<polyline fill="none" stroke="#000000" stroke-width="4" stroke-miterlimit="10" points="159.77,158.812 149.475,159.514 
	150.092,168.6 150.092,168.6 141.006,169.223 141.626,178.323 132.17,178.968 "/>
<polyline fill="none" stroke="#000000" stroke-width="4" stroke-miterlimit="10" points="192.573,40.038 185.9,32.167 
	178.953,38.057 178.953,38.057 173.059,31.113 166.102,37.014 159.973,29.785 "/>
<polyline fill="none" stroke="#000000" stroke-width="4" stroke-miterlimit="10" points="97.789,-6.138 88.093,-9.672 
	84.975,-1.115 84.975,-1.115 76.416,-4.23 73.292,4.34 64.386,1.096 "/>
<polyline fill="none" stroke="#000000" stroke-width="4" stroke-miterlimit="10" points="26.472,-0.086 35.616,4.697 39.836,-3.374 
	39.836,-3.374 47.908,0.845 52.136,-7.239 60.536,-2.849 "/>
<polyline fill="none" stroke="#000000" stroke-width="2" stroke-miterlimit="10" points="4.607,341.056 -0.348,342.495 
	0.923,346.868 0.923,346.868 -3.45,348.142 -2.177,352.521 -6.728,353.845 "/>
<polyline fill="none" stroke="#000000" stroke-width="2" stroke-miterlimit="10" points="-3.181,330.548 -8.136,331.987 
	-6.865,336.36 -6.865,336.36 -11.238,337.633 -9.965,342.013 -14.516,343.336 "/>
<polyline fill="none" stroke="#000000" stroke-width="2" stroke-miterlimit="10" points="51.266,339.942 46.111,340.183 
	46.325,344.73 46.325,344.73 41.775,344.946 41.989,349.503 37.256,349.726 "/>
<polyline fill="none" stroke="#000000" stroke-width="2" stroke-miterlimit="10" points="80.828,392.677 78.59,388.028 
	74.486,390.005 74.486,390.005 72.508,385.901 68.398,387.881 66.342,383.612 "/>
<polyline fill="none" stroke="#000000" stroke-width="2" stroke-miterlimit="10" points="43.087,408.825 44.261,403.8 
	39.826,402.765 39.826,402.765 40.859,398.329 36.418,397.292 37.495,392.677 "/>
<polyline fill="none" stroke="#000000" stroke-width="2" stroke-miterlimit="10" points="-0.084,359.884 -5.158,358.949 
	-5.982,363.429 -5.982,363.429 -10.462,362.605 -11.287,367.092 -15.948,366.235 "/>
<polyline fill="none" stroke="#000000" stroke-width="2" stroke-miterlimit="10" points="61.537,377.091 58.064,373.274 
	54.695,376.339 54.695,376.339 51.63,372.972 48.257,376.042 45.066,372.537 "/>
<polyline fill="none" stroke="#000000" stroke-width="2" stroke-miterlimit="10" points="75.997,339.31 71.566,336.663 
	69.232,340.573 69.232,340.573 65.32,338.24 62.982,342.156 58.914,339.729 "/>
<polyline fill="none" stroke="#000000" stroke-width="2" stroke-miterlimit="10" points="22.072,346.573 17.215,344.833 
	15.679,349.121 15.679,349.121 11.39,347.587 9.853,351.882 5.391,350.285 "/>
<polyline fill="none" stroke="#000000" stroke-width="2" stroke-miterlimit="10" points="70.65,405.815 68.338,401.203 
	64.268,403.245 64.268,403.245 62.223,399.175 58.146,401.22 56.021,396.983 "/>
<polyline fill="none" stroke="#000000" stroke-width="2" stroke-miterlimit="10" points="60.719,395.281 60.619,390.122 
	56.066,390.211 56.066,390.211 55.977,385.657 51.416,385.746 51.322,381.008 "/>
<polyline fill="none" stroke="#000000" stroke-width="2" stroke-miterlimit="10" points="36.629,429.195 31.78,427.429 
	30.221,431.706 30.221,431.706 25.941,430.149 24.38,434.435 19.927,432.812 "/>
<polyline fill="none" stroke="#000000" stroke-width="2" stroke-miterlimit="10" points="16.94,403.737 12.826,400.624 
	10.078,404.255 10.078,404.255 6.445,401.509 3.693,405.146 -0.086,402.286 "/>
<polyline fill="none" stroke="#000000" stroke-width="2" stroke-miterlimit="10" points="26.502,408.627 21.927,406.239 
	19.82,410.276 19.82,410.276 15.782,408.171 13.671,412.214 9.47,410.022 "/>
<polyline fill="none" stroke="#000000" stroke-width="2" stroke-miterlimit="10" points="17.432,394.599 13.492,391.265 
	10.551,394.741 10.551,394.741 7.073,391.8 4.126,395.281 0.509,392.22 "/>
<polyline fill="none" stroke="#000000" stroke-width="2" stroke-miterlimit="10" points="33.914,406.157 33.123,401.058 
	28.623,401.757 28.623,401.757 27.924,397.256 23.416,397.955 22.689,393.271 "/>
<polyline fill="none" stroke="#000000" stroke-width="2" stroke-miterlimit="10" points="12.241,420.421 17.205,421.831 
	18.449,417.45 18.449,417.45 22.83,418.692 24.076,414.305 28.635,415.599 "/>
<polyline fill="none" stroke="#000000" stroke-width="2" stroke-miterlimit="10" points="-7.873,419.149 -3.058,421.003 
	-1.422,416.753 -1.422,416.753 2.829,418.389 4.467,414.132 8.891,415.834 "/>
<polyline fill="none" stroke="#000000" stroke-width="2" stroke-miterlimit="10" points="-24.33,427.642 -19.514,429.497 
	-17.878,425.247 -17.878,425.247 -13.628,426.882 -11.989,422.625 -7.566,424.327 "/>
<polyline fill="none" stroke="#000000" stroke-width="2" stroke-miterlimit="10" points="0.97,432.222 5.542,434.612 7.652,430.577 
	7.652,430.577 11.688,432.688 13.802,428.645 18.002,430.84 "/>
<polyline fill="none" stroke="#000000" stroke-width="2" stroke-miterlimit="10" points="-24.532,397.374 -19.96,399.766 
	-17.85,395.729 -17.85,395.729 -13.814,397.839 -11.7,393.798 -7.5,395.993 "/>
<polyline fill="none" stroke="#000000" stroke-width="2" stroke-miterlimit="10" points="-20.464,405.737 -15.892,408.13 
	-13.782,404.094 -13.782,404.094 -9.746,406.203 -7.632,402.161 -3.432,404.356 "/>
<polyline fill="none" stroke="#000000" stroke-width="2" stroke-miterlimit="10" points="62.727,350.384 57.951,348.429 
	56.227,352.645 56.227,352.645 52.012,350.921 50.285,355.143 45.898,353.349 "/>
<polyline fill="none" stroke="#000000" stroke-width="2" stroke-miterlimit="10" points="27.531,423.513 32.581,422.454 
	31.646,417.997 31.646,417.997 36.103,417.06 35.165,412.597 39.803,411.622 "/>
<polyline fill="none" stroke="#000000" stroke-width="2" stroke-miterlimit="10" points="8.427,385.701 4.323,382.573 
	1.562,386.194 1.562,386.194 -2.061,383.436 -4.825,387.062 -8.595,384.19 "/>
<polyline fill="none" stroke="#000000" stroke-width="2" stroke-miterlimit="10" points="-4.005,379.907 -8.109,376.778 
	-10.87,380.399 -10.87,380.399 -14.493,377.642 -17.257,381.27 -21.027,378.396 "/>
<polyline fill="none" stroke="#000000" stroke-width="2" stroke-miterlimit="10" points="26.031,389.431 24.246,384.589 
	19.974,386.164 19.974,386.164 18.396,381.892 14.117,383.47 12.478,379.023 "/>
<polyline fill="none" stroke="#000000" stroke-width="2" stroke-miterlimit="10" points="9.148,374.812 6.081,370.665 
	2.419,373.372 2.419,373.372 -0.29,369.712 -3.957,372.423 -6.775,368.612 "/>
<polyline fill="none" stroke="#000000" stroke-width="2" stroke-miterlimit="10" points="44.261,389.431 42.477,384.589 
	38.203,386.164 38.203,386.164 36.627,381.892 32.348,383.47 30.707,379.023 "/>
<polyline fill="none" stroke="#000000" stroke-width="2" stroke-miterlimit="10" points="54.393,365.556 50.349,362.354 
	47.521,365.922 47.521,365.922 43.949,363.097 41.118,366.673 37.402,363.73 "/>
<polyline fill="none" stroke="#000000" stroke-width="2" stroke-miterlimit="10" points="35.555,374.276 32.219,370.341 
	28.745,373.286 28.745,373.286 25.798,369.812 22.319,372.765 19.254,369.149 "/>
<polyline fill="none" stroke="#000000" stroke-width="2" stroke-miterlimit="10" points="39.24,358.532 35.698,354.78 
	32.387,357.906 32.387,357.906 29.258,354.597 25.942,357.729 22.689,354.282 "/>
<polyline fill="none" stroke="#000000" stroke-width="2" stroke-miterlimit="10" points="39.506,340.948 35.199,338.109 
	32.693,341.911 32.693,341.911 28.889,339.408 26.379,343.217 22.422,340.61 "/>
<polyline fill="none" stroke="#000000" stroke-width="2" stroke-miterlimit="10" points="64.562,331.896 60.256,329.06 
	57.75,332.86 57.75,332.86 53.945,330.358 51.436,334.167 47.479,331.56 "/>
<polyline fill="none" stroke="#000000" stroke-width="2" stroke-miterlimit="10" points="20.938,364.35 17.002,361.015 
	14.058,364.489 14.058,364.489 10.581,361.547 7.633,365.027 4.017,361.964 "/>
<polyline fill="none" stroke="#000000" stroke-width="2" stroke-miterlimit="10" points="-3.181,430.548 -8.136,431.986 
	-6.865,436.36 -6.865,436.36 -11.239,437.632 -9.965,442.013 -14.516,443.335 "/>
<polyline fill="none" stroke="#000000" stroke-width="2" stroke-miterlimit="10" points="51.372,415.639 46.463,417.224 
	47.862,421.559 47.862,421.559 43.529,422.96 44.932,427.3 40.424,428.759 "/>
<polyline fill="none" stroke="#000000" stroke-width="2" stroke-miterlimit="10" points="53.219,413.574 55.223,408.819 
	51.025,407.052 51.025,407.052 52.791,402.854 48.588,401.084 50.426,396.716 "/>
<polyline fill="none" stroke="#000000" stroke-width="2" stroke-miterlimit="10" points="64.562,431.897 60.256,429.06 
	57.75,432.86 57.75,432.86 53.945,430.358 51.436,434.167 47.479,431.56 "/>
<polyline fill="none" stroke="#000000" stroke-width="2" stroke-miterlimit="10" points="96.822,330.548 91.867,331.987 
	93.139,336.36 93.139,336.36 88.764,337.633 90.037,342.013 85.486,343.336 "/>
<polyline fill="none" stroke="#000000" stroke-width="2" stroke-miterlimit="10" points="99.919,359.884 94.846,358.949 
	94.021,363.429 94.021,363.429 89.541,362.605 88.716,367.092 84.055,366.235 "/>
<polyline fill="none" stroke="#000000" stroke-width="2" stroke-miterlimit="10" points="79.743,375.194 77.127,370.747 
	73.201,373.056 73.201,373.056 70.891,369.132 66.96,371.444 64.557,367.36 "/>
<polyline fill="none" stroke="#000000" stroke-width="2" stroke-miterlimit="10" points="75.87,360.025 72.049,356.558 
	68.988,359.93 68.988,359.93 65.615,356.869 62.55,360.247 59.041,357.062 "/>
<polyline fill="none" stroke="#000000" stroke-width="2" stroke-miterlimit="10" points="75.673,427.642 80.488,429.497 
	82.125,425.247 82.125,425.247 86.375,426.882 88.014,422.625 92.438,424.327 "/>
<polyline fill="none" stroke="#000000" stroke-width="2" stroke-miterlimit="10" points="75.471,397.374 80.043,399.766 
	82.152,395.729 82.152,395.729 86.189,397.839 88.303,393.798 92.503,395.993 "/>
<polyline fill="none" stroke="#000000" stroke-width="2" stroke-miterlimit="10" points="68.137,417.308 72.709,419.698 
	74.818,415.663 74.818,415.663 78.855,417.772 80.969,413.73 85.17,415.926 "/>
<polyline fill="none" stroke="#000000" stroke-width="2" stroke-miterlimit="10" points="79.539,405.737 84.111,408.13 
	86.221,404.094 86.221,404.094 90.257,406.203 92.371,402.161 96.57,404.356 "/>
<polyline fill="none" stroke="#000000" stroke-width="2" stroke-miterlimit="10" points="95.998,379.907 91.895,376.778 
	89.133,380.399 89.133,380.399 85.51,377.642 82.746,381.27 78.977,378.396 "/>
<polyline fill="none" stroke="#000000" stroke-width="2" stroke-miterlimit="10" points="67.619,411.676 62.471,412.026 
	62.779,416.569 62.779,416.569 58.236,416.88 58.547,421.431 53.818,421.753 "/>
<polyline fill="none" stroke="#000000" stroke-width="2" stroke-miterlimit="10" points="84.021,352.288 80.684,348.354 
	77.211,351.298 77.211,351.298 74.264,347.826 70.785,350.776 67.721,347.162 "/>
<polyline fill="none" stroke="#000000" stroke-width="2" stroke-miterlimit="10" points="36.629,329.2 31.78,327.434 
	30.221,331.712 30.221,331.712 25.941,330.154 24.38,334.439 19.927,332.817 "/>
<polyline fill="none" stroke="#000000" stroke-width="2" stroke-miterlimit="10" points="0.97,332.227 5.542,334.618 7.652,330.583 
	7.652,330.583 11.688,332.692 13.802,328.649 18.002,330.845 "/>
<polyline fill="none" stroke="#00B7F1" stroke-width="4" stroke-miterlimit="10" points="373.5,97.5 365.5,89.5 358.5,96.5 
	358.5,96.5 351.5,89.5 344.5,96.5 336.5,88.5 "/>
</svg>
