<?xml version="1.0" encoding="utf-8"?>
<!-- Generator: Adobe Illustrator 16.0.3, SVG Export Plug-In . SVG Version: 6.00 Build 0)  -->
<!DOCTYPE svg PUBLIC "-//W3C//DTD SVG 1.1//EN" "http://www.w3.org/Graphics/SVG/1.1/DTD/svg11.dtd">
<svg version="1.1" id="Layer_1" xmlns="http://www.w3.org/2000/svg" xmlns:xlink="http://www.w3.org/1999/xlink" x="0px" y="0px"
	 width="40px" height="40px" viewBox="0 0 40 40" enable-background="new 0 0 40 40" xml:space="preserve">
<g>
	<g>
		<g>
			<path fill="#FFFFFF" d="M20,7c7.168,0,13,5.832,13,13s-5.832,13-13,13S7,27.168,7,20S12.832,7,20,7 M20,4C11.178,4,4,11.178,4,20
				s7.178,16,16,16s16-7.178,16-16S28.822,4,20,4L20,4z"/>
		</g>
	</g>
</g>
<g>
	<g>
		<path fill="#FFFFFF" d="M16.5,27.5c-0.244,0-0.489-0.06-0.712-0.18C15.303,27.059,15,26.552,15,26V14
			c0-0.552,0.303-1.059,0.788-1.32c0.484-0.262,1.074-0.234,1.535,0.066l9.138,6c0.423,0.277,0.677,0.749,0.677,1.254
			s-0.254,0.977-0.677,1.254l-9.138,6C17.074,27.417,16.787,27.5,16.5,27.5z M18,16.779v6.441L22.905,20L18,16.779z"/>
	</g>
</g>
</svg>
