<?xml version="1.0" encoding="utf-8"?>
<!-- Generator: Adobe Illustrator 16.0.3, SVG Export Plug-In . SVG Version: 6.00 Build 0)  -->
<!DOCTYPE svg PUBLIC "-//W3C//DTD SVG 1.1//EN" "http://www.w3.org/Graphics/SVG/1.1/DTD/svg11.dtd">
<svg version="1.1" id="Layer_1" xmlns="http://www.w3.org/2000/svg" xmlns:xlink="http://www.w3.org/1999/xlink" x="0px" y="0px"
	 width="80px" height="80px" viewBox="0 0 80 80" enable-background="new 0 0 80 80" xml:space="preserve">
<g>
	<g>
		<g>
			<path fill="#FFFFFF" d="M40,6c18.748,0,34,15.252,34,34c0,18.748-15.252,34-34,34C21.252,74,6,58.748,6,40
				C6,21.252,21.252,6,40,6 M40,0C17.944,0,0,17.944,0,40s17.944,40,40,40s40-17.944,40-40S62.056,0,40,0L40,0z"/>
		</g>
	</g>
</g>
<path fill="#FFFFFF" d="M55.602,37.436c-2.323-1.411-7.209-4.376-10.856-6.59s-8.682-5.271-11.188-6.792
	C31.051,22.532,29,23.686,29,26.618S29,35.571,29,40s0,10.45,0,13.383c0,2.932,2.051,4.085,4.557,2.564
	c2.506-1.521,7.541-4.578,11.188-6.793c3.647-2.214,8.533-5.18,10.856-6.59S57.925,38.846,55.602,37.436z M35,48.052V31.948
	L48.264,40L35,48.052z"/>
</svg>
