<?xml version="1.0" encoding="utf-8"?>
<!-- Generator: Adobe Illustrator 16.0.3, SVG Export Plug-In . SVG Version: 6.00 Build 0)  -->
<!DOCTYPE svg PUBLIC "-//W3C//DTD SVG 1.1//EN" "http://www.w3.org/Graphics/SVG/1.1/DTD/svg11.dtd">
<svg version="1.1" id="Layer_1" xmlns="http://www.w3.org/2000/svg" xmlns:xlink="http://www.w3.org/1999/xlink" x="0px" y="0px"
	 width="100px" height="100px" viewBox="-12.516 331.612 100 100" enable-background="new -12.516 331.612 100 100"
	 xml:space="preserve">
<polyline fill="none" stroke="#000000" stroke-width="2" stroke-miterlimit="10" points="4.607,341.056 -0.348,342.495 
	0.923,346.868 0.923,346.868 -3.45,348.142 -2.177,352.521 -6.728,353.845 "/>
<polyline fill="none" stroke="#000000" stroke-width="2" stroke-miterlimit="10" points="-3.181,330.548 -8.136,331.987 
	-6.865,336.36 -6.865,336.36 -11.238,337.633 -9.965,342.013 -14.516,343.336 "/>
<polyline fill="none" stroke="#000000" stroke-width="2" stroke-miterlimit="10" points="51.266,339.942 46.111,340.183 
	46.325,344.731 46.325,344.731 41.775,344.946 41.989,349.503 37.256,349.726 "/>
<polyline fill="none" stroke="#000000" stroke-width="2" stroke-miterlimit="10" points="80.828,392.677 78.59,388.028 
	74.486,390.005 74.486,390.005 72.508,385.901 68.399,387.881 66.342,383.612 "/>
<polyline fill="none" stroke="#000000" stroke-width="2" stroke-miterlimit="10" points="43.087,408.825 44.261,403.8 
	39.826,402.765 39.826,402.765 40.859,398.329 36.418,397.292 37.495,392.677 "/>
<polyline fill="none" stroke="#000000" stroke-width="2" stroke-miterlimit="10" points="-0.084,359.884 -5.158,358.949 
	-5.982,363.429 -5.982,363.429 -10.462,362.606 -11.287,367.092 -15.948,366.235 "/>
<polyline fill="none" stroke="#000000" stroke-width="2" stroke-miterlimit="10" points="61.537,377.091 58.064,373.274 
	54.696,376.339 54.696,376.339 51.63,372.972 48.257,376.042 45.066,372.537 "/>
<polyline fill="none" stroke="#000000" stroke-width="2" stroke-miterlimit="10" points="75.997,339.31 71.567,336.663 
	69.232,340.573 69.232,340.573 65.321,338.24 62.983,342.156 58.914,339.728 "/>
<polyline fill="none" stroke="#000000" stroke-width="2" stroke-miterlimit="10" points="22.072,346.573 17.215,344.833 
	15.679,349.121 15.679,349.121 11.39,347.587 9.853,351.882 5.391,350.285 "/>
<polyline fill="none" stroke="#000000" stroke-width="2" stroke-miterlimit="10" points="70.65,405.815 68.338,401.203 
	64.267,403.245 64.267,403.245 62.223,399.175 58.146,401.22 56.021,396.983 "/>
<polyline fill="none" stroke="#000000" stroke-width="2" stroke-miterlimit="10" points="60.719,395.281 60.619,390.122 
	56.066,390.211 56.066,390.211 55.976,385.657 51.416,385.746 51.322,381.008 "/>
<polyline fill="none" stroke="#000000" stroke-width="2" stroke-miterlimit="10" points="36.629,429.195 31.78,427.429 
	30.221,431.706 30.221,431.706 25.941,430.149 24.38,434.435 19.927,432.812 "/>
<polyline fill="none" stroke="#000000" stroke-width="2" stroke-miterlimit="10" points="16.94,403.737 12.826,400.624 
	10.078,404.255 10.078,404.255 6.445,401.509 3.693,405.146 -0.086,402.286 "/>
<polyline fill="none" stroke="#000000" stroke-width="2" stroke-miterlimit="10" points="26.502,408.627 21.927,406.239 
	19.82,410.276 19.82,410.276 15.782,408.171 13.671,412.214 9.47,410.022 "/>
<polyline fill="none" stroke="#000000" stroke-width="2" stroke-miterlimit="10" points="17.432,394.599 13.492,391.265 
	10.551,394.741 10.551,394.741 7.073,391.8 4.126,395.281 0.509,392.22 "/>
<polyline fill="none" stroke="#000000" stroke-width="2" stroke-miterlimit="10" points="33.914,406.157 33.123,401.058 
	28.623,401.757 28.623,401.757 27.924,397.256 23.416,397.955 22.689,393.272 "/>
<polyline fill="none" stroke="#000000" stroke-width="2" stroke-miterlimit="10" points="12.241,420.421 17.205,421.831 
	18.449,417.45 18.449,417.45 22.83,418.692 24.076,414.305 28.635,415.599 "/>
<polyline fill="none" stroke="#000000" stroke-width="2" stroke-miterlimit="10" points="-7.873,419.149 -3.058,421.003 
	-1.422,416.753 -1.422,416.753 2.829,418.389 4.467,414.132 8.891,415.834 "/>
<polyline fill="none" stroke="#000000" stroke-width="2" stroke-miterlimit="10" points="-24.33,427.642 -19.514,429.497 
	-17.878,425.247 -17.878,425.247 -13.628,426.882 -11.989,422.625 -7.566,424.327 "/>
<polyline fill="none" stroke="#000000" stroke-width="2" stroke-miterlimit="10" points="0.97,432.222 5.542,434.612 7.652,430.577 
	7.652,430.577 11.688,432.687 13.802,428.645 18.002,430.84 "/>
<polyline fill="none" stroke="#000000" stroke-width="2" stroke-miterlimit="10" points="-24.532,397.374 -19.96,399.766 
	-17.85,395.729 -17.85,395.729 -13.814,397.839 -11.7,393.798 -7.5,395.993 "/>
<polyline fill="none" stroke="#000000" stroke-width="2" stroke-miterlimit="10" points="-20.464,405.737 -15.892,408.13 
	-13.782,404.094 -13.782,404.094 -9.746,406.203 -7.632,402.161 -3.432,404.356 "/>
<polyline fill="none" stroke="#000000" stroke-width="2" stroke-miterlimit="10" points="62.727,350.384 57.951,348.429 
	56.227,352.644 56.227,352.644 52.012,350.921 50.285,355.143 45.898,353.349 "/>
<polyline fill="none" stroke="#000000" stroke-width="2" stroke-miterlimit="10" points="27.531,423.513 32.581,422.454 
	31.646,417.997 31.646,417.997 36.103,417.06 35.165,412.597 39.803,411.622 "/>
<polyline fill="none" stroke="#000000" stroke-width="2" stroke-miterlimit="10" points="8.427,385.701 4.323,382.573 
	1.562,386.194 1.562,386.194 -2.061,383.436 -4.825,387.063 -8.595,384.19 "/>
<polyline fill="none" stroke="#000000" stroke-width="2" stroke-miterlimit="10" points="-4.005,379.907 -8.109,376.778 
	-10.87,380.399 -10.87,380.399 -14.493,377.642 -17.257,381.269 -21.027,378.396 "/>
<polyline fill="none" stroke="#000000" stroke-width="2" stroke-miterlimit="10" points="26.031,389.431 24.246,384.589 
	19.974,386.164 19.974,386.164 18.396,381.892 14.117,383.47 12.478,379.023 "/>
<polyline fill="none" stroke="#000000" stroke-width="2" stroke-miterlimit="10" points="9.148,374.813 6.081,370.665 
	2.419,373.372 2.419,373.372 -0.29,369.712 -3.957,372.423 -6.775,368.612 "/>
<polyline fill="none" stroke="#000000" stroke-width="2" stroke-miterlimit="10" points="44.261,389.431 42.477,384.589 
	38.203,386.164 38.203,386.164 36.627,381.892 32.348,383.47 30.707,379.023 "/>
<polyline fill="none" stroke="#000000" stroke-width="2" stroke-miterlimit="10" points="54.393,365.556 50.349,362.353 
	47.521,365.922 47.521,365.922 43.949,363.097 41.118,366.673 37.402,363.73 "/>
<polyline fill="none" stroke="#000000" stroke-width="2" stroke-miterlimit="10" points="35.555,374.276 32.219,370.341 
	28.745,373.286 28.745,373.286 25.798,369.813 22.319,372.765 19.254,369.149 "/>
<polyline fill="none" stroke="#000000" stroke-width="2" stroke-miterlimit="10" points="39.24,358.532 35.698,354.78 
	32.387,357.906 32.387,357.906 29.258,354.597 25.942,357.728 22.689,354.282 "/>
<polyline fill="none" stroke="#000000" stroke-width="2" stroke-miterlimit="10" points="39.506,340.948 35.199,338.109 
	32.693,341.911 32.693,341.911 28.889,339.408 26.379,343.217 22.422,340.61 "/>
<polyline fill="none" stroke="#000000" stroke-width="2" stroke-miterlimit="10" points="64.562,331.897 60.256,329.06 
	57.75,332.86 57.75,332.86 53.945,330.358 51.436,334.167 47.479,331.56 "/>
<polyline fill="none" stroke="#000000" stroke-width="2" stroke-miterlimit="10" points="20.938,364.35 17.002,361.015 
	14.058,364.489 14.058,364.489 10.581,361.547 7.633,365.027 4.017,361.964 "/>
<polyline fill="none" stroke="#000000" stroke-width="2" stroke-miterlimit="10" points="-3.181,430.548 -8.136,431.986 
	-6.865,436.36 -6.865,436.36 -11.239,437.632 -9.965,442.013 -14.516,443.335 "/>
<polyline fill="none" stroke="#000000" stroke-width="2" stroke-miterlimit="10" points="51.372,415.639 46.463,417.224 
	47.862,421.559 47.862,421.559 43.529,422.96 44.932,427.3 40.424,428.759 "/>
<polyline fill="none" stroke="#000000" stroke-width="2" stroke-miterlimit="10" points="53.219,413.574 55.223,408.819 
	51.025,407.052 51.025,407.052 52.791,402.854 48.588,401.084 50.426,396.716 "/>
<polyline fill="none" stroke="#000000" stroke-width="2" stroke-miterlimit="10" points="64.562,431.897 60.256,429.06 
	57.75,432.86 57.75,432.86 53.945,430.358 51.436,434.167 47.479,431.56 "/>
<polyline fill="none" stroke="#000000" stroke-width="2" stroke-miterlimit="10" points="96.822,330.548 91.867,331.987 
	93.139,336.36 93.139,336.36 88.764,337.633 90.037,342.013 85.486,343.336 "/>
<polyline fill="none" stroke="#000000" stroke-width="2" stroke-miterlimit="10" points="99.919,359.884 94.845,358.949 
	94.021,363.429 94.021,363.429 89.541,362.606 88.716,367.092 84.055,366.235 "/>
<polyline fill="none" stroke="#000000" stroke-width="2" stroke-miterlimit="10" points="79.743,375.194 77.127,370.747 
	73.201,373.056 73.201,373.056 70.891,369.132 66.96,371.444 64.557,367.36 "/>
<polyline fill="none" stroke="#000000" stroke-width="2" stroke-miterlimit="10" points="75.87,360.025 72.049,356.558 
	68.988,359.93 68.988,359.93 65.615,356.869 62.55,360.247 59.041,357.062 "/>
<polyline fill="none" stroke="#000000" stroke-width="2" stroke-miterlimit="10" points="75.673,427.642 80.488,429.497 
	82.125,425.247 82.125,425.247 86.375,426.882 88.014,422.625 92.438,424.327 "/>
<polyline fill="none" stroke="#000000" stroke-width="2" stroke-miterlimit="10" points="75.471,397.374 80.043,399.766 
	82.152,395.729 82.152,395.729 86.189,397.839 88.303,393.798 92.503,395.993 "/>
<polyline fill="none" stroke="#000000" stroke-width="2" stroke-miterlimit="10" points="68.137,417.308 72.709,419.698 
	74.819,415.663 74.819,415.663 78.855,417.772 80.969,413.73 85.17,415.926 "/>
<polyline fill="none" stroke="#000000" stroke-width="2" stroke-miterlimit="10" points="79.539,405.737 84.111,408.13 
	86.221,404.094 86.221,404.094 90.257,406.203 92.371,402.161 96.571,404.356 "/>
<polyline fill="none" stroke="#000000" stroke-width="2" stroke-miterlimit="10" points="95.998,379.907 91.895,376.778 
	89.133,380.399 89.133,380.399 85.51,377.642 82.746,381.269 78.977,378.396 "/>
<polyline fill="none" stroke="#000000" stroke-width="2" stroke-miterlimit="10" points="67.619,411.676 62.471,412.026 
	62.779,416.569 62.779,416.569 58.236,416.88 58.547,421.431 53.818,421.753 "/>
<polyline fill="none" stroke="#000000" stroke-width="2" stroke-miterlimit="10" points="84.021,352.288 80.684,348.353 
	77.211,351.298 77.211,351.298 74.264,347.826 70.785,350.776 67.72,347.162 "/>
<polyline fill="none" stroke="#000000" stroke-width="2" stroke-miterlimit="10" points="36.629,329.2 31.78,327.434 
	30.221,331.712 30.221,331.712 25.941,330.154 24.38,334.439 19.927,332.817 "/>
<polyline fill="none" stroke="#000000" stroke-width="2" stroke-miterlimit="10" points="0.97,332.227 5.542,334.618 7.652,330.583 
	7.652,330.583 11.688,332.692 13.802,328.649 18.002,330.845 "/>
</svg>
