<?xml version="1.0" encoding="utf-8"?>
<!-- Generator: Adobe Illustrator 16.0.3, SVG Export Plug-In . SVG Version: 6.00 Build 0)  -->
<!DOCTYPE svg PUBLIC "-//W3C//DTD SVG 1.1//EN" "http://www.w3.org/Graphics/SVG/1.1/DTD/svg11.dtd">
<svg version="1.1" id="Layer_1" xmlns="http://www.w3.org/2000/svg" xmlns:xlink="http://www.w3.org/1999/xlink" x="0px" y="0px"
	 width="259px" height="36px" viewBox="0 0 259 36" enable-background="new 0 0 259 36" xml:space="preserve">
<path fill="none" stroke="#32C5F9" stroke-width="3" stroke-miterlimit="10" d="M18.5,23.383c2.763,0,5.01-2.246,5.01-5.008
	c0-2.763-2.247-5.01-5.01-5.01c-2.762,0-5.008,2.247-5.008,5.01C13.492,21.137,15.738,23.383,18.5,23.383z"/>
<g>
	<path fill="#32C5F9" d="M18.5,7.875c7.123,0,14.235,7.939,15.406,10.5c-1.171,2.561-8.283,10.5-15.406,10.5
		s-14.236-7.939-15.406-10.5C4.264,15.814,11.377,7.875,18.5,7.875 M18.5,4.875c-9.5,0-18.5,11-18.5,13.5c0,2.5,9,13.5,18.5,13.5
		s18.5-11,18.5-13.5C37,15.875,28,4.875,18.5,4.875L18.5,4.875z"/>
</g>
<path fill="none" stroke="#32C5F9" stroke-width="3" stroke-miterlimit="10" d="M55.5,23.508c2.763,0,5.01-2.246,5.01-5.008
	c0-2.763-2.247-5.01-5.01-5.01c-2.762,0-5.008,2.247-5.008,5.01C50.492,21.262,52.738,23.508,55.5,23.508z"/>
<g>
	<path fill="#32C5F9" d="M55.5,9c7.196,0,14.122,7.061,15.383,9.5C69.622,20.938,62.695,28,55.5,28s-14.122-7.062-15.383-9.5
		C41.378,16.061,48.304,9,55.5,9 M55.5,6C46,6,37,16,37,18.5C37,21,46,31,55.5,31S74,21,74,18.5C74,16,65,6,55.5,6L55.5,6z"/>
</g>
<path fill="none" stroke="#32C5F9" stroke-width="3" stroke-miterlimit="10" d="M92.5,23.508c2.763,0,5.01-2.246,5.01-5.008
	c0-2.763-2.247-5.01-5.01-5.01c-2.762,0-5.008,2.247-5.008,5.01C87.492,21.262,89.738,23.508,92.5,23.508z"/>
<g>
	<path fill="#32C5F9" d="M92.5,11c7.131,0,13.785,5.369,15.297,7.5C106.285,20.631,99.631,26,92.5,26s-13.785-5.369-15.297-7.5
		C78.715,16.369,85.369,11,92.5,11 M92.5,8C83,8,74,16,74,18.5C74,21,83,29,92.5,29S111,21,111,18.5C111,16,102,8,92.5,8L92.5,8z"/>
</g>
<path fill="none" stroke="#32C5F9" stroke-width="3" stroke-miterlimit="10" d="M129.5,23.508c2.763,0,5.01-2.246,5.01-5.008
	c0-2.763-2.247-5.01-5.01-5.01c-2.762,0-5.008,2.247-5.008,5.01C124.492,21.262,126.738,23.508,129.5,23.508z"/>
<g>
	<path fill="#32C5F9" d="M129.5,13c6.979,0,13.256,3.649,15.123,5.5c-1.867,1.851-8.146,5.5-15.123,5.5s-13.256-3.649-15.123-5.5
		C116.244,16.649,122.521,13,129.5,13 M129.5,10c-9.5,0-18.5,6-18.5,8.5c0,2.5,9,8.5,18.5,8.5s18.5-6,18.5-8.5
		C148,16,139,10,129.5,10L129.5,10z"/>
</g>
<path fill="none" stroke="#32C5F9" stroke-width="3" stroke-miterlimit="10" d="M166.5,23.508c2.763,0,5.01-2.246,5.01-5.008
	c0-2.763-2.247-5.01-5.01-5.01c-2.762,0-5.008,2.247-5.008,5.01C161.492,21.262,163.738,23.508,166.5,23.508z"/>
<g>
	<path fill="#32C5F9" d="M166.5,15c6.691,0,12.366,2.067,14.689,3.5c-2.323,1.433-7.998,3.5-14.689,3.5s-12.366-2.067-14.689-3.5
		C154.134,17.067,159.809,15,166.5,15 M166.5,12c-9.5,0-18.5,4-18.5,6.5c0,2.5,9,6.5,18.5,6.5s18.5-4,18.5-6.5
		C185,16,176,12,166.5,12L166.5,12z"/>
</g>
<g>
	<path fill="#32C5F9" d="M203.5,17c5.747,0,10.392,0.732,13.174,1.5c-2.782,0.768-7.427,1.5-13.174,1.5s-10.392-0.732-13.174-1.5
		C193.108,17.732,197.753,17,203.5,17 M203.5,14c-9.5,0-18.5,2-18.5,4.5c0,2.5,9,4.5,18.5,4.5s18.5-2,18.5-4.5
		C222,16,213,14,203.5,14L203.5,14z"/>
</g>
<g>
	<defs>
		<path id="SVGID_1_" d="M222,18.5c0,2.5-9,4.5-18.5,4.5S185,21,185,18.5c0-2.5,9-4.5,18.5-4.5S222,16,222,18.5z"/>
	</defs>
	<clipPath id="SVGID_2_">
		<use xlink:href="#SVGID_1_"  overflow="visible"/>
	</clipPath>
	<path clip-path="url(#SVGID_2_)" fill="none" stroke="#32C5F9" stroke-width="3" stroke-miterlimit="10" d="M203.5,23.508
		c2.763,0,5.01-2.246,5.01-5.008c0-2.763-2.247-5.01-5.01-5.01c-2.762,0-5.008,2.247-5.008,5.01
		C198.492,21.262,200.738,23.508,203.5,23.508z"/>
</g>
<g>
	<path fill="#32C5F9" d="M240.512,16c-0.004,0-0.008,0-0.012,0c-9.5,0-18.5,0-18.5,2.5c0,2.5,9,2.5,18.5,2.5s18.5,0,18.5-2.5
		C259,16,250.008,16,240.512,16L240.512,16z"/>
</g>
</svg>
