<?xml version="1.0" encoding="utf-8"?>
<!-- Generator: Adobe Illustrator 16.0.3, SVG Export Plug-In . SVG Version: 6.00 Build 0)  -->
<!DOCTYPE svg PUBLIC "-//W3C//DTD SVG 1.1//EN" "http://www.w3.org/Graphics/SVG/1.1/DTD/svg11.dtd">
<svg version="1.1" id="Layer_1" xmlns="http://www.w3.org/2000/svg" xmlns:xlink="http://www.w3.org/1999/xlink" x="0px" y="0px"
	 width="326.03px" height="348.34px" viewBox="88.518 0 326.03 348.34" enable-background="new 88.518 0 326.03 348.34"
	 xml:space="preserve">
<g>
	<polygon fill="#00B6F1" points="202.735,80.766 121.436,0 121.436,179.634 202.735,253.193 	"/>
	<polygon fill="#00B6F1" points="300.329,80.766 381.63,0 381.63,179.634 300.329,253.193 	"/>
	<g>
		<polygon fill="#0091D2" points="251.532,220.388 291.759,260.949 300.329,253.193 300.329,179.435 251.532,130.294 
			202.735,179.435 202.735,253.193 211.306,260.949 		"/>
	</g>
</g>
<g>
	<g>
		<g>
			<polygon fill="#0091D2" points="129.17,290.435 146.257,329.623 162.294,292.56 169.777,292.56 146.257,347.229 129.178,307.958 
				112.086,347.229 88.518,292.56 96.006,292.56 112.161,330.044 			"/>
		</g>
		<g>
			<rect x="188.778" y="292.474" fill="#0091D2" width="7.165" height="53.091"/>
		</g>
		<g>
			<polygon fill="#0091D2" points="221.296,290.352 260.552,330.704 260.552,292.476 267.8,292.476 267.8,348.022 228.546,307.85 
				228.546,345.565 221.296,345.565 			"/>
		</g>
		<g>
			<path fill="#0091D2" d="M342.271,300.977l-5.373,5.293c-5.416-5.307-11.682-7.962-18.793-7.962
				c-6.225,0-11.404,1.999-15.543,5.997c-4.139,3.993-6.213,8.991-6.213,14.985c0,5.246,2.008,9.97,6.027,14.172
				c4.008,4.204,9.547,6.308,16.602,6.308c10.586,0,17.234-4.596,19.963-13.79h-14.338v-7.252h22.629
				c0,3.635-0.244,6.531-0.73,8.696c-0.486,2.159-1.492,4.552-3.021,7.155c-1.529,2.609-3.564,4.946-6.107,7.015
				c-2.539,2.064-5.262,3.542-8.166,4.432c-2.9,0.884-6.365,1.33-10.395,1.33c-9.17,0-16.479-2.88-21.941-8.64
				c-5.461-5.762-8.188-12.349-8.188-19.758c0-7.806,2.793-14.446,8.375-19.928c5.584-5.478,12.348-8.223,20.295-8.223
				c4.725,0,9.037,0.716,12.941,2.147C334.192,294.386,338.185,297.06,342.271,300.977z"/>
		</g>
	</g>
	<g>
		<path fill="#0091D2" d="M360.7,309.686l9.906-19.886l4.17,1.714l-8.191,20.481L360.7,309.686z"/>
		<path fill="#0091D2" d="M407.175,301.643c-2.086-3.501-4.768-5.288-9.012-5.288c-4.469,0-9.385,3.054-9.385,7.969
			c0,4.395,4.32,6.703,7.82,8.044l4.021,1.564c7.969,3.128,13.928,7.521,13.928,16.906c0,10.203-7.895,17.502-17.949,17.502
			c-9.086,0-16.162-6.703-17.354-15.715l7.076-1.489c-0.076,6.182,4.84,10.65,10.873,10.65s10.352-5.064,10.352-10.948
			c0-6.033-4.84-8.64-9.682-10.65l-3.873-1.639c-6.404-2.756-12.213-6.405-12.213-14.226c0-9.086,8.043-14.523,16.533-14.523
			c6.256,0,11.395,3.054,14.449,8.491L407.175,301.643z"/>
	</g>
</g>
</svg>
