<?xml version="1.0" encoding="utf-8"?>
<!-- Generator: Adobe Illustrator 16.0.3, SVG Export Plug-In . SVG Version: 6.00 Build 0)  -->
<!DOCTYPE svg PUBLIC "-//W3C//DTD SVG 1.1//EN" "http://www.w3.org/Graphics/SVG/1.1/DTD/svg11.dtd">
<svg version="1.1" id="Layer_1" xmlns="http://www.w3.org/2000/svg" xmlns:xlink="http://www.w3.org/1999/xlink" x="0px" y="0px"
	 width="843.282px" height="888.77px" viewBox="0 0 843.282 888.77" enable-background="new 0 0 843.282 888.77"
	 xml:space="preserve">
<g>
	<g>
		<polygon fill="#DC3030" points="213.153,109.967 262.782,159.27 262.782,49.613 213.153,4.71 		"/>
		<polygon fill="#8D1A20" points="183.39,24.76 158.835,0 153.7,5.122 153.603,49.76 183.39,79.757 213.178,49.76 213.178,4.734 
			207.944,0 		"/>
		<g>
			<polygon fill="#00B6F1" points="49.629,49.303 0,0 0,109.657 49.629,154.561 			"/>
			<polygon fill="#00B6F1" points="109.205,49.303 158.833,0 158.833,109.657 109.205,154.561 			"/>
			<g>
				<polygon fill="#0091D2" points="79.417,134.534 103.973,159.294 109.205,154.561 109.205,109.534 79.417,79.537 49.629,109.534 
					49.629,154.561 54.861,159.294 				"/>
			</g>
		</g>
	</g>
	<g>
		<polygon fill="#DC3030" points="396.653,243.467 446.282,292.77 446.282,183.113 396.653,138.209 		"/>
		<polygon fill="#8D1A20" points="366.889,158.259 342.335,133.5 337.2,138.622 337.103,183.259 366.889,213.256 396.677,183.259 
			396.677,138.233 391.444,133.5 		"/>
		<g>
			<polygon fill="#00B6F1" points="233.129,182.802 183.501,133.5 183.501,243.156 233.129,288.06 			"/>
			<polygon fill="#00B6F1" points="292.705,182.802 342.333,133.5 342.333,243.156 292.705,288.06 			"/>
			<g>
				<polygon fill="#0091D2" points="262.917,268.033 287.473,292.793 292.705,288.06 292.705,243.034 262.917,213.037 
					233.129,243.034 233.129,288.06 238.361,292.793 				"/>
			</g>
		</g>
	</g>
</g>
<g>
	<polygon fill="#DC3030" points="610.153,109.967 659.782,159.27 659.782,49.613 610.153,4.71 	"/>
	<polygon fill="#8D1A20" points="580.39,24.76 555.835,0 550.7,5.122 550.603,49.76 580.39,79.757 610.177,49.76 610.177,4.734 
		604.944,0 	"/>
	<g>
		<polygon fill="#00B6F1" points="446.63,49.303 397.001,0 397.001,109.657 446.63,154.561 		"/>
		<polygon fill="#00B6F1" points="506.206,49.303 555.833,0 555.833,109.657 506.206,154.561 		"/>
		<g>
			<polygon fill="#0091D2" points="476.417,134.534 500.972,159.294 506.206,154.561 506.206,109.534 476.417,79.537 
				446.63,109.534 446.63,154.561 451.862,159.294 			"/>
		</g>
	</g>
</g>
<polygon fill="#DC3030" points="793.653,243.467 843.282,292.77 843.282,183.113 793.653,138.209 "/>
<polygon fill="#8D1A20" points="763.89,158.259 739.335,133.5 734.2,138.622 734.103,183.259 763.89,213.256 793.677,183.259 
	793.677,138.233 788.444,133.5 "/>
<polygon fill="#00B6F1" points="630.13,182.802 580.501,133.5 580.501,243.156 630.13,288.06 "/>
<polygon fill="#00B6F1" points="689.706,182.802 739.333,133.5 739.333,243.156 689.706,288.06 "/>
<g>
	<polygon fill="#0091D2" points="659.917,268.033 684.472,292.793 689.706,288.06 689.706,243.034 659.917,213.037 630.13,243.034 
		630.13,288.06 635.362,292.793 	"/>
</g>
<g>
	<g>
		<g>
			<polygon fill="#DC3030" points="213.153,407.967 262.782,457.27 262.782,347.613 213.153,302.71 			"/>
			<polygon fill="#8D1A20" points="183.39,322.76 158.835,298 153.7,303.122 153.603,347.76 183.39,377.757 213.178,347.76 
				213.178,302.734 207.944,298 			"/>
			<g>
				<polygon fill="#00B6F1" points="49.629,347.303 0,298 0,407.657 49.629,452.561 				"/>
				<polygon fill="#00B6F1" points="109.205,347.303 158.833,298 158.833,407.657 109.205,452.561 				"/>
				<g>
					<polygon fill="#0091D2" points="79.417,432.533 103.973,457.293 109.205,452.561 109.205,407.534 79.417,377.537 
						49.629,407.534 49.629,452.561 54.861,457.293 					"/>
				</g>
			</g>
		</g>
		<g>
			<polygon fill="#DC3030" points="396.653,541.467 446.282,590.77 446.282,481.114 396.653,436.209 			"/>
			<polygon fill="#8D1A20" points="366.889,456.26 342.335,431.5 337.2,436.621 337.103,481.26 366.889,511.256 396.677,481.26 
				396.677,436.233 391.444,431.5 			"/>
			<g>
				<polygon fill="#00B6F1" points="233.129,480.803 183.501,431.5 183.501,541.157 233.129,586.061 				"/>
				<polygon fill="#00B6F1" points="292.705,480.803 342.333,431.5 342.333,541.157 292.705,586.061 				"/>
				<g>
					<polygon fill="#0091D2" points="262.917,566.034 287.473,590.793 292.705,586.061 292.705,541.034 262.917,511.038 
						233.129,541.034 233.129,586.061 238.361,590.793 					"/>
				</g>
			</g>
		</g>
	</g>
	<g>
		<g>
			<polygon fill="#DC3030" points="610.153,407.967 659.782,457.27 659.782,347.613 610.153,302.71 			"/>
			<polygon fill="#8D1A20" points="580.39,322.76 555.835,298 550.7,303.122 550.603,347.76 580.39,377.757 610.177,347.76 
				610.177,302.734 604.944,298 			"/>
			<g>
				<polygon fill="#00B6F1" points="446.63,347.303 397.001,298 397.001,407.657 446.63,452.561 				"/>
				<polygon fill="#00B6F1" points="506.206,347.303 555.833,298 555.833,407.657 506.206,452.561 				"/>
				<g>
					<polygon fill="#0091D2" points="476.417,432.533 500.972,457.293 506.206,452.561 506.206,407.534 476.417,377.537 
						446.63,407.534 446.63,452.561 451.862,457.293 					"/>
				</g>
			</g>
		</g>
		<g>
			<polygon fill="#DC3030" points="793.653,541.467 843.282,590.77 843.282,481.114 793.653,436.209 			"/>
			<polygon fill="#8D1A20" points="763.89,456.26 739.335,431.5 734.2,436.621 734.103,481.26 763.89,511.256 793.677,481.26 
				793.677,436.233 788.444,431.5 			"/>
			<g>
				<polygon fill="#00B6F1" points="630.13,480.803 580.501,431.5 580.501,541.157 630.13,586.061 				"/>
				<polygon fill="#00B6F1" points="689.706,480.803 739.333,431.5 739.333,541.157 689.706,586.061 				"/>
				<g>
					<polygon fill="#0091D2" points="659.917,566.034 684.472,590.793 689.706,586.061 689.706,541.034 659.917,511.038 
						630.13,541.034 630.13,586.061 635.362,590.793 					"/>
				</g>
			</g>
		</g>
	</g>
</g>
<g>
	<g>
		<g>
			<polygon fill="#DC3030" points="213.153,705.967 262.782,755.27 262.782,645.614 213.153,600.709 			"/>
			<polygon fill="#8D1A20" points="183.39,620.76 158.835,596 153.7,601.122 153.603,645.76 183.39,675.756 213.178,645.76 
				213.178,600.735 207.944,596 			"/>
			<g>
				<polygon fill="#00B6F1" points="49.629,645.303 0,596 0,705.657 49.629,750.561 				"/>
				<polygon fill="#00B6F1" points="109.205,645.303 158.833,596 158.833,705.657 109.205,750.561 				"/>
				<g>
					<polygon fill="#0091D2" points="79.417,730.534 103.973,755.293 109.205,750.561 109.205,705.534 79.417,675.538 
						49.629,705.534 49.629,750.561 54.861,755.293 					"/>
				</g>
			</g>
		</g>
		<g>
			<polygon fill="#DC3030" points="396.653,839.467 446.282,888.77 446.282,779.114 396.653,734.209 			"/>
			<polygon fill="#8D1A20" points="366.889,754.26 342.335,729.5 337.2,734.622 337.103,779.26 366.889,809.256 396.677,779.26 
				396.677,734.233 391.444,729.5 			"/>
			<g>
				<polygon fill="#00B6F1" points="233.129,778.803 183.501,729.5 183.501,839.157 233.129,884.061 				"/>
				<polygon fill="#00B6F1" points="292.705,778.803 342.333,729.5 342.333,839.157 292.705,884.061 				"/>
				<g>
					<polygon fill="#0091D2" points="262.917,864.034 287.473,888.793 292.705,884.061 292.705,839.034 262.917,809.038 
						233.129,839.034 233.129,884.061 238.361,888.793 					"/>
				</g>
			</g>
		</g>
	</g>
	<g>
		<g>
			<polygon fill="#DC3030" points="610.153,705.967 659.782,755.27 659.782,645.614 610.153,600.709 			"/>
			<polygon fill="#8D1A20" points="580.39,620.76 555.835,596 550.7,601.122 550.603,645.76 580.39,675.756 610.177,645.76 
				610.177,600.735 604.944,596 			"/>
			<g>
				<polygon fill="#00B6F1" points="446.63,645.303 397.001,596 397.001,705.657 446.63,750.561 				"/>
				<polygon fill="#00B6F1" points="506.206,645.303 555.833,596 555.833,705.657 506.206,750.561 				"/>
				<g>
					<polygon fill="#0091D2" points="476.417,730.534 500.972,755.293 506.206,750.561 506.206,705.534 476.417,675.538 
						446.63,705.534 446.63,750.561 451.862,755.293 					"/>
				</g>
			</g>
		</g>
		<g>
			<polygon fill="#DC3030" points="793.653,839.467 843.282,888.77 843.282,779.114 793.653,734.209 			"/>
			<polygon fill="#8D1A20" points="763.89,754.26 739.335,729.5 734.2,734.622 734.103,779.26 763.89,809.256 793.677,779.26 
				793.677,734.233 788.444,729.5 			"/>
			<g>
				<polygon fill="#00B6F1" points="630.13,778.803 580.501,729.5 580.501,839.157 630.13,884.061 				"/>
				<polygon fill="#00B6F1" points="689.706,778.803 739.333,729.5 739.333,839.157 689.706,884.061 				"/>
				<g>
					<polygon fill="#0091D2" points="659.917,864.034 684.472,888.793 689.706,884.061 689.706,839.034 659.917,809.038 
						630.13,839.034 630.13,884.061 635.362,888.793 					"/>
				</g>
			</g>
		</g>
	</g>
</g>
</svg>
