<?xml version="1.0" encoding="utf-8"?>
<!-- Generator: Adobe Illustrator 16.0.3, SVG Export Plug-In . SVG Version: 6.00 Build 0)  -->
<!DOCTYPE svg PUBLIC "-//W3C//DTD SVG 1.1//EN" "http://www.w3.org/Graphics/SVG/1.1/DTD/svg11.dtd">
<svg version="1.1" id="Layer_1" xmlns="http://www.w3.org/2000/svg" xmlns:xlink="http://www.w3.org/1999/xlink" x="0px" y="0px"
	 width="466.969px" height="66.913px" viewBox="0 0 466.969 66.913" enable-background="new 0 0 466.969 66.913"
	 xml:space="preserve">
<path fill="#FFFFFF" d="M238.774,57.355h-10.793c-1.844,0-2.985-0.548-2.985-1.993c0-1.473,0.676-2.381,2.985-2.381h13.788v1.263
	C241.77,56.109,241.027,57.355,238.774,57.355 M261.738,54.26v-7.381c0-8.189-5.355-12.847-16.862-12.847H209.11v9.636h28.723
	c2.901,0,3.932,0.941,3.932,3.134v0.337h-22.925c-9.68,0-12.925,4.126-12.925,9.375v1.174c0,2.382,0.742,4.402,2.116,5.732
	c2.78,2.68,8.195,3.493,15.499,3.493h19.857C256.339,66.913,261.738,63.906,261.738,54.26"/>
<path fill="#FFFFFF" d="M323.547,43.512h10.92c1.844,0,3.045,0.665,3.045,2.094c0,1.473-0.62,2.281-2.929,2.281h-14.049v-1.262
	C320.534,44.758,321.276,43.512,323.547,43.512 M300.566,48.075v5.731c0,8.179,5.365,12.819,16.861,12.819h36.597v-9.547h-29.553
	c-2.902,0-3.932-0.886-3.932-3.073V53.68h22.925c8.151,0,13.002-2.725,13.002-8.844v-1.312c0-5.389-3.073-9.513-17.039-9.513
	h-20.516C305.96,34.01,300.566,38.418,300.566,48.075"/>
<path fill="#FFFFFF" d="M298.429,34.697h-25.677c-4.12,0-6.706,2.204-6.706,5.758v26.204h19.901V44.543h12.481V34.697z"/>
<polygon fill="#FFFFFF" points="187.619,28.777 167.629,28.777 167.629,66.62 203.024,66.62 203.035,56.758 187.619,56.758 "/>
<path fill="#FFFFFF" d="M162.845,44.548h-26.236c-2.791,0-4.989,1.711-4.989,5.975c0,4.862,2.63,6.28,5.167,6.28h26.402v9.845
	h-32.25c-13.622,0-19.464-4.241-19.464-14.779V49.51c0-8.965,5.487-14.813,18.833-14.813h32.538V44.548z"/>
<path fill="#FFFFFF" d="M66.344,66.647l21.064-19.215l-0.005,19.215h20.012V28.788H95.723c-4.82,0-8.223,2.032-11.496,4.868
	c-3.668,3.19-16.875,14.652-16.875,14.652v-19.52H55.576c-6.675,0-10.014,2.282-13.741,5.2C39.258,36.015,0,66.647,0,66.647h23.783
	L47.298,47.3v19.348H66.344z"/>
<path fill="#FFFFFF" d="M360.304,66.614V34.47h31.68c16.103,0,21.679,3.173,21.679,14.48v17.664h-20.001V52.262
	c0-3.755-2.07-7.227-8.018-7.227H380.3v21.579H360.304z"/>
<path fill="#FFFFFF" d="M370.46,28.528c64.057-40.741,150.385-42.101,49.565,23.911C452.967,10.393,389.713,20.665,370.46,28.528"/>
</svg>
